M48
INCH,TZ
T1C0.0118
T2C0.0157
T3C0.0394
T4C0.0591
T5C0.2402
%
G90
G05
T1
X38425Y-17598
X38425Y-17992
X38622Y-17795
X38819Y-17598
X38819Y-17992
T2
X25591Y-17008
X26457Y-17047
X26535Y-18386
X28071Y-19449
X28543Y-19252
X29213Y-18543
X29606Y-15787
X31890Y-21063
X35197Y-13740
X36535Y-13780
X36850Y-24370
X36929Y-24764
X37047Y-25236
X37402Y-25551
X38583Y-12795
X39134Y-26575
X40118Y-27323
X40906Y-12795
X45079Y-20512
X45945Y-17913
X45984Y-17362
T3
X42717Y-31457
X40906Y-28150
X34016Y-17126
X37402Y-28150
X37323Y-21772
X26457Y-20787
X35669Y-20512
X35669Y-18976
X38504Y-14567
X21457Y-28819
X21457Y-29819
X21457Y-15843
X21457Y-16843
X21457Y-17843
X21457Y-18843
X21457Y-19843
X21457Y-20843
X21457Y-21843
X21457Y-22843
X21457Y-23843
X21457Y-24843
X30669Y-16732
X39213Y-31535
X41220Y-16378
X44331Y-21142
X24882Y-20787
X37402Y-31614
X21496Y-34488
X21496Y-35488
X44921Y-27079
X44921Y-28079
X44921Y-29079
X44921Y-30079
X42559Y-28110
X40827Y-31457
X39134Y-28150
X24843Y-22283
T4
X26882Y-26638
X26882Y-28638
X34882Y-23638
X34882Y-27638
X34882Y-31638
T5
X45276Y-14331
X45276Y-35197
T0
M30
