%TF.GenerationSoftware,KiCad,Pcbnew,(5.1.8)-1*%
%TF.CreationDate,2020-12-02T17:51:49+01:00*%
%TF.ProjectId,board,626f6172-642e-46b6-9963-61645f706362,rev?*%
%TF.SameCoordinates,Original*%
%TF.FileFunction,Copper,L1,Top*%
%TF.FilePolarity,Positive*%
%FSLAX46Y46*%
G04 Gerber Fmt 4.6, Leading zero omitted, Abs format (unit mm)*
G04 Created by KiCad (PCBNEW (5.1.8)-1) date 2020-12-02 17:51:49*
%MOMM*%
%LPD*%
G01*
G04 APERTURE LIST*
%TA.AperFunction,ComponentPad*%
%ADD10O,1.700000X1.700000*%
%TD*%
%TA.AperFunction,ComponentPad*%
%ADD11R,1.700000X1.700000*%
%TD*%
%TA.AperFunction,SMDPad,CuDef*%
%ADD12R,1.500000X1.250000*%
%TD*%
%TA.AperFunction,SMDPad,CuDef*%
%ADD13R,1.600000X3.500000*%
%TD*%
%TA.AperFunction,SMDPad,CuDef*%
%ADD14R,3.500000X1.600000*%
%TD*%
%TA.AperFunction,SMDPad,CuDef*%
%ADD15R,1.250000X1.500000*%
%TD*%
%TA.AperFunction,SMDPad,CuDef*%
%ADD16R,2.500000X4.000000*%
%TD*%
%TA.AperFunction,SMDPad,CuDef*%
%ADD17R,0.800000X0.900000*%
%TD*%
%TA.AperFunction,SMDPad,CuDef*%
%ADD18R,0.900000X0.800000*%
%TD*%
%TA.AperFunction,ComponentPad*%
%ADD19C,10.160000*%
%TD*%
%TA.AperFunction,ComponentPad*%
%ADD20C,3.000000*%
%TD*%
%TA.AperFunction,SMDPad,CuDef*%
%ADD21R,1.750000X0.450000*%
%TD*%
%TA.AperFunction,SMDPad,CuDef*%
%ADD22R,1.450000X0.450000*%
%TD*%
%TA.AperFunction,SMDPad,CuDef*%
%ADD23R,1.400000X0.300000*%
%TD*%
%TA.AperFunction,SMDPad,CuDef*%
%ADD24R,0.600000X1.550000*%
%TD*%
%TA.AperFunction,ComponentPad*%
%ADD25C,0.600000*%
%TD*%
%TA.AperFunction,SMDPad,CuDef*%
%ADD26R,2.000000X0.350000*%
%TD*%
%TA.AperFunction,SMDPad,CuDef*%
%ADD27R,0.350000X2.000000*%
%TD*%
%TA.AperFunction,SMDPad,CuDef*%
%ADD28R,2.500000X2.500000*%
%TD*%
%TA.AperFunction,ViaPad*%
%ADD29C,0.800000*%
%TD*%
%TA.AperFunction,Conductor*%
%ADD30C,1.000000*%
%TD*%
%TA.AperFunction,Conductor*%
%ADD31C,0.250000*%
%TD*%
%TA.AperFunction,Conductor*%
%ADD32C,0.500000*%
%TD*%
%TA.AperFunction,Conductor*%
%ADD33C,0.254000*%
%TD*%
%TA.AperFunction,Conductor*%
%ADD34C,0.100000*%
%TD*%
G04 APERTURE END LIST*
D10*
%TO.P,J6,4*%
%TO.N,GND*%
X114100000Y-68780000D03*
%TO.P,J6,3*%
%TO.N,/Aux2*%
X114100000Y-71320000D03*
%TO.P,J6,2*%
%TO.N,/Aux1*%
X114100000Y-73860000D03*
D11*
%TO.P,J6,1*%
%TO.N,+5V*%
X114100000Y-76400000D03*
%TD*%
D12*
%TO.P,C1,1*%
%TO.N,/Vin*%
X62450000Y-60100000D03*
%TO.P,C1,2*%
%TO.N,/GND_in*%
X59950000Y-60100000D03*
%TD*%
D13*
%TO.P,C2,2*%
%TO.N,/GND_in*%
X61200000Y-74500000D03*
%TO.P,C2,1*%
%TO.N,/Vin*%
X61200000Y-79900000D03*
%TD*%
%TO.P,C3,1*%
%TO.N,/Vin*%
X61200000Y-63900000D03*
%TO.P,C3,2*%
%TO.N,/GND_in*%
X61200000Y-69300000D03*
%TD*%
D14*
%TO.P,C4,2*%
%TO.N,GND*%
X83600000Y-86900000D03*
%TO.P,C4,1*%
%TO.N,+5V*%
X89000000Y-86900000D03*
%TD*%
D15*
%TO.P,C5,2*%
%TO.N,GND*%
X80000000Y-87250000D03*
%TO.P,C5,1*%
%TO.N,+5V*%
X80000000Y-84750000D03*
%TD*%
%TO.P,C6,2*%
%TO.N,/GND_in*%
X59800000Y-42800000D03*
%TO.P,C6,1*%
%TO.N,/5V_in*%
X59800000Y-40300000D03*
%TD*%
D12*
%TO.P,C7,2*%
%TO.N,GND*%
X79000000Y-51500000D03*
%TO.P,C7,1*%
%TO.N,+5V*%
X81500000Y-51500000D03*
%TD*%
D15*
%TO.P,C8,1*%
%TO.N,+5V*%
X72000000Y-40100000D03*
%TO.P,C8,2*%
%TO.N,GND*%
X72000000Y-42600000D03*
%TD*%
D12*
%TO.P,C9,1*%
%TO.N,Net-(C9-Pad1)*%
X76750000Y-51500000D03*
%TO.P,C9,2*%
%TO.N,GND*%
X74250000Y-51500000D03*
%TD*%
%TO.P,C10,1*%
%TO.N,+5V*%
X103000000Y-67500000D03*
%TO.P,C10,2*%
%TO.N,GND*%
X100500000Y-67500000D03*
%TD*%
D16*
%TO.P,C11,2*%
%TO.N,GND*%
X102100000Y-59000000D03*
%TO.P,C11,1*%
%TO.N,+5V*%
X102100000Y-51000000D03*
%TD*%
D15*
%TO.P,C12,1*%
%TO.N,+5V*%
X109300000Y-53550000D03*
%TO.P,C12,2*%
%TO.N,GND*%
X109300000Y-56050000D03*
%TD*%
%TO.P,C13,2*%
%TO.N,GND*%
X107350000Y-76900000D03*
%TO.P,C13,1*%
%TO.N,Net-(C13-Pad1)*%
X107350000Y-74400000D03*
%TD*%
%TO.P,C14,1*%
%TO.N,Net-(C14-Pad1)*%
X104850000Y-74400000D03*
%TO.P,C14,2*%
%TO.N,GND*%
X104850000Y-76900000D03*
%TD*%
%TO.P,C15,2*%
%TO.N,GND*%
X98400000Y-77000000D03*
%TO.P,C15,1*%
%TO.N,Net-(C15-Pad1)*%
X98400000Y-74500000D03*
%TD*%
%TO.P,C16,1*%
%TO.N,Net-(C16-Pad1)*%
X96000000Y-74500000D03*
%TO.P,C16,2*%
%TO.N,GND*%
X96000000Y-77000000D03*
%TD*%
%TO.P,C17,1*%
%TO.N,+5V*%
X117600000Y-50200000D03*
%TO.P,C17,2*%
%TO.N,GND*%
X117600000Y-47700000D03*
%TD*%
D17*
%TO.P,D1,2*%
%TO.N,+5V*%
X89550000Y-55000000D03*
%TO.P,D1,1*%
%TO.N,Net-(D1-Pad1)*%
X91650000Y-55000000D03*
%TD*%
D18*
%TO.P,D2,1*%
%TO.N,Net-(D2-Pad1)*%
X94800000Y-37150000D03*
%TO.P,D2,2*%
%TO.N,+5V*%
X94800000Y-35050000D03*
%TD*%
D10*
%TO.P,J1,10*%
%TO.N,/5V_in*%
X54500000Y-40240000D03*
%TO.P,J1,9*%
%TO.N,/CLK_in*%
X54500000Y-42780000D03*
%TO.P,J1,8*%
%TO.N,/MOSI_in*%
X54500000Y-45320000D03*
%TO.P,J1,7*%
%TO.N,/MISO_in*%
X54500000Y-47860000D03*
%TO.P,J1,6*%
%TO.N,/CS_ADC\u005C_in*%
X54500000Y-50400000D03*
%TO.P,J1,5*%
%TO.N,/CS_DAC\u005C_in*%
X54500000Y-52940000D03*
%TO.P,J1,4*%
%TO.N,/VIB_in*%
X54500000Y-55480000D03*
%TO.P,J1,3*%
%TO.N,/VOC_in*%
X54500000Y-58020000D03*
%TO.P,J1,2*%
%TO.N,Net-(J1-Pad2)*%
X54500000Y-60560000D03*
D11*
%TO.P,J1,1*%
%TO.N,/GND_in*%
X54500000Y-63100000D03*
%TD*%
D10*
%TO.P,J2,2*%
%TO.N,/Vin*%
X54500000Y-75740000D03*
D11*
%TO.P,J2,1*%
%TO.N,/GND_in*%
X54500000Y-73200000D03*
%TD*%
%TO.P,J3,1*%
%TO.N,GND*%
X54600000Y-87600000D03*
D10*
%TO.P,J3,2*%
%TO.N,/C+*%
X54600000Y-90140000D03*
%TD*%
D19*
%TO.P,J4,1*%
%TO.N,GND*%
X115000000Y-89400000D03*
%TD*%
%TO.P,J5,1*%
%TO.N,/C+*%
X115000000Y-36400000D03*
%TD*%
D12*
%TO.P,R1,2*%
%TO.N,GND*%
X74250000Y-45500000D03*
%TO.P,R1,1*%
%TO.N,Net-(R1-Pad1)*%
X76750000Y-45500000D03*
%TD*%
%TO.P,R2,1*%
%TO.N,Net-(R1-Pad1)*%
X79050000Y-45500000D03*
%TO.P,R2,2*%
%TO.N,Net-(R2-Pad2)*%
X81550000Y-45500000D03*
%TD*%
D15*
%TO.P,R3,1*%
%TO.N,GND*%
X89700000Y-42800000D03*
%TO.P,R3,2*%
%TO.N,Net-(R3-Pad2)*%
X89700000Y-45300000D03*
%TD*%
%TO.P,R4,1*%
%TO.N,Net-(R3-Pad2)*%
X91700000Y-45300000D03*
%TO.P,R4,2*%
%TO.N,Net-(R4-Pad2)*%
X91700000Y-42800000D03*
%TD*%
%TO.P,R5,1*%
%TO.N,Net-(D1-Pad1)*%
X93500000Y-52100000D03*
%TO.P,R5,2*%
%TO.N,Net-(R5-Pad2)*%
X93500000Y-49600000D03*
%TD*%
D12*
%TO.P,R6,2*%
%TO.N,GND*%
X99900000Y-39800000D03*
%TO.P,R6,1*%
%TO.N,Net-(R6-Pad1)*%
X97400000Y-39800000D03*
%TD*%
D15*
%TO.P,R7,2*%
%TO.N,Net-(R7-Pad2)*%
X95700000Y-52200000D03*
%TO.P,R7,1*%
%TO.N,Net-(R5-Pad2)*%
X95700000Y-49700000D03*
%TD*%
%TO.P,R8,2*%
%TO.N,Net-(R8-Pad2)*%
X94900000Y-41400000D03*
%TO.P,R8,1*%
%TO.N,Net-(D2-Pad1)*%
X94900000Y-38900000D03*
%TD*%
%TO.P,R9,2*%
%TO.N,/C+*%
X94000000Y-77000000D03*
%TO.P,R9,1*%
%TO.N,Net-(C16-Pad1)*%
X94000000Y-74500000D03*
%TD*%
%TO.P,R10,2*%
%TO.N,/V_I*%
X100650000Y-77000000D03*
%TO.P,R10,1*%
%TO.N,Net-(C15-Pad1)*%
X100650000Y-74500000D03*
%TD*%
%TO.P,R11,1*%
%TO.N,Net-(C14-Pad1)*%
X102850000Y-74400000D03*
%TO.P,R11,2*%
%TO.N,/Aux1*%
X102850000Y-76900000D03*
%TD*%
%TO.P,R12,2*%
%TO.N,/Aux2*%
X109350000Y-76900000D03*
%TO.P,R12,1*%
%TO.N,Net-(C13-Pad1)*%
X109350000Y-74400000D03*
%TD*%
%TO.P,R13,2*%
%TO.N,Net-(R13-Pad2)*%
X109600000Y-47700000D03*
%TO.P,R13,1*%
%TO.N,GND*%
X109600000Y-50200000D03*
%TD*%
D11*
%TO.P,TP1,1*%
%TO.N,Net-(J1-Pad2)*%
X63100000Y-56600000D03*
%TD*%
%TO.P,TP2,1*%
%TO.N,Net-(TP2-Pad1)*%
X63200000Y-52800000D03*
%TD*%
%TO.P,TP3,1*%
%TO.N,Net-(TP3-Pad1)*%
X67200000Y-52800000D03*
%TD*%
%TO.P,TP4,1*%
%TO.N,Net-(R1-Pad1)*%
X77900000Y-42500000D03*
%TD*%
%TO.P,TP5,1*%
%TO.N,Net-(R2-Pad2)*%
X90600000Y-48200000D03*
%TD*%
%TO.P,TP6,1*%
%TO.N,Net-(R3-Pad2)*%
X86400000Y-43500000D03*
%TD*%
%TO.P,TP7,1*%
%TO.N,Net-(C13-Pad1)*%
X108100000Y-71400000D03*
%TD*%
%TO.P,TP8,1*%
%TO.N,Net-(R7-Pad2)*%
X94800000Y-55300000D03*
%TD*%
%TO.P,TP9,1*%
%TO.N,Net-(R8-Pad2)*%
X97800000Y-37000000D03*
%TD*%
%TO.P,TP10,1*%
%TO.N,Net-(R5-Pad2)*%
X90600000Y-52100000D03*
%TD*%
%TO.P,TP11,1*%
%TO.N,Net-(R4-Pad2)*%
X104700000Y-41600000D03*
%TD*%
%TO.P,TP12,1*%
%TO.N,Net-(C14-Pad1)*%
X103900000Y-71500000D03*
%TD*%
%TO.P,TP13,1*%
%TO.N,Net-(C15-Pad1)*%
X99400000Y-71500000D03*
%TD*%
%TO.P,TP14,1*%
%TO.N,Net-(C16-Pad1)*%
X95000000Y-71500000D03*
%TD*%
%TO.P,TP15,1*%
%TO.N,/Aux2*%
X108500000Y-79900000D03*
%TD*%
%TO.P,TP16,1*%
%TO.N,Net-(R13-Pad2)*%
X112600000Y-53700000D03*
%TD*%
%TO.P,TP17,1*%
%TO.N,/Aux1*%
X103700000Y-79900000D03*
%TD*%
%TO.P,TP18,1*%
%TO.N,/V_I*%
X99600000Y-80100000D03*
%TD*%
%TO.P,TP19,1*%
%TO.N,/C+*%
X95000000Y-80300000D03*
%TD*%
D20*
%TO.P,U1,5*%
%TO.N,GND*%
X88600000Y-60040000D03*
%TO.P,U1,4*%
%TO.N,Net-(U1-Pad4)*%
X88600000Y-70200000D03*
%TO.P,U1,3*%
%TO.N,+5V*%
X88600000Y-80360000D03*
%TO.P,U1,2*%
%TO.N,/Vin*%
X68280000Y-72740000D03*
%TO.P,U1,1*%
%TO.N,/GND_in*%
X68280000Y-67660000D03*
%TD*%
D21*
%TO.P,U2,20*%
%TO.N,+5V*%
X69550000Y-42825000D03*
%TO.P,U2,19*%
%TO.N,GND*%
X69550000Y-43475000D03*
%TO.P,U2,18*%
%TO.N,/CLK*%
X69550000Y-44125000D03*
%TO.P,U2,17*%
%TO.N,/MOSI*%
X69550000Y-44775000D03*
%TO.P,U2,16*%
%TO.N,/MISO*%
X69550000Y-45425000D03*
%TO.P,U2,15*%
%TO.N,/CS_ADC\u005C*%
X69550000Y-46075000D03*
%TO.P,U2,14*%
%TO.N,/CS_DAC\u005C*%
X69550000Y-46725000D03*
%TO.P,U2,13*%
%TO.N,Net-(TP2-Pad1)*%
X69550000Y-47375000D03*
%TO.P,U2,12*%
%TO.N,Net-(TP3-Pad1)*%
X69550000Y-48025000D03*
%TO.P,U2,11*%
%TO.N,GND*%
X69550000Y-48675000D03*
%TO.P,U2,10*%
%TO.N,/GND_in*%
X62350000Y-48675000D03*
%TO.P,U2,9*%
%TO.N,/VOC_in*%
X62350000Y-48025000D03*
%TO.P,U2,8*%
%TO.N,/VIB_in*%
X62350000Y-47375000D03*
%TO.P,U2,7*%
%TO.N,/CS_DAC\u005C_in*%
X62350000Y-46725000D03*
%TO.P,U2,6*%
%TO.N,/CS_ADC\u005C_in*%
X62350000Y-46075000D03*
%TO.P,U2,5*%
%TO.N,/MISO_in*%
X62350000Y-45425000D03*
%TO.P,U2,4*%
%TO.N,/MOSI_in*%
X62350000Y-44775000D03*
%TO.P,U2,3*%
%TO.N,/CLK_in*%
X62350000Y-44125000D03*
%TO.P,U2,2*%
%TO.N,/GND_in*%
X62350000Y-43475000D03*
%TO.P,U2,1*%
%TO.N,/5V_in*%
X62350000Y-42825000D03*
%TD*%
D22*
%TO.P,U3,8*%
%TO.N,GND*%
X75800000Y-49425000D03*
%TO.P,U3,7*%
%TO.N,/MOSI*%
X75800000Y-48775000D03*
%TO.P,U3,6*%
%TO.N,/CLK*%
X75800000Y-48125000D03*
%TO.P,U3,5*%
%TO.N,/CS_DAC\u005C*%
X75800000Y-47475000D03*
%TO.P,U3,4*%
%TO.N,Net-(R2-Pad2)*%
X80200000Y-47475000D03*
%TO.P,U3,3*%
%TO.N,Net-(R1-Pad1)*%
X80200000Y-48125000D03*
%TO.P,U3,2*%
%TO.N,Net-(C9-Pad1)*%
X80200000Y-48775000D03*
%TO.P,U3,1*%
%TO.N,+5V*%
X80200000Y-49425000D03*
%TD*%
D23*
%TO.P,U4,10*%
%TO.N,/MOSI*%
X103900000Y-63500000D03*
%TO.P,U4,9*%
%TO.N,/MISO*%
X103900000Y-64000000D03*
%TO.P,U4,8*%
%TO.N,+5V*%
X103900000Y-64500000D03*
%TO.P,U4,7*%
%TO.N,Net-(C13-Pad1)*%
X103900000Y-65000000D03*
%TO.P,U4,6*%
%TO.N,Net-(C14-Pad1)*%
X103900000Y-65500000D03*
%TO.P,U4,5*%
%TO.N,Net-(C15-Pad1)*%
X99500000Y-65500000D03*
%TO.P,U4,4*%
%TO.N,Net-(C16-Pad1)*%
X99500000Y-65000000D03*
%TO.P,U4,3*%
%TO.N,GND*%
X99500000Y-64500000D03*
%TO.P,U4,2*%
%TO.N,/CS_ADC\u005C*%
X99500000Y-64000000D03*
%TO.P,U4,1*%
%TO.N,/CLK*%
X99500000Y-63500000D03*
%TD*%
D24*
%TO.P,U6,8*%
%TO.N,+5V*%
X115505000Y-50200000D03*
%TO.P,U6,7*%
%TO.N,/V_I*%
X114235000Y-50200000D03*
%TO.P,U6,6*%
%TO.N,Net-(R13-Pad2)*%
X112965000Y-50200000D03*
%TO.P,U6,5*%
%TO.N,GND*%
X111695000Y-50200000D03*
%TO.P,U6,4*%
%TO.N,Net-(R4-Pad2)*%
X111695000Y-44800000D03*
%TO.P,U6,3*%
X112965000Y-44800000D03*
%TO.P,U6,2*%
%TO.N,/C+*%
X114235000Y-44800000D03*
%TO.P,U6,1*%
X115505000Y-44800000D03*
%TD*%
D25*
%TO.P,U5,13*%
%TO.N,Net-(U5-Pad13)*%
X98100000Y-45200000D03*
D26*
%TO.P,U5,8*%
%TO.N,Net-(R3-Pad2)*%
X95200000Y-45200000D03*
%TO.P,U5,2*%
%TO.N,Net-(R4-Pad2)*%
X101000000Y-45200000D03*
%TO.P,U5,9*%
%TO.N,Net-(R2-Pad2)*%
X95200000Y-46200000D03*
D27*
%TO.P,U5,10*%
%TO.N,Net-(R5-Pad2)*%
X97100000Y-48100000D03*
%TO.P,U5,11*%
%TO.N,Net-(R7-Pad2)*%
X98100000Y-48100000D03*
%TO.P,U5,12*%
%TO.N,+5V*%
X99100000Y-48100000D03*
D26*
%TO.P,U5,1*%
X101000000Y-46200000D03*
%TO.P,U5,3*%
%TO.N,Net-(R4-Pad2)*%
X101000000Y-44200000D03*
D27*
%TO.P,U5,4*%
%TO.N,GND*%
X99100000Y-42300000D03*
%TO.P,U5,5*%
X98100000Y-42300000D03*
%TO.P,U5,6*%
%TO.N,Net-(R6-Pad1)*%
X97100000Y-42300000D03*
D26*
%TO.P,U5,7*%
%TO.N,Net-(R8-Pad2)*%
X95200000Y-44200000D03*
D28*
%TO.P,U5,13*%
%TO.N,Net-(U5-Pad13)*%
X98100000Y-45200000D03*
D25*
X97600000Y-44700000D03*
X98600000Y-44700000D03*
X98600000Y-45700000D03*
X97600000Y-45700000D03*
%TD*%
D29*
%TO.N,GND*%
X99400000Y-67500000D03*
%TO.N,+5V*%
X75200000Y-40100000D03*
X81000000Y-53500000D03*
X101900000Y-69400000D03*
X92800000Y-35000000D03*
X89400000Y-34900000D03*
%TO.N,/C+*%
X116800000Y-44100000D03*
X116700000Y-45500000D03*
%TO.N,Net-(R4-Pad2)*%
X103900000Y-32500000D03*
X98000000Y-32500000D03*
%TO.N,/V_I*%
X114500000Y-52100000D03*
%TO.N,/CLK*%
X67200000Y-43300000D03*
X94100000Y-64100000D03*
%TO.N,/MOSI*%
X72500000Y-48900000D03*
X93600000Y-61900000D03*
%TO.N,/MISO*%
X93800000Y-62900000D03*
X71300000Y-49400000D03*
%TO.N,/CS_ADC\u005C*%
X65000000Y-43200000D03*
X95000000Y-64900000D03*
%TO.N,/CS_DAC\u005C*%
X67400000Y-46700000D03*
X74200000Y-47100000D03*
%TD*%
D30*
%TO.N,/Vin*%
X68280000Y-72740000D02*
X68280000Y-75320000D01*
X65100000Y-78500000D02*
X61200000Y-78500000D01*
X68280000Y-75320000D02*
X65100000Y-78500000D01*
X57260000Y-78500000D02*
X54500000Y-75740000D01*
X61200000Y-78500000D02*
X57260000Y-78500000D01*
X61200000Y-63900000D02*
X69000000Y-63900000D01*
X69000000Y-63900000D02*
X71200000Y-66100000D01*
X71200000Y-69820000D02*
X68280000Y-72740000D01*
X71200000Y-66100000D02*
X71200000Y-69820000D01*
X61200000Y-63900000D02*
X61200000Y-63700000D01*
X62450000Y-62450000D02*
X62450000Y-60100000D01*
X61200000Y-63700000D02*
X62450000Y-62450000D01*
D31*
%TO.N,/GND_in*%
X59800000Y-42800000D02*
X60200000Y-42800000D01*
X60875000Y-43475000D02*
X62350000Y-43475000D01*
X60200000Y-42800000D02*
X60875000Y-43475000D01*
D30*
X61200000Y-69300000D02*
X61200000Y-73100000D01*
X62840000Y-67660000D02*
X61200000Y-69300000D01*
X68280000Y-67660000D02*
X62840000Y-67660000D01*
X61200000Y-69300000D02*
X61000000Y-69300000D01*
X61200000Y-69300000D02*
X60700000Y-69300000D01*
X60700000Y-69300000D02*
X58600000Y-67200000D01*
X58600000Y-61450000D02*
X59950000Y-60100000D01*
X61100000Y-73200000D02*
X61200000Y-73100000D01*
X54500000Y-73200000D02*
X61100000Y-73200000D01*
D32*
X58500000Y-63100000D02*
X58600000Y-63000000D01*
X54500000Y-63100000D02*
X58500000Y-63100000D01*
D30*
X58600000Y-63000000D02*
X58600000Y-61450000D01*
X58600000Y-67200000D02*
X58600000Y-63000000D01*
D31*
X62350000Y-43475000D02*
X64075000Y-43475000D01*
X64075000Y-43475000D02*
X64400000Y-43800000D01*
X64400000Y-43800000D02*
X64400000Y-47800000D01*
X63525000Y-48675000D02*
X62350000Y-48675000D01*
X64400000Y-47800000D02*
X63525000Y-48675000D01*
X62350000Y-48675000D02*
X62025000Y-48675000D01*
X62025000Y-48675000D02*
X61000000Y-49700000D01*
X61000000Y-49700000D02*
X61000000Y-54300000D01*
X61000000Y-54300000D02*
X61600000Y-54900000D01*
X61600000Y-54900000D02*
X64400000Y-54900000D01*
X64400000Y-54900000D02*
X64900000Y-55400000D01*
X64900000Y-55400000D02*
X64900000Y-57800000D01*
X64900000Y-57800000D02*
X63900000Y-58800000D01*
X61250000Y-58800000D02*
X59950000Y-60100000D01*
X63900000Y-58800000D02*
X61250000Y-58800000D01*
%TO.N,GND*%
X75800000Y-49425000D02*
X75175000Y-49425000D01*
X74250000Y-50350000D02*
X74250000Y-51500000D01*
X75175000Y-49425000D02*
X74250000Y-50350000D01*
X71125000Y-43475000D02*
X72000000Y-42600000D01*
X69550000Y-43475000D02*
X71125000Y-43475000D01*
X74250000Y-45500000D02*
X74250000Y-45450000D01*
X72000000Y-43200000D02*
X72000000Y-42600000D01*
X74250000Y-45450000D02*
X72000000Y-43200000D01*
D30*
X80350000Y-86900000D02*
X80000000Y-87250000D01*
X83600000Y-86900000D02*
X80350000Y-86900000D01*
X99100000Y-42300000D02*
X99700000Y-42300000D01*
X99900000Y-42100000D02*
X99900000Y-39800000D01*
X99700000Y-42300000D02*
X99900000Y-42100000D01*
X98100000Y-42300000D02*
X99100000Y-42300000D01*
X101060000Y-60040000D02*
X102100000Y-59000000D01*
D32*
X109300000Y-58900000D02*
X109200000Y-59000000D01*
X109300000Y-56050000D02*
X109300000Y-58900000D01*
D30*
X102100000Y-59000000D02*
X109200000Y-59000000D01*
D32*
X97100000Y-77000000D02*
X97100000Y-81800000D01*
X96000000Y-77000000D02*
X97100000Y-77000000D01*
X97100000Y-77000000D02*
X98400000Y-77000000D01*
X97100000Y-81800000D02*
X98100000Y-82800000D01*
X98100000Y-82800000D02*
X105500000Y-82800000D01*
X106100000Y-82200000D02*
X106100000Y-76900000D01*
X106100000Y-76900000D02*
X107350000Y-76900000D01*
X105500000Y-82800000D02*
X106100000Y-82200000D01*
X104850000Y-76900000D02*
X106100000Y-76900000D01*
D31*
X100500000Y-67500000D02*
X100500000Y-67400000D01*
X100500000Y-67400000D02*
X101300000Y-66600000D01*
X101300000Y-66600000D02*
X101300000Y-64900000D01*
X100900000Y-64500000D02*
X99500000Y-64500000D01*
X101300000Y-64900000D02*
X100900000Y-64500000D01*
D30*
X80000000Y-87250000D02*
X78650000Y-87250000D01*
X88600000Y-60040000D02*
X91540000Y-60040000D01*
X91540000Y-60040000D02*
X101060000Y-60040000D01*
X91540000Y-88660000D02*
X90700000Y-89500000D01*
X86200000Y-89500000D02*
X83600000Y-86900000D01*
X90700000Y-89500000D02*
X86200000Y-89500000D01*
X113860000Y-88660000D02*
X114000000Y-88800000D01*
D31*
X69550000Y-48675000D02*
X69550000Y-50050000D01*
X71000000Y-51500000D02*
X74250000Y-51500000D01*
X69550000Y-50050000D02*
X71000000Y-51500000D01*
X75800000Y-49425000D02*
X77175000Y-49425000D01*
X77175000Y-49425000D02*
X77400000Y-49200000D01*
X77400000Y-49200000D02*
X77400000Y-47400000D01*
X75200001Y-46450001D02*
X74250000Y-45500000D01*
X76450001Y-46450001D02*
X75200001Y-46450001D01*
X77400000Y-47400000D02*
X76450001Y-46450001D01*
D32*
X79000000Y-51500000D02*
X77300000Y-53200000D01*
X77300000Y-85900000D02*
X78650000Y-87250000D01*
X77300000Y-53200000D02*
X77300000Y-85900000D01*
X74250000Y-51500000D02*
X74250000Y-51950000D01*
X75500000Y-53200000D02*
X77300000Y-53200000D01*
X74250000Y-51950000D02*
X75500000Y-53200000D01*
D30*
X79650000Y-87600000D02*
X80000000Y-87250000D01*
X54600000Y-87600000D02*
X79650000Y-87600000D01*
X99900000Y-39800000D02*
X99900000Y-32500000D01*
X101300000Y-31100000D02*
X104500000Y-31100000D01*
X108219999Y-34819999D02*
X108219999Y-41619999D01*
X104500000Y-31100000D02*
X108219999Y-34819999D01*
X108219999Y-41619999D02*
X109200000Y-42600000D01*
X109200000Y-42600000D02*
X117400000Y-42600000D01*
X117400000Y-42600000D02*
X119600000Y-44800000D01*
X119600000Y-55700000D02*
X116400000Y-58900000D01*
D32*
X114100000Y-59200000D02*
X113800000Y-58900000D01*
X114100000Y-68780000D02*
X114100000Y-59200000D01*
D30*
X116400000Y-58900000D02*
X113800000Y-58900000D01*
D32*
X119100000Y-47700000D02*
X119600000Y-48200000D01*
X117600000Y-47700000D02*
X119100000Y-47700000D01*
D30*
X119600000Y-48200000D02*
X119600000Y-55700000D01*
X119600000Y-44800000D02*
X119600000Y-48200000D01*
X113800000Y-58900000D02*
X111000000Y-58900000D01*
X111000000Y-58900000D02*
X109300000Y-58900000D01*
D32*
X109600000Y-50200000D02*
X109600000Y-51300000D01*
X109600000Y-51300000D02*
X110700000Y-52400000D01*
X110700000Y-58600000D02*
X111000000Y-58900000D01*
X110700000Y-52400000D02*
X110700000Y-58600000D01*
X111695000Y-50200000D02*
X109600000Y-50200000D01*
X89700000Y-41900000D02*
X89700000Y-42800000D01*
X88300000Y-40500000D02*
X89700000Y-41900000D01*
X76700000Y-40500000D02*
X88300000Y-40500000D01*
X74600000Y-42600000D02*
X76700000Y-40500000D01*
X72000000Y-42600000D02*
X74600000Y-42600000D01*
X89700000Y-42800000D02*
X89700000Y-40600000D01*
X89700000Y-40600000D02*
X90600000Y-39700000D01*
X90600000Y-39700000D02*
X90600000Y-33100000D01*
X92150000Y-31550000D02*
X100850000Y-31550000D01*
X90600000Y-33100000D02*
X92150000Y-31550000D01*
D30*
X100850000Y-31550000D02*
X101300000Y-31100000D01*
X99900000Y-32500000D02*
X100850000Y-31550000D01*
X98100000Y-88200000D02*
X97640000Y-88660000D01*
X98100000Y-82800000D02*
X98100000Y-88200000D01*
X97640000Y-88660000D02*
X113860000Y-88660000D01*
X91540000Y-88660000D02*
X97640000Y-88660000D01*
X91540000Y-60040000D02*
X91540000Y-88660000D01*
X100500000Y-67500000D02*
X99400000Y-67500000D01*
D31*
%TO.N,+5V*%
X80200000Y-49425000D02*
X81225000Y-49425000D01*
X81500000Y-49700000D02*
X81500000Y-51500000D01*
X81225000Y-49425000D02*
X81500000Y-49700000D01*
X70675000Y-42825000D02*
X70800000Y-42700000D01*
X69550000Y-42825000D02*
X70675000Y-42825000D01*
X70800000Y-41300000D02*
X72000000Y-40100000D01*
X70800000Y-42700000D02*
X70800000Y-41300000D01*
D30*
X88600000Y-86500000D02*
X89000000Y-86900000D01*
X87250000Y-84750000D02*
X88600000Y-83400000D01*
X80000000Y-84750000D02*
X87250000Y-84750000D01*
X88600000Y-83400000D02*
X88600000Y-86500000D01*
X88600000Y-80360000D02*
X88600000Y-83400000D01*
X102100000Y-51000000D02*
X102100000Y-47000000D01*
X101300000Y-46200000D02*
X101000000Y-46200000D01*
X102100000Y-47000000D02*
X101300000Y-46200000D01*
X99100000Y-48171547D02*
X99100018Y-48171565D01*
X99100000Y-48100000D02*
X99100000Y-48171547D01*
X99100018Y-48171565D02*
X99100018Y-49300018D01*
X100800000Y-51000000D02*
X102100000Y-51000000D01*
X99100018Y-49300018D02*
X100800000Y-51000000D01*
X101800000Y-51000000D02*
X102100000Y-51000000D01*
X98700000Y-54100000D02*
X101800000Y-51000000D01*
X98700000Y-56100000D02*
X98700000Y-54100000D01*
X97900000Y-56900000D02*
X98700000Y-56100000D01*
X84600000Y-79000000D02*
X84600000Y-58100000D01*
X84600000Y-58100000D02*
X85800000Y-56900000D01*
X85960000Y-80360000D02*
X84600000Y-79000000D01*
X88600000Y-80360000D02*
X85960000Y-80360000D01*
D32*
X117600000Y-50200000D02*
X115505000Y-50200000D01*
X109300000Y-53550000D02*
X106150000Y-53550000D01*
X103600000Y-51000000D02*
X102100000Y-51000000D01*
X106150000Y-53550000D02*
X103600000Y-51000000D01*
D31*
X103000000Y-67500000D02*
X103000000Y-67400000D01*
X103000000Y-67400000D02*
X102400000Y-66800000D01*
X102400000Y-66800000D02*
X102400000Y-64900000D01*
X102800000Y-64500000D02*
X103900000Y-64500000D01*
X102400000Y-64900000D02*
X102800000Y-64500000D01*
D32*
X81500000Y-51500000D02*
X81500000Y-52600000D01*
X89550000Y-55000000D02*
X89550000Y-56850000D01*
X89550000Y-56850000D02*
X89600000Y-56900000D01*
D30*
X89600000Y-56900000D02*
X97900000Y-56900000D01*
X85800000Y-56900000D02*
X89600000Y-56900000D01*
D32*
X75100000Y-40100000D02*
X75200000Y-40100000D01*
X72000000Y-40100000D02*
X75100000Y-40100000D01*
X81600000Y-52900000D02*
X81600000Y-52700000D01*
X81000000Y-53500000D02*
X81600000Y-52900000D01*
X81600000Y-52700000D02*
X85800000Y-56900000D01*
X81500000Y-52600000D02*
X81600000Y-52700000D01*
X103000000Y-68300000D02*
X101900000Y-69400000D01*
X103000000Y-67500000D02*
X103000000Y-68300000D01*
X115505000Y-50200000D02*
X115505000Y-48705000D01*
X115505000Y-48705000D02*
X113000000Y-46200000D01*
X113000000Y-46200000D02*
X108900000Y-46200000D01*
X104100000Y-51000000D02*
X102100000Y-51000000D01*
X108900000Y-46200000D02*
X104100000Y-51000000D01*
X92850000Y-35050000D02*
X92800000Y-35000000D01*
X94800000Y-35050000D02*
X92850000Y-35050000D01*
X78400000Y-34900000D02*
X76500000Y-36800000D01*
X76500000Y-38800000D02*
X75200000Y-40100000D01*
X76500000Y-36800000D02*
X76500000Y-38800000D01*
X89400000Y-34900000D02*
X78400000Y-34900000D01*
D31*
%TO.N,/5V_in*%
X59800000Y-40300000D02*
X60100000Y-40300000D01*
X62350000Y-42550000D02*
X62350000Y-42825000D01*
X60100000Y-40300000D02*
X62350000Y-42550000D01*
X54560000Y-40300000D02*
X54500000Y-40240000D01*
X59800000Y-40300000D02*
X54560000Y-40300000D01*
%TO.N,Net-(C9-Pad1)*%
X76750000Y-51500000D02*
X76750000Y-50950000D01*
X76750000Y-50950000D02*
X78400000Y-49300000D01*
X79325000Y-48775000D02*
X80200000Y-48775000D01*
X78800000Y-49300000D02*
X79325000Y-48775000D01*
X78400000Y-49300000D02*
X78800000Y-49300000D01*
D32*
%TO.N,Net-(C13-Pad1)*%
X109350000Y-74400000D02*
X107350000Y-74400000D01*
X108100000Y-73150000D02*
X109350000Y-74400000D01*
X108100000Y-71400000D02*
X108100000Y-73150000D01*
D31*
X104124999Y-65024999D02*
X105024999Y-65024999D01*
X104100000Y-65000000D02*
X104124999Y-65024999D01*
X103900000Y-65000000D02*
X104100000Y-65000000D01*
X108100000Y-68100000D02*
X108100000Y-71400000D01*
X105024999Y-65024999D02*
X108100000Y-68100000D01*
D32*
%TO.N,Net-(C14-Pad1)*%
X102850000Y-74400000D02*
X104850000Y-74400000D01*
X103900000Y-73450000D02*
X104850000Y-74400000D01*
X103900000Y-71500000D02*
X103900000Y-73450000D01*
D31*
X103900000Y-65500000D02*
X104400000Y-65500000D01*
X104400000Y-65500000D02*
X104900000Y-66000000D01*
X104900000Y-70500000D02*
X103900000Y-71500000D01*
X104900000Y-66000000D02*
X104900000Y-70500000D01*
D32*
%TO.N,Net-(C15-Pad1)*%
X100650000Y-74500000D02*
X98400000Y-74500000D01*
X99400000Y-73250000D02*
X100650000Y-74500000D01*
X99400000Y-71500000D02*
X99400000Y-73250000D01*
D31*
X99500000Y-65500000D02*
X98700000Y-65500000D01*
X98700000Y-65500000D02*
X98200000Y-66000000D01*
X98200000Y-70300000D02*
X99400000Y-71500000D01*
X98200000Y-66000000D02*
X98200000Y-70300000D01*
D32*
%TO.N,Net-(C16-Pad1)*%
X96000000Y-74500000D02*
X94000000Y-74500000D01*
X95000000Y-73500000D02*
X96000000Y-74500000D01*
X95000000Y-71500000D02*
X95000000Y-73500000D01*
D31*
X99500000Y-65000000D02*
X96900000Y-65000000D01*
X95000000Y-66900000D02*
X95000000Y-71500000D01*
X96900000Y-65000000D02*
X95000000Y-66900000D01*
D32*
%TO.N,Net-(D1-Pad1)*%
X93500000Y-53150000D02*
X91650000Y-55000000D01*
X93500000Y-52100000D02*
X93500000Y-53150000D01*
%TO.N,Net-(D2-Pad1)*%
X94800000Y-38800000D02*
X94900000Y-38900000D01*
X94800000Y-37150000D02*
X94800000Y-38800000D01*
D31*
%TO.N,/CLK_in*%
X62350000Y-44125000D02*
X58125000Y-44125000D01*
X56780000Y-42780000D02*
X54500000Y-42780000D01*
X58125000Y-44125000D02*
X56780000Y-42780000D01*
%TO.N,/MOSI_in*%
X54500000Y-45320000D02*
X57080000Y-45320000D01*
X57625000Y-44775000D02*
X62350000Y-44775000D01*
X57080000Y-45320000D02*
X57625000Y-44775000D01*
%TO.N,/MISO_in*%
X54500000Y-47860000D02*
X56540000Y-47860000D01*
X58975000Y-45425000D02*
X62350000Y-45425000D01*
X56540000Y-47860000D02*
X58975000Y-45425000D01*
%TO.N,/CS_ADC\u005C_in*%
X54500000Y-50400000D02*
X57500000Y-50400000D01*
X58449990Y-49450010D02*
X58449990Y-46950010D01*
X57500000Y-50400000D02*
X58449990Y-49450010D01*
X59325000Y-46075000D02*
X62350000Y-46075000D01*
X58449990Y-46950010D02*
X59325000Y-46075000D01*
%TO.N,/CS_DAC\u005C_in*%
X62350000Y-46725000D02*
X59875000Y-46725000D01*
X59875000Y-46725000D02*
X58900000Y-47700000D01*
X58900000Y-47700000D02*
X58900000Y-52000000D01*
X57960000Y-52940000D02*
X54500000Y-52940000D01*
X58900000Y-52000000D02*
X57960000Y-52940000D01*
%TO.N,/VIB_in*%
X54500000Y-55480000D02*
X58220000Y-55480000D01*
X58220000Y-55480000D02*
X59600000Y-54100000D01*
X59600000Y-54100000D02*
X59600000Y-48100000D01*
X60325000Y-47375000D02*
X62350000Y-47375000D01*
X59600000Y-48100000D02*
X60325000Y-47375000D01*
%TO.N,/VOC_in*%
X62350000Y-48025000D02*
X60675000Y-48025000D01*
X60675000Y-48025000D02*
X60200000Y-48500000D01*
X60200000Y-48500000D02*
X60200000Y-55700000D01*
X57880000Y-58020000D02*
X54500000Y-58020000D01*
X60200000Y-55700000D02*
X57880000Y-58020000D01*
D32*
%TO.N,Net-(J1-Pad2)*%
X61264998Y-56600000D02*
X63100000Y-56600000D01*
X57304998Y-60560000D02*
X61264998Y-56600000D01*
X54500000Y-60560000D02*
X57304998Y-60560000D01*
D30*
%TO.N,/C+*%
X114235000Y-44800000D02*
X115505000Y-44800000D01*
D32*
X94000000Y-79300000D02*
X95000000Y-80300000D01*
X94000000Y-77000000D02*
X94000000Y-79300000D01*
D30*
X116100000Y-44800000D02*
X116800000Y-44100000D01*
X115505000Y-44800000D02*
X116100000Y-44800000D01*
X116000000Y-44800000D02*
X116700000Y-45500000D01*
X115505000Y-44800000D02*
X116000000Y-44800000D01*
D32*
%TO.N,/Aux2*%
X108500000Y-79900000D02*
X108500000Y-79300000D01*
X109350000Y-78450000D02*
X109350000Y-76900000D01*
X108500000Y-79300000D02*
X109350000Y-78450000D01*
X114100000Y-71320000D02*
X112080000Y-71320000D01*
X112080000Y-71320000D02*
X110900000Y-72500000D01*
X110900000Y-72500000D02*
X110900000Y-76400000D01*
X110400000Y-76900000D02*
X109350000Y-76900000D01*
X110900000Y-76400000D02*
X110400000Y-76900000D01*
%TO.N,/Aux1*%
X102850000Y-79050000D02*
X103700000Y-79900000D01*
X102850000Y-76900000D02*
X102850000Y-79050000D01*
D31*
%TO.N,Net-(R1-Pad1)*%
X80200000Y-48125000D02*
X79025000Y-48125000D01*
X79025000Y-48125000D02*
X77800000Y-46900000D01*
X77800000Y-46900000D02*
X77800000Y-45800000D01*
X78100000Y-45500000D02*
X79050000Y-45500000D01*
X77800000Y-45800000D02*
X78100000Y-45500000D01*
X77500000Y-45500000D02*
X77800000Y-45800000D01*
X76750000Y-45500000D02*
X77500000Y-45500000D01*
X77900000Y-42500000D02*
X77900000Y-43400000D01*
X79050000Y-44550000D02*
X79050000Y-45500000D01*
X77900000Y-43400000D02*
X79050000Y-44550000D01*
D32*
%TO.N,Net-(R2-Pad2)*%
X95200000Y-46200000D02*
X94300000Y-46200000D01*
X92300000Y-48200000D02*
X90600000Y-48200000D01*
X94300000Y-46200000D02*
X92300000Y-48200000D01*
D31*
X81550000Y-45500000D02*
X81550000Y-46850000D01*
X80925000Y-47475000D02*
X80200000Y-47475000D01*
X81550000Y-46850000D02*
X80925000Y-47475000D01*
X80200000Y-47475000D02*
X83475000Y-47475000D01*
X84200000Y-48200000D02*
X90600000Y-48200000D01*
X83475000Y-47475000D02*
X84200000Y-48200000D01*
D32*
%TO.N,Net-(R3-Pad2)*%
X91800000Y-45200000D02*
X91700000Y-45300000D01*
X95200000Y-45200000D02*
X91800000Y-45200000D01*
X89700000Y-45300000D02*
X91700000Y-45300000D01*
X86400000Y-43500000D02*
X86400000Y-44000000D01*
X87700000Y-45300000D02*
X89700000Y-45300000D01*
X86400000Y-44000000D02*
X87700000Y-45300000D01*
%TO.N,Net-(R4-Pad2)*%
X91700000Y-42800000D02*
X91700000Y-42414229D01*
D30*
X101000000Y-44200000D02*
X103700000Y-44200000D01*
X103700000Y-44200000D02*
X104700000Y-43200000D01*
D32*
X102700000Y-45200000D02*
X103700000Y-44200000D01*
X101000000Y-45200000D02*
X102700000Y-45200000D01*
D30*
X106900000Y-44800000D02*
X104700000Y-42600000D01*
X111695000Y-44800000D02*
X106900000Y-44800000D01*
X104700000Y-42600000D02*
X104700000Y-41600000D01*
X104700000Y-43200000D02*
X104700000Y-42600000D01*
X111695000Y-44800000D02*
X112965000Y-44800000D01*
D32*
X104700000Y-33300000D02*
X103900000Y-32500000D01*
X104700000Y-41600000D02*
X104700000Y-33300000D01*
X91700000Y-37300000D02*
X91700000Y-33700000D01*
X91700000Y-42800000D02*
X91700000Y-37300000D01*
X91700000Y-33700000D02*
X92900000Y-32500000D01*
X92900000Y-32500000D02*
X98000000Y-32500000D01*
%TO.N,Net-(R5-Pad2)*%
X95600000Y-49600000D02*
X95700000Y-49700000D01*
X93500000Y-49600000D02*
X95600000Y-49600000D01*
X97100000Y-48100000D02*
X97100000Y-49000000D01*
X96400000Y-49700000D02*
X95700000Y-49700000D01*
X97100000Y-49000000D02*
X96400000Y-49700000D01*
X90600000Y-52100000D02*
X90600000Y-51800000D01*
X90600000Y-51800000D02*
X92500000Y-49900000D01*
X93200000Y-49900000D02*
X93500000Y-49600000D01*
X92500000Y-49900000D02*
X93200000Y-49900000D01*
%TO.N,Net-(R6-Pad1)*%
X97400000Y-39800000D02*
X97400000Y-40100000D01*
X97100000Y-40400000D02*
X97100000Y-42300000D01*
X97400000Y-40100000D02*
X97100000Y-40400000D01*
%TO.N,Net-(R7-Pad2)*%
X98100008Y-48585782D02*
X98100008Y-51299992D01*
X98100000Y-48585774D02*
X98100008Y-48585782D01*
X98100000Y-48100000D02*
X98100000Y-48585774D01*
X97200000Y-52200000D02*
X95700000Y-52200000D01*
X98100008Y-51299992D02*
X97200000Y-52200000D01*
X95700000Y-54400000D02*
X94800000Y-55300000D01*
X95700000Y-52200000D02*
X95700000Y-54400000D01*
%TO.N,Net-(R8-Pad2)*%
X96100000Y-40200000D02*
X94900000Y-41400000D01*
X96100000Y-38700000D02*
X96100000Y-40200000D01*
X97800000Y-37000000D02*
X96100000Y-38700000D01*
X95200000Y-44200000D02*
X94700000Y-44200000D01*
X94700000Y-44200000D02*
X94100000Y-43600000D01*
X94100000Y-42200000D02*
X94900000Y-41400000D01*
X94100000Y-43600000D02*
X94100000Y-42200000D01*
%TO.N,/V_I*%
X100650000Y-79050000D02*
X99600000Y-80100000D01*
X100650000Y-77000000D02*
X100650000Y-79050000D01*
X114235000Y-51835000D02*
X114500000Y-52100000D01*
X114235000Y-50200000D02*
X114235000Y-51835000D01*
%TO.N,Net-(R13-Pad2)*%
X112965000Y-53335000D02*
X112600000Y-53700000D01*
X112965000Y-50200000D02*
X112965000Y-53335000D01*
X109600000Y-47700000D02*
X112100000Y-47700000D01*
X112965000Y-48565000D02*
X112965000Y-50200000D01*
X112100000Y-47700000D02*
X112965000Y-48565000D01*
D31*
%TO.N,Net-(TP2-Pad1)*%
X67872002Y-47375000D02*
X67047002Y-48200000D01*
X69550000Y-47375000D02*
X67872002Y-47375000D01*
X67047002Y-48200000D02*
X65200000Y-48200000D01*
X63200000Y-50200000D02*
X63200000Y-52800000D01*
X65200000Y-48200000D02*
X63200000Y-50200000D01*
%TO.N,Net-(TP3-Pad1)*%
X67200000Y-52800000D02*
X67200000Y-49100000D01*
X68275000Y-48025000D02*
X69550000Y-48025000D01*
X67200000Y-49100000D02*
X68275000Y-48025000D01*
%TO.N,/CLK*%
X69550000Y-44125000D02*
X71825000Y-44125000D01*
X71825000Y-44125000D02*
X72700000Y-45000000D01*
X72700000Y-45000000D02*
X72700000Y-46900000D01*
X73925000Y-48125000D02*
X75800000Y-48125000D01*
X72700000Y-46900000D02*
X73925000Y-48125000D01*
X67875000Y-43975000D02*
X67875000Y-44125000D01*
X67200000Y-43300000D02*
X67875000Y-43975000D01*
X67875000Y-44125000D02*
X69550000Y-44125000D01*
X94700000Y-63500000D02*
X94100000Y-64100000D01*
X99500000Y-63500000D02*
X94700000Y-63500000D01*
%TO.N,/MOSI*%
X71275000Y-44775000D02*
X69550000Y-44775000D01*
X72200000Y-45700000D02*
X71275000Y-44775000D01*
X72200000Y-47107120D02*
X72200000Y-45700000D01*
X75800000Y-48775000D02*
X73867880Y-48775000D01*
X73146440Y-48253560D02*
X73146440Y-48053560D01*
X73146440Y-48053560D02*
X72200000Y-47107120D01*
X72500000Y-48900000D02*
X73146440Y-48253560D01*
X73867880Y-48775000D02*
X73146440Y-48053560D01*
X103900000Y-63500000D02*
X102200000Y-63500000D01*
X102200000Y-63500000D02*
X100600000Y-61900000D01*
X100600000Y-61900000D02*
X93600000Y-61900000D01*
%TO.N,/MISO*%
X103900000Y-64000000D02*
X101800000Y-64000000D01*
X101800000Y-64000000D02*
X100400000Y-62600000D01*
X94100000Y-62600000D02*
X93800000Y-62900000D01*
X100400000Y-62600000D02*
X94100000Y-62600000D01*
X71300000Y-49400000D02*
X71300000Y-46139998D01*
X70585002Y-45425000D02*
X71300000Y-46139998D01*
X69550000Y-45425000D02*
X70585002Y-45425000D01*
%TO.N,/CS_ADC\u005C*%
X64974999Y-44051999D02*
X64974999Y-45574999D01*
X65000000Y-44026998D02*
X64974999Y-44051999D01*
X65000000Y-43200000D02*
X65000000Y-44026998D01*
X68425000Y-46075000D02*
X69550000Y-46075000D01*
X68324999Y-45974999D02*
X68425000Y-46075000D01*
X65374999Y-45974999D02*
X68324999Y-45974999D01*
X64974999Y-45574999D02*
X65374999Y-45974999D01*
X99500000Y-64000000D02*
X95900000Y-64000000D01*
X95900000Y-64000000D02*
X95000000Y-64900000D01*
%TO.N,/CS_DAC\u005C*%
X67425000Y-46725000D02*
X67400000Y-46700000D01*
X69550000Y-46725000D02*
X67425000Y-46725000D01*
X74200000Y-47100000D02*
X74600000Y-47500000D01*
X75775000Y-47500000D02*
X75800000Y-47475000D01*
X74600000Y-47500000D02*
X75775000Y-47500000D01*
%TD*%
D33*
%TO.N,GND*%
X120873000Y-95873000D02*
X76127000Y-95873000D01*
X76127000Y-93437196D01*
X111142409Y-93437196D01*
X111728124Y-94119416D01*
X112711704Y-94667045D01*
X113783223Y-95012265D01*
X114901501Y-95141808D01*
X116023565Y-95050697D01*
X117106294Y-94742433D01*
X118108079Y-94228863D01*
X118271876Y-94119416D01*
X118857591Y-93437196D01*
X115000000Y-89579605D01*
X111142409Y-93437196D01*
X76127000Y-93437196D01*
X76127000Y-89301501D01*
X109258192Y-89301501D01*
X109349303Y-90423565D01*
X109657567Y-91506294D01*
X110171137Y-92508079D01*
X110280584Y-92671876D01*
X110962804Y-93257591D01*
X114820395Y-89400000D01*
X115179605Y-89400000D01*
X119037196Y-93257591D01*
X119719416Y-92671876D01*
X120267045Y-91688296D01*
X120612265Y-90616777D01*
X120741808Y-89498499D01*
X120650697Y-88376435D01*
X120342433Y-87293706D01*
X119828863Y-86291921D01*
X119719416Y-86128124D01*
X119037196Y-85542409D01*
X115179605Y-89400000D01*
X114820395Y-89400000D01*
X110962804Y-85542409D01*
X110280584Y-86128124D01*
X109732955Y-87111704D01*
X109387735Y-88183223D01*
X109258192Y-89301501D01*
X76127000Y-89301501D01*
X76127000Y-88000000D01*
X78736928Y-88000000D01*
X78749188Y-88124482D01*
X78785498Y-88244180D01*
X78844463Y-88354494D01*
X78923815Y-88451185D01*
X79020506Y-88530537D01*
X79130820Y-88589502D01*
X79250518Y-88625812D01*
X79375000Y-88638072D01*
X79714250Y-88635000D01*
X79873000Y-88476250D01*
X79873000Y-87377000D01*
X78898750Y-87377000D01*
X78740000Y-87535750D01*
X78736928Y-88000000D01*
X76127000Y-88000000D01*
X76127000Y-56000000D01*
X76124560Y-55975224D01*
X76117333Y-55951399D01*
X76105597Y-55929443D01*
X76089803Y-55910197D01*
X76070557Y-55894403D01*
X76048601Y-55882667D01*
X76024776Y-55875440D01*
X76000000Y-55873000D01*
X66127000Y-55873000D01*
X66127000Y-54245927D01*
X66225518Y-54275812D01*
X66350000Y-54288072D01*
X68050000Y-54288072D01*
X68174482Y-54275812D01*
X68294180Y-54239502D01*
X68404494Y-54180537D01*
X68501185Y-54101185D01*
X68580537Y-54004494D01*
X68639502Y-53894180D01*
X68675812Y-53774482D01*
X68688072Y-53650000D01*
X68688072Y-52125000D01*
X72861928Y-52125000D01*
X72874188Y-52249482D01*
X72910498Y-52369180D01*
X72969463Y-52479494D01*
X73048815Y-52576185D01*
X73145506Y-52655537D01*
X73255820Y-52714502D01*
X73375518Y-52750812D01*
X73500000Y-52763072D01*
X73964250Y-52760000D01*
X74123000Y-52601250D01*
X74123000Y-51627000D01*
X73023750Y-51627000D01*
X72865000Y-51785750D01*
X72861928Y-52125000D01*
X68688072Y-52125000D01*
X68688072Y-51950000D01*
X68675812Y-51825518D01*
X68639502Y-51705820D01*
X68580537Y-51595506D01*
X68501185Y-51498815D01*
X68404494Y-51419463D01*
X68294180Y-51360498D01*
X68174482Y-51324188D01*
X68050000Y-51311928D01*
X67960000Y-51311928D01*
X67960000Y-50875000D01*
X72861928Y-50875000D01*
X72865000Y-51214250D01*
X73023750Y-51373000D01*
X74123000Y-51373000D01*
X74123000Y-50398750D01*
X73964250Y-50240000D01*
X73500000Y-50236928D01*
X73375518Y-50249188D01*
X73255820Y-50285498D01*
X73145506Y-50344463D01*
X73048815Y-50423815D01*
X72969463Y-50520506D01*
X72910498Y-50630820D01*
X72874188Y-50750518D01*
X72861928Y-50875000D01*
X67960000Y-50875000D01*
X67960000Y-49414801D01*
X68136445Y-49238356D01*
X68149228Y-49261524D01*
X68229861Y-49357151D01*
X68327600Y-49435209D01*
X68438689Y-49492700D01*
X68558860Y-49527413D01*
X68683493Y-49538015D01*
X69264250Y-49535000D01*
X69423000Y-49376250D01*
X69423000Y-48888072D01*
X69677000Y-48888072D01*
X69677000Y-49376250D01*
X69835750Y-49535000D01*
X70272027Y-49537265D01*
X70304774Y-49701898D01*
X70382795Y-49890256D01*
X70496063Y-50059774D01*
X70640226Y-50203937D01*
X70809744Y-50317205D01*
X70998102Y-50395226D01*
X71198061Y-50435000D01*
X71401939Y-50435000D01*
X71601898Y-50395226D01*
X71790256Y-50317205D01*
X71959774Y-50203937D01*
X72103937Y-50059774D01*
X72212033Y-49897997D01*
X72398061Y-49935000D01*
X72601939Y-49935000D01*
X72801898Y-49895226D01*
X72990256Y-49817205D01*
X73159774Y-49703937D01*
X73303937Y-49559774D01*
X73417205Y-49390256D01*
X73417807Y-49388803D01*
X73443604Y-49409974D01*
X73575633Y-49480546D01*
X73718894Y-49524003D01*
X73830547Y-49535000D01*
X73830556Y-49535000D01*
X73867879Y-49538676D01*
X73905202Y-49535000D01*
X74440000Y-49535000D01*
X74440000Y-49552002D01*
X74569748Y-49552002D01*
X74440000Y-49681750D01*
X74451156Y-49783996D01*
X74489285Y-49903127D01*
X74549922Y-50012531D01*
X74630737Y-50108003D01*
X74728625Y-50185874D01*
X74829928Y-50238053D01*
X74535750Y-50240000D01*
X74377000Y-50398750D01*
X74377000Y-51373000D01*
X74397000Y-51373000D01*
X74397000Y-51627000D01*
X74377000Y-51627000D01*
X74377000Y-52601250D01*
X74535750Y-52760000D01*
X75000000Y-52763072D01*
X75124482Y-52750812D01*
X75244180Y-52714502D01*
X75354494Y-52655537D01*
X75451185Y-52576185D01*
X75500000Y-52516704D01*
X75548815Y-52576185D01*
X75645506Y-52655537D01*
X75755820Y-52714502D01*
X75875518Y-52750812D01*
X76000000Y-52763072D01*
X77500000Y-52763072D01*
X77624482Y-52750812D01*
X77744180Y-52714502D01*
X77854494Y-52655537D01*
X77875000Y-52638708D01*
X77895506Y-52655537D01*
X78005820Y-52714502D01*
X78125518Y-52750812D01*
X78250000Y-52763072D01*
X78714250Y-52760000D01*
X78873000Y-52601250D01*
X78873000Y-51627000D01*
X78853000Y-51627000D01*
X78853000Y-51373000D01*
X78873000Y-51373000D01*
X78873000Y-50398750D01*
X78714250Y-50240000D01*
X78535982Y-50238820D01*
X78714803Y-50060000D01*
X78762678Y-50060000D01*
X78800000Y-50063676D01*
X78837322Y-50060000D01*
X78837333Y-50060000D01*
X78948986Y-50049003D01*
X78974611Y-50041230D01*
X79023815Y-50101185D01*
X79120506Y-50180537D01*
X79230820Y-50239502D01*
X79273347Y-50252403D01*
X79127000Y-50398750D01*
X79127000Y-51373000D01*
X79147000Y-51373000D01*
X79147000Y-51627000D01*
X79127000Y-51627000D01*
X79127000Y-52601250D01*
X79285750Y-52760000D01*
X79750000Y-52763072D01*
X79874482Y-52750812D01*
X79994180Y-52714502D01*
X80104494Y-52655537D01*
X80201185Y-52576185D01*
X80250000Y-52516704D01*
X80298815Y-52576185D01*
X80395506Y-52655537D01*
X80398490Y-52657132D01*
X80340226Y-52696063D01*
X80196063Y-52840226D01*
X80082795Y-53009744D01*
X80004774Y-53198102D01*
X79965000Y-53398061D01*
X79965000Y-53601939D01*
X80004774Y-53801898D01*
X80082795Y-53990256D01*
X80196063Y-54159774D01*
X80340226Y-54303937D01*
X80509744Y-54417205D01*
X80698102Y-54495226D01*
X80898061Y-54535000D01*
X81101939Y-54535000D01*
X81301898Y-54495226D01*
X81490256Y-54417205D01*
X81659774Y-54303937D01*
X81803937Y-54159774D01*
X81805643Y-54157221D01*
X84371645Y-56723224D01*
X83836860Y-57258009D01*
X83793552Y-57293551D01*
X83651717Y-57466377D01*
X83595384Y-57571770D01*
X83546324Y-57663554D01*
X83481423Y-57877502D01*
X83459509Y-58100000D01*
X83465001Y-58155762D01*
X83465000Y-78944249D01*
X83459509Y-79000000D01*
X83465000Y-79055751D01*
X83481423Y-79222498D01*
X83546324Y-79436446D01*
X83651716Y-79633623D01*
X83793551Y-79806449D01*
X83836865Y-79841996D01*
X85118008Y-81123140D01*
X85153551Y-81166449D01*
X85326377Y-81308284D01*
X85523553Y-81413676D01*
X85737501Y-81478577D01*
X85904248Y-81495000D01*
X85904257Y-81495000D01*
X85959999Y-81500490D01*
X86015741Y-81495000D01*
X86790640Y-81495000D01*
X86941637Y-81720983D01*
X87239017Y-82018363D01*
X87465001Y-82169360D01*
X87465001Y-82929867D01*
X86779869Y-83615000D01*
X81130501Y-83615000D01*
X81076185Y-83548815D01*
X80979494Y-83469463D01*
X80869180Y-83410498D01*
X80749482Y-83374188D01*
X80625000Y-83361928D01*
X79375000Y-83361928D01*
X79250518Y-83374188D01*
X79130820Y-83410498D01*
X79020506Y-83469463D01*
X78923815Y-83548815D01*
X78844463Y-83645506D01*
X78785498Y-83755820D01*
X78749188Y-83875518D01*
X78736928Y-84000000D01*
X78736928Y-85500000D01*
X78749188Y-85624482D01*
X78785498Y-85744180D01*
X78844463Y-85854494D01*
X78923815Y-85951185D01*
X78983296Y-86000000D01*
X78923815Y-86048815D01*
X78844463Y-86145506D01*
X78785498Y-86255820D01*
X78749188Y-86375518D01*
X78736928Y-86500000D01*
X78740000Y-86964250D01*
X78898750Y-87123000D01*
X79873000Y-87123000D01*
X79873000Y-87103000D01*
X80127000Y-87103000D01*
X80127000Y-87123000D01*
X80147000Y-87123000D01*
X80147000Y-87377000D01*
X80127000Y-87377000D01*
X80127000Y-88476250D01*
X80285750Y-88635000D01*
X80625000Y-88638072D01*
X80749482Y-88625812D01*
X80869180Y-88589502D01*
X80979494Y-88530537D01*
X81076185Y-88451185D01*
X81155537Y-88354494D01*
X81214502Y-88244180D01*
X81250812Y-88124482D01*
X81263072Y-88000000D01*
X81262730Y-87948356D01*
X81319463Y-88054494D01*
X81398815Y-88151185D01*
X81495506Y-88230537D01*
X81605820Y-88289502D01*
X81725518Y-88325812D01*
X81850000Y-88338072D01*
X83314250Y-88335000D01*
X83473000Y-88176250D01*
X83473000Y-87027000D01*
X83727000Y-87027000D01*
X83727000Y-88176250D01*
X83885750Y-88335000D01*
X85350000Y-88338072D01*
X85474482Y-88325812D01*
X85594180Y-88289502D01*
X85704494Y-88230537D01*
X85801185Y-88151185D01*
X85880537Y-88054494D01*
X85939502Y-87944180D01*
X85975812Y-87824482D01*
X85988072Y-87700000D01*
X85985000Y-87185750D01*
X85826250Y-87027000D01*
X83727000Y-87027000D01*
X83473000Y-87027000D01*
X83453000Y-87027000D01*
X83453000Y-86773000D01*
X83473000Y-86773000D01*
X83473000Y-86753000D01*
X83727000Y-86753000D01*
X83727000Y-86773000D01*
X85826250Y-86773000D01*
X85985000Y-86614250D01*
X85988072Y-86100000D01*
X85975812Y-85975518D01*
X85948354Y-85885000D01*
X86651646Y-85885000D01*
X86624188Y-85975518D01*
X86611928Y-86100000D01*
X86611928Y-87700000D01*
X86624188Y-87824482D01*
X86660498Y-87944180D01*
X86719463Y-88054494D01*
X86798815Y-88151185D01*
X86895506Y-88230537D01*
X87005820Y-88289502D01*
X87125518Y-88325812D01*
X87250000Y-88338072D01*
X90750000Y-88338072D01*
X90874482Y-88325812D01*
X90994180Y-88289502D01*
X91104494Y-88230537D01*
X91201185Y-88151185D01*
X91280537Y-88054494D01*
X91339502Y-87944180D01*
X91375812Y-87824482D01*
X91388072Y-87700000D01*
X91388072Y-86100000D01*
X91375812Y-85975518D01*
X91339502Y-85855820D01*
X91280537Y-85745506D01*
X91201185Y-85648815D01*
X91104494Y-85569463D01*
X90994180Y-85510498D01*
X90874482Y-85474188D01*
X90750000Y-85461928D01*
X89735000Y-85461928D01*
X89735000Y-85362804D01*
X111142409Y-85362804D01*
X115000000Y-89220395D01*
X118857591Y-85362804D01*
X118271876Y-84680584D01*
X117288296Y-84132955D01*
X116216777Y-83787735D01*
X115098499Y-83658192D01*
X113976435Y-83749303D01*
X112893706Y-84057567D01*
X111891921Y-84571137D01*
X111728124Y-84680584D01*
X111142409Y-85362804D01*
X89735000Y-85362804D01*
X89735000Y-83455743D01*
X89740490Y-83400001D01*
X89735000Y-83344259D01*
X89735000Y-82169360D01*
X89960983Y-82018363D01*
X90258363Y-81720983D01*
X90492012Y-81371302D01*
X90652953Y-80982756D01*
X90735000Y-80570279D01*
X90735000Y-80149721D01*
X90652953Y-79737244D01*
X90492012Y-79348698D01*
X90258363Y-78999017D01*
X89960983Y-78701637D01*
X89611302Y-78467988D01*
X89222756Y-78307047D01*
X88810279Y-78225000D01*
X88389721Y-78225000D01*
X87977244Y-78307047D01*
X87588698Y-78467988D01*
X87239017Y-78701637D01*
X86941637Y-78999017D01*
X86790640Y-79225000D01*
X86430132Y-79225000D01*
X85735000Y-78529869D01*
X85735000Y-69989721D01*
X86465000Y-69989721D01*
X86465000Y-70410279D01*
X86547047Y-70822756D01*
X86707988Y-71211302D01*
X86941637Y-71560983D01*
X87239017Y-71858363D01*
X87588698Y-72092012D01*
X87977244Y-72252953D01*
X88389721Y-72335000D01*
X88810279Y-72335000D01*
X89222756Y-72252953D01*
X89611302Y-72092012D01*
X89960983Y-71858363D01*
X90258363Y-71560983D01*
X90492012Y-71211302D01*
X90652953Y-70822756D01*
X90735000Y-70410279D01*
X90735000Y-69989721D01*
X90652953Y-69577244D01*
X90492012Y-69188698D01*
X90258363Y-68839017D01*
X89960983Y-68541637D01*
X89611302Y-68307988D01*
X89222756Y-68147047D01*
X88810279Y-68065000D01*
X88389721Y-68065000D01*
X87977244Y-68147047D01*
X87588698Y-68307988D01*
X87239017Y-68541637D01*
X86941637Y-68839017D01*
X86707988Y-69188698D01*
X86547047Y-69577244D01*
X86465000Y-69989721D01*
X85735000Y-69989721D01*
X85735000Y-61531653D01*
X87287952Y-61531653D01*
X87443962Y-61847214D01*
X87818745Y-62038020D01*
X88223551Y-62152044D01*
X88642824Y-62184902D01*
X89060451Y-62135334D01*
X89460383Y-62005243D01*
X89756038Y-61847214D01*
X89780338Y-61798061D01*
X92565000Y-61798061D01*
X92565000Y-62001939D01*
X92604774Y-62201898D01*
X92682795Y-62390256D01*
X92796063Y-62559774D01*
X92813449Y-62577160D01*
X92804774Y-62598102D01*
X92765000Y-62798061D01*
X92765000Y-63001939D01*
X92804774Y-63201898D01*
X92882795Y-63390256D01*
X92996063Y-63559774D01*
X93140226Y-63703937D01*
X93143009Y-63705796D01*
X93104774Y-63798102D01*
X93065000Y-63998061D01*
X93065000Y-64201939D01*
X93104774Y-64401898D01*
X93182795Y-64590256D01*
X93296063Y-64759774D01*
X93440226Y-64903937D01*
X93609744Y-65017205D01*
X93798102Y-65095226D01*
X93991196Y-65133634D01*
X94004774Y-65201898D01*
X94082795Y-65390256D01*
X94196063Y-65559774D01*
X94340226Y-65703937D01*
X94509744Y-65817205D01*
X94698102Y-65895226D01*
X94891503Y-65933696D01*
X94489003Y-66336196D01*
X94459999Y-66359999D01*
X94407627Y-66423815D01*
X94365026Y-66475724D01*
X94332569Y-66536446D01*
X94294454Y-66607754D01*
X94250997Y-66751015D01*
X94240000Y-66862668D01*
X94240000Y-66862678D01*
X94236324Y-66900000D01*
X94240000Y-66937323D01*
X94240001Y-70011928D01*
X94150000Y-70011928D01*
X94025518Y-70024188D01*
X93905820Y-70060498D01*
X93795506Y-70119463D01*
X93698815Y-70198815D01*
X93619463Y-70295506D01*
X93560498Y-70405820D01*
X93524188Y-70525518D01*
X93511928Y-70650000D01*
X93511928Y-72350000D01*
X93524188Y-72474482D01*
X93560498Y-72594180D01*
X93619463Y-72704494D01*
X93698815Y-72801185D01*
X93795506Y-72880537D01*
X93905820Y-72939502D01*
X94025518Y-72975812D01*
X94115001Y-72984625D01*
X94115001Y-73111928D01*
X93375000Y-73111928D01*
X93250518Y-73124188D01*
X93130820Y-73160498D01*
X93020506Y-73219463D01*
X92923815Y-73298815D01*
X92844463Y-73395506D01*
X92785498Y-73505820D01*
X92749188Y-73625518D01*
X92736928Y-73750000D01*
X92736928Y-75250000D01*
X92749188Y-75374482D01*
X92785498Y-75494180D01*
X92844463Y-75604494D01*
X92923815Y-75701185D01*
X92983296Y-75750000D01*
X92923815Y-75798815D01*
X92844463Y-75895506D01*
X92785498Y-76005820D01*
X92749188Y-76125518D01*
X92736928Y-76250000D01*
X92736928Y-77750000D01*
X92749188Y-77874482D01*
X92785498Y-77994180D01*
X92844463Y-78104494D01*
X92923815Y-78201185D01*
X93020506Y-78280537D01*
X93115001Y-78331046D01*
X93115001Y-79256521D01*
X93110719Y-79300000D01*
X93127805Y-79473490D01*
X93178412Y-79640313D01*
X93260590Y-79794059D01*
X93343468Y-79895046D01*
X93343471Y-79895049D01*
X93371184Y-79928817D01*
X93404951Y-79956529D01*
X93511928Y-80063506D01*
X93511928Y-81150000D01*
X93524188Y-81274482D01*
X93560498Y-81394180D01*
X93619463Y-81504494D01*
X93698815Y-81601185D01*
X93795506Y-81680537D01*
X93905820Y-81739502D01*
X94025518Y-81775812D01*
X94150000Y-81788072D01*
X95850000Y-81788072D01*
X95974482Y-81775812D01*
X96094180Y-81739502D01*
X96204494Y-81680537D01*
X96301185Y-81601185D01*
X96380537Y-81504494D01*
X96439502Y-81394180D01*
X96475812Y-81274482D01*
X96488072Y-81150000D01*
X96488072Y-79450000D01*
X96475812Y-79325518D01*
X96439502Y-79205820D01*
X96380537Y-79095506D01*
X96301185Y-78998815D01*
X96204494Y-78919463D01*
X96094180Y-78860498D01*
X95974482Y-78824188D01*
X95850000Y-78811928D01*
X94885000Y-78811928D01*
X94885000Y-78331046D01*
X94979494Y-78280537D01*
X95000000Y-78263708D01*
X95020506Y-78280537D01*
X95130820Y-78339502D01*
X95250518Y-78375812D01*
X95375000Y-78388072D01*
X95714250Y-78385000D01*
X95873000Y-78226250D01*
X95873000Y-77127000D01*
X96127000Y-77127000D01*
X96127000Y-78226250D01*
X96285750Y-78385000D01*
X96625000Y-78388072D01*
X96749482Y-78375812D01*
X96869180Y-78339502D01*
X96979494Y-78280537D01*
X97076185Y-78201185D01*
X97155537Y-78104494D01*
X97200000Y-78021311D01*
X97244463Y-78104494D01*
X97323815Y-78201185D01*
X97420506Y-78280537D01*
X97530820Y-78339502D01*
X97650518Y-78375812D01*
X97775000Y-78388072D01*
X98114250Y-78385000D01*
X98273000Y-78226250D01*
X98273000Y-77127000D01*
X97298750Y-77127000D01*
X97200000Y-77225750D01*
X97101250Y-77127000D01*
X96127000Y-77127000D01*
X95873000Y-77127000D01*
X95853000Y-77127000D01*
X95853000Y-76873000D01*
X95873000Y-76873000D01*
X95873000Y-76853000D01*
X96127000Y-76853000D01*
X96127000Y-76873000D01*
X97101250Y-76873000D01*
X97200000Y-76774250D01*
X97298750Y-76873000D01*
X98273000Y-76873000D01*
X98273000Y-76853000D01*
X98527000Y-76853000D01*
X98527000Y-76873000D01*
X98547000Y-76873000D01*
X98547000Y-77127000D01*
X98527000Y-77127000D01*
X98527000Y-78226250D01*
X98685750Y-78385000D01*
X99025000Y-78388072D01*
X99149482Y-78375812D01*
X99269180Y-78339502D01*
X99379494Y-78280537D01*
X99476185Y-78201185D01*
X99525000Y-78141704D01*
X99573815Y-78201185D01*
X99670506Y-78280537D01*
X99765001Y-78331046D01*
X99765001Y-78611928D01*
X98750000Y-78611928D01*
X98625518Y-78624188D01*
X98505820Y-78660498D01*
X98395506Y-78719463D01*
X98298815Y-78798815D01*
X98219463Y-78895506D01*
X98160498Y-79005820D01*
X98124188Y-79125518D01*
X98111928Y-79250000D01*
X98111928Y-80950000D01*
X98124188Y-81074482D01*
X98160498Y-81194180D01*
X98219463Y-81304494D01*
X98298815Y-81401185D01*
X98395506Y-81480537D01*
X98505820Y-81539502D01*
X98625518Y-81575812D01*
X98750000Y-81588072D01*
X100450000Y-81588072D01*
X100574482Y-81575812D01*
X100694180Y-81539502D01*
X100804494Y-81480537D01*
X100901185Y-81401185D01*
X100980537Y-81304494D01*
X101039502Y-81194180D01*
X101075812Y-81074482D01*
X101088072Y-80950000D01*
X101088072Y-79863507D01*
X101245049Y-79706530D01*
X101278817Y-79678817D01*
X101306533Y-79645046D01*
X101389410Y-79544060D01*
X101389411Y-79544059D01*
X101471589Y-79390313D01*
X101522195Y-79223490D01*
X101535000Y-79093477D01*
X101535000Y-79093467D01*
X101539281Y-79050001D01*
X101535000Y-79006535D01*
X101535000Y-78331046D01*
X101629494Y-78280537D01*
X101726185Y-78201185D01*
X101794393Y-78118073D01*
X101870506Y-78180537D01*
X101965001Y-78231046D01*
X101965001Y-79006521D01*
X101960719Y-79050000D01*
X101977805Y-79223490D01*
X102028412Y-79390313D01*
X102110590Y-79544059D01*
X102193468Y-79645046D01*
X102193469Y-79645047D01*
X102211928Y-79667539D01*
X102211928Y-80750000D01*
X102224188Y-80874482D01*
X102260498Y-80994180D01*
X102319463Y-81104494D01*
X102398815Y-81201185D01*
X102495506Y-81280537D01*
X102605820Y-81339502D01*
X102725518Y-81375812D01*
X102850000Y-81388072D01*
X104550000Y-81388072D01*
X104674482Y-81375812D01*
X104794180Y-81339502D01*
X104904494Y-81280537D01*
X105001185Y-81201185D01*
X105080537Y-81104494D01*
X105139502Y-80994180D01*
X105175812Y-80874482D01*
X105188072Y-80750000D01*
X105188072Y-79050000D01*
X105175812Y-78925518D01*
X105139502Y-78805820D01*
X105080537Y-78695506D01*
X105001185Y-78598815D01*
X104904494Y-78519463D01*
X104794180Y-78460498D01*
X104674482Y-78424188D01*
X104550000Y-78411928D01*
X103735000Y-78411928D01*
X103735000Y-78231046D01*
X103829494Y-78180537D01*
X103850000Y-78163708D01*
X103870506Y-78180537D01*
X103980820Y-78239502D01*
X104100518Y-78275812D01*
X104225000Y-78288072D01*
X104564250Y-78285000D01*
X104723000Y-78126250D01*
X104723000Y-77027000D01*
X104977000Y-77027000D01*
X104977000Y-78126250D01*
X105135750Y-78285000D01*
X105475000Y-78288072D01*
X105599482Y-78275812D01*
X105719180Y-78239502D01*
X105829494Y-78180537D01*
X105926185Y-78101185D01*
X106005537Y-78004494D01*
X106064502Y-77894180D01*
X106100000Y-77777159D01*
X106135498Y-77894180D01*
X106194463Y-78004494D01*
X106273815Y-78101185D01*
X106370506Y-78180537D01*
X106480820Y-78239502D01*
X106600518Y-78275812D01*
X106725000Y-78288072D01*
X107064250Y-78285000D01*
X107223000Y-78126250D01*
X107223000Y-77027000D01*
X106248750Y-77027000D01*
X106100000Y-77175750D01*
X105951250Y-77027000D01*
X104977000Y-77027000D01*
X104723000Y-77027000D01*
X104703000Y-77027000D01*
X104703000Y-76773000D01*
X104723000Y-76773000D01*
X104723000Y-76753000D01*
X104977000Y-76753000D01*
X104977000Y-76773000D01*
X105951250Y-76773000D01*
X106100000Y-76624250D01*
X106248750Y-76773000D01*
X107223000Y-76773000D01*
X107223000Y-76753000D01*
X107477000Y-76753000D01*
X107477000Y-76773000D01*
X107497000Y-76773000D01*
X107497000Y-77027000D01*
X107477000Y-77027000D01*
X107477000Y-78126250D01*
X107635750Y-78285000D01*
X107975000Y-78288072D01*
X108099482Y-78275812D01*
X108219180Y-78239502D01*
X108329494Y-78180537D01*
X108350000Y-78163708D01*
X108369066Y-78179355D01*
X108136494Y-78411928D01*
X107650000Y-78411928D01*
X107525518Y-78424188D01*
X107405820Y-78460498D01*
X107295506Y-78519463D01*
X107198815Y-78598815D01*
X107119463Y-78695506D01*
X107060498Y-78805820D01*
X107024188Y-78925518D01*
X107011928Y-79050000D01*
X107011928Y-80750000D01*
X107024188Y-80874482D01*
X107060498Y-80994180D01*
X107119463Y-81104494D01*
X107198815Y-81201185D01*
X107295506Y-81280537D01*
X107405820Y-81339502D01*
X107525518Y-81375812D01*
X107650000Y-81388072D01*
X109350000Y-81388072D01*
X109474482Y-81375812D01*
X109594180Y-81339502D01*
X109704494Y-81280537D01*
X109801185Y-81201185D01*
X109880537Y-81104494D01*
X109939502Y-80994180D01*
X109975812Y-80874482D01*
X109988072Y-80750000D01*
X109988072Y-79067540D01*
X110089411Y-78944059D01*
X110125516Y-78876511D01*
X110171589Y-78790314D01*
X110222195Y-78623490D01*
X110228390Y-78560589D01*
X110235000Y-78493477D01*
X110235000Y-78493469D01*
X110239281Y-78450000D01*
X110235000Y-78406531D01*
X110235000Y-78231046D01*
X110329494Y-78180537D01*
X110426185Y-78101185D01*
X110505537Y-78004494D01*
X110564502Y-77894180D01*
X110600812Y-77774482D01*
X110601886Y-77763581D01*
X110740313Y-77721589D01*
X110894059Y-77639411D01*
X111028817Y-77528817D01*
X111056534Y-77495044D01*
X111495044Y-77056534D01*
X111528817Y-77028817D01*
X111639411Y-76894059D01*
X111721589Y-76740313D01*
X111772195Y-76573490D01*
X111785000Y-76443477D01*
X111785000Y-76443469D01*
X111789281Y-76400000D01*
X111785000Y-76356531D01*
X111785000Y-72866578D01*
X112446579Y-72205000D01*
X112905344Y-72205000D01*
X112946525Y-72266632D01*
X113153368Y-72473475D01*
X113327760Y-72590000D01*
X113153368Y-72706525D01*
X112946525Y-72913368D01*
X112784010Y-73156589D01*
X112672068Y-73426842D01*
X112615000Y-73713740D01*
X112615000Y-74006260D01*
X112672068Y-74293158D01*
X112784010Y-74563411D01*
X112946525Y-74806632D01*
X113078380Y-74938487D01*
X113005820Y-74960498D01*
X112895506Y-75019463D01*
X112798815Y-75098815D01*
X112719463Y-75195506D01*
X112660498Y-75305820D01*
X112624188Y-75425518D01*
X112611928Y-75550000D01*
X112611928Y-77250000D01*
X112624188Y-77374482D01*
X112660498Y-77494180D01*
X112719463Y-77604494D01*
X112798815Y-77701185D01*
X112895506Y-77780537D01*
X113005820Y-77839502D01*
X113125518Y-77875812D01*
X113250000Y-77888072D01*
X114950000Y-77888072D01*
X115074482Y-77875812D01*
X115194180Y-77839502D01*
X115304494Y-77780537D01*
X115401185Y-77701185D01*
X115480537Y-77604494D01*
X115539502Y-77494180D01*
X115575812Y-77374482D01*
X115588072Y-77250000D01*
X115588072Y-75550000D01*
X115575812Y-75425518D01*
X115539502Y-75305820D01*
X115480537Y-75195506D01*
X115401185Y-75098815D01*
X115304494Y-75019463D01*
X115194180Y-74960498D01*
X115121620Y-74938487D01*
X115253475Y-74806632D01*
X115415990Y-74563411D01*
X115527932Y-74293158D01*
X115585000Y-74006260D01*
X115585000Y-73713740D01*
X115527932Y-73426842D01*
X115415990Y-73156589D01*
X115253475Y-72913368D01*
X115046632Y-72706525D01*
X114872240Y-72590000D01*
X115046632Y-72473475D01*
X115253475Y-72266632D01*
X115415990Y-72023411D01*
X115527932Y-71753158D01*
X115585000Y-71466260D01*
X115585000Y-71173740D01*
X115527932Y-70886842D01*
X115415990Y-70616589D01*
X115253475Y-70373368D01*
X115046632Y-70166525D01*
X114864466Y-70044805D01*
X114981355Y-69975178D01*
X115197588Y-69780269D01*
X115371641Y-69546920D01*
X115496825Y-69284099D01*
X115541476Y-69136890D01*
X115420155Y-68907000D01*
X114227000Y-68907000D01*
X114227000Y-68927000D01*
X113973000Y-68927000D01*
X113973000Y-68907000D01*
X112779845Y-68907000D01*
X112658524Y-69136890D01*
X112703175Y-69284099D01*
X112828359Y-69546920D01*
X113002412Y-69780269D01*
X113218645Y-69975178D01*
X113335534Y-70044805D01*
X113153368Y-70166525D01*
X112946525Y-70373368D01*
X112905344Y-70435000D01*
X112123466Y-70435000D01*
X112079999Y-70430719D01*
X112036533Y-70435000D01*
X112036523Y-70435000D01*
X111906510Y-70447805D01*
X111739687Y-70498411D01*
X111585941Y-70580589D01*
X111585939Y-70580590D01*
X111585940Y-70580590D01*
X111484953Y-70663468D01*
X111484951Y-70663470D01*
X111451183Y-70691183D01*
X111423470Y-70724951D01*
X110304956Y-71843466D01*
X110271183Y-71871183D01*
X110160589Y-72005942D01*
X110078411Y-72159688D01*
X110027805Y-72326511D01*
X110015000Y-72456524D01*
X110015000Y-72456531D01*
X110010719Y-72500000D01*
X110015000Y-72543469D01*
X110015000Y-73015868D01*
X109975000Y-73011928D01*
X109213506Y-73011928D01*
X109076713Y-72875135D01*
X109194180Y-72839502D01*
X109304494Y-72780537D01*
X109401185Y-72701185D01*
X109480537Y-72604494D01*
X109539502Y-72494180D01*
X109575812Y-72374482D01*
X109588072Y-72250000D01*
X109588072Y-70550000D01*
X109575812Y-70425518D01*
X109539502Y-70305820D01*
X109480537Y-70195506D01*
X109401185Y-70098815D01*
X109304494Y-70019463D01*
X109194180Y-69960498D01*
X109074482Y-69924188D01*
X108950000Y-69911928D01*
X108860000Y-69911928D01*
X108860000Y-68423110D01*
X112658524Y-68423110D01*
X112779845Y-68653000D01*
X113973000Y-68653000D01*
X113973000Y-67459186D01*
X114227000Y-67459186D01*
X114227000Y-68653000D01*
X115420155Y-68653000D01*
X115541476Y-68423110D01*
X115496825Y-68275901D01*
X115371641Y-68013080D01*
X115197588Y-67779731D01*
X114981355Y-67584822D01*
X114731252Y-67435843D01*
X114456891Y-67338519D01*
X114227000Y-67459186D01*
X113973000Y-67459186D01*
X113743109Y-67338519D01*
X113468748Y-67435843D01*
X113218645Y-67584822D01*
X113002412Y-67779731D01*
X112828359Y-68013080D01*
X112703175Y-68275901D01*
X112658524Y-68423110D01*
X108860000Y-68423110D01*
X108860000Y-68137322D01*
X108863676Y-68099999D01*
X108860000Y-68062676D01*
X108860000Y-68062667D01*
X108849003Y-67951014D01*
X108805546Y-67807753D01*
X108790568Y-67779731D01*
X108734974Y-67675723D01*
X108663799Y-67588997D01*
X108640001Y-67559999D01*
X108611004Y-67536202D01*
X105588803Y-64514002D01*
X105565000Y-64484998D01*
X105449275Y-64390025D01*
X105317246Y-64319453D01*
X105232533Y-64293756D01*
X105228223Y-64250000D01*
X105238072Y-64150000D01*
X105238072Y-63850000D01*
X105228223Y-63750000D01*
X105238072Y-63650000D01*
X105238072Y-63350000D01*
X105225812Y-63225518D01*
X105189502Y-63105820D01*
X105130537Y-62995506D01*
X105051185Y-62898815D01*
X104954494Y-62819463D01*
X104844180Y-62760498D01*
X104724482Y-62724188D01*
X104600000Y-62711928D01*
X103200000Y-62711928D01*
X103075518Y-62724188D01*
X103023393Y-62740000D01*
X102514802Y-62740000D01*
X101411086Y-61636284D01*
X101814250Y-61635000D01*
X101973000Y-61476250D01*
X101973000Y-59127000D01*
X102227000Y-59127000D01*
X102227000Y-61476250D01*
X102385750Y-61635000D01*
X103350000Y-61638072D01*
X103474482Y-61625812D01*
X103594180Y-61589502D01*
X103704494Y-61530537D01*
X103801185Y-61451185D01*
X103880537Y-61354494D01*
X103939502Y-61244180D01*
X103975812Y-61124482D01*
X103988072Y-61000000D01*
X103985000Y-59285750D01*
X103826250Y-59127000D01*
X102227000Y-59127000D01*
X101973000Y-59127000D01*
X100373750Y-59127000D01*
X100215000Y-59285750D01*
X100211928Y-61000000D01*
X100224188Y-61124482D01*
X100228895Y-61140000D01*
X94303711Y-61140000D01*
X94259774Y-61096063D01*
X94090256Y-60982795D01*
X93901898Y-60904774D01*
X93701939Y-60865000D01*
X93498061Y-60865000D01*
X93298102Y-60904774D01*
X93109744Y-60982795D01*
X92940226Y-61096063D01*
X92796063Y-61240226D01*
X92682795Y-61409744D01*
X92604774Y-61598102D01*
X92565000Y-61798061D01*
X89780338Y-61798061D01*
X89912048Y-61531653D01*
X88600000Y-60219605D01*
X87287952Y-61531653D01*
X85735000Y-61531653D01*
X85735000Y-60082824D01*
X86455098Y-60082824D01*
X86504666Y-60500451D01*
X86634757Y-60900383D01*
X86792786Y-61196038D01*
X87108347Y-61352048D01*
X88420395Y-60040000D01*
X88779605Y-60040000D01*
X90091653Y-61352048D01*
X90407214Y-61196038D01*
X90598020Y-60821255D01*
X90712044Y-60416449D01*
X90744902Y-59997176D01*
X90695334Y-59579549D01*
X90565243Y-59179617D01*
X90407214Y-58883962D01*
X90091653Y-58727952D01*
X88779605Y-60040000D01*
X88420395Y-60040000D01*
X87108347Y-58727952D01*
X86792786Y-58883962D01*
X86601980Y-59258745D01*
X86487956Y-59663551D01*
X86455098Y-60082824D01*
X85735000Y-60082824D01*
X85735000Y-58570131D01*
X86270132Y-58035000D01*
X87861840Y-58035000D01*
X87739617Y-58074757D01*
X87443962Y-58232786D01*
X87287952Y-58548347D01*
X88600000Y-59860395D01*
X89912048Y-58548347D01*
X89756038Y-58232786D01*
X89381255Y-58041980D01*
X89356475Y-58035000D01*
X97844249Y-58035000D01*
X97900000Y-58040491D01*
X97955751Y-58035000D01*
X97955752Y-58035000D01*
X98122499Y-58018577D01*
X98336447Y-57953676D01*
X98533623Y-57848284D01*
X98706449Y-57706449D01*
X98741995Y-57663136D01*
X99405131Y-57000000D01*
X100211928Y-57000000D01*
X100215000Y-58714250D01*
X100373750Y-58873000D01*
X101973000Y-58873000D01*
X101973000Y-56523750D01*
X102227000Y-56523750D01*
X102227000Y-58873000D01*
X103826250Y-58873000D01*
X103985000Y-58714250D01*
X103988072Y-57000000D01*
X103975812Y-56875518D01*
X103952904Y-56800000D01*
X108036928Y-56800000D01*
X108049188Y-56924482D01*
X108085498Y-57044180D01*
X108144463Y-57154494D01*
X108223815Y-57251185D01*
X108320506Y-57330537D01*
X108430820Y-57389502D01*
X108550518Y-57425812D01*
X108675000Y-57438072D01*
X109014250Y-57435000D01*
X109173000Y-57276250D01*
X109173000Y-56177000D01*
X109427000Y-56177000D01*
X109427000Y-57276250D01*
X109585750Y-57435000D01*
X109925000Y-57438072D01*
X110049482Y-57425812D01*
X110169180Y-57389502D01*
X110279494Y-57330537D01*
X110376185Y-57251185D01*
X110455537Y-57154494D01*
X110514502Y-57044180D01*
X110550812Y-56924482D01*
X110563072Y-56800000D01*
X110560000Y-56335750D01*
X110401250Y-56177000D01*
X109427000Y-56177000D01*
X109173000Y-56177000D01*
X108198750Y-56177000D01*
X108040000Y-56335750D01*
X108036928Y-56800000D01*
X103952904Y-56800000D01*
X103939502Y-56755820D01*
X103880537Y-56645506D01*
X103801185Y-56548815D01*
X103704494Y-56469463D01*
X103594180Y-56410498D01*
X103474482Y-56374188D01*
X103350000Y-56361928D01*
X102385750Y-56365000D01*
X102227000Y-56523750D01*
X101973000Y-56523750D01*
X101814250Y-56365000D01*
X100850000Y-56361928D01*
X100725518Y-56374188D01*
X100605820Y-56410498D01*
X100495506Y-56469463D01*
X100398815Y-56548815D01*
X100319463Y-56645506D01*
X100260498Y-56755820D01*
X100224188Y-56875518D01*
X100211928Y-57000000D01*
X99405131Y-57000000D01*
X99463140Y-56941992D01*
X99506449Y-56906449D01*
X99648284Y-56733623D01*
X99753676Y-56536447D01*
X99818577Y-56322499D01*
X99835000Y-56155752D01*
X99835000Y-56155751D01*
X99840491Y-56100000D01*
X99835000Y-56044248D01*
X99835000Y-54570131D01*
X100774496Y-53630636D01*
X100850000Y-53638072D01*
X103350000Y-53638072D01*
X103474482Y-53625812D01*
X103594180Y-53589502D01*
X103704494Y-53530537D01*
X103801185Y-53451185D01*
X103880537Y-53354494D01*
X103939502Y-53244180D01*
X103975812Y-53124482D01*
X103988072Y-53000000D01*
X103988072Y-52639650D01*
X105493470Y-54145049D01*
X105521183Y-54178817D01*
X105554951Y-54206530D01*
X105554953Y-54206532D01*
X105655941Y-54289411D01*
X105809686Y-54371589D01*
X105903347Y-54400001D01*
X105976510Y-54422195D01*
X106106523Y-54435000D01*
X106106531Y-54435000D01*
X106150000Y-54439281D01*
X106193469Y-54435000D01*
X108052379Y-54435000D01*
X108085498Y-54544180D01*
X108144463Y-54654494D01*
X108223815Y-54751185D01*
X108283296Y-54800000D01*
X108223815Y-54848815D01*
X108144463Y-54945506D01*
X108085498Y-55055820D01*
X108049188Y-55175518D01*
X108036928Y-55300000D01*
X108040000Y-55764250D01*
X108198750Y-55923000D01*
X109173000Y-55923000D01*
X109173000Y-55903000D01*
X109427000Y-55903000D01*
X109427000Y-55923000D01*
X110401250Y-55923000D01*
X110560000Y-55764250D01*
X110563072Y-55300000D01*
X110550812Y-55175518D01*
X110514502Y-55055820D01*
X110455537Y-54945506D01*
X110376185Y-54848815D01*
X110316704Y-54800000D01*
X110376185Y-54751185D01*
X110455537Y-54654494D01*
X110514502Y-54544180D01*
X110550812Y-54424482D01*
X110563072Y-54300000D01*
X110563072Y-52800000D01*
X110550812Y-52675518D01*
X110514502Y-52555820D01*
X110455537Y-52445506D01*
X110376185Y-52348815D01*
X110279494Y-52269463D01*
X110169180Y-52210498D01*
X110049482Y-52174188D01*
X109925000Y-52161928D01*
X108675000Y-52161928D01*
X108550518Y-52174188D01*
X108430820Y-52210498D01*
X108320506Y-52269463D01*
X108223815Y-52348815D01*
X108144463Y-52445506D01*
X108085498Y-52555820D01*
X108052379Y-52665000D01*
X106516579Y-52665000D01*
X105101578Y-51250000D01*
X105401578Y-50950000D01*
X108336928Y-50950000D01*
X108349188Y-51074482D01*
X108385498Y-51194180D01*
X108444463Y-51304494D01*
X108523815Y-51401185D01*
X108620506Y-51480537D01*
X108730820Y-51539502D01*
X108850518Y-51575812D01*
X108975000Y-51588072D01*
X109314250Y-51585000D01*
X109473000Y-51426250D01*
X109473000Y-50327000D01*
X109727000Y-50327000D01*
X109727000Y-51426250D01*
X109885750Y-51585000D01*
X110225000Y-51588072D01*
X110349482Y-51575812D01*
X110469180Y-51539502D01*
X110579494Y-51480537D01*
X110676185Y-51401185D01*
X110755537Y-51304494D01*
X110803920Y-51213978D01*
X110805498Y-51219180D01*
X110864463Y-51329494D01*
X110943815Y-51426185D01*
X111040506Y-51505537D01*
X111150820Y-51564502D01*
X111270518Y-51600812D01*
X111395000Y-51613072D01*
X111409250Y-51610000D01*
X111568000Y-51451250D01*
X111568000Y-50327000D01*
X110918750Y-50327000D01*
X110810000Y-50435750D01*
X110701250Y-50327000D01*
X109727000Y-50327000D01*
X109473000Y-50327000D01*
X108498750Y-50327000D01*
X108340000Y-50485750D01*
X108336928Y-50950000D01*
X105401578Y-50950000D01*
X108336928Y-48014651D01*
X108336928Y-48450000D01*
X108349188Y-48574482D01*
X108385498Y-48694180D01*
X108444463Y-48804494D01*
X108523815Y-48901185D01*
X108583296Y-48950000D01*
X108523815Y-48998815D01*
X108444463Y-49095506D01*
X108385498Y-49205820D01*
X108349188Y-49325518D01*
X108336928Y-49450000D01*
X108340000Y-49914250D01*
X108498750Y-50073000D01*
X109473000Y-50073000D01*
X109473000Y-50053000D01*
X109727000Y-50053000D01*
X109727000Y-50073000D01*
X110701250Y-50073000D01*
X110810000Y-49964250D01*
X110918750Y-50073000D01*
X111568000Y-50073000D01*
X111568000Y-48948750D01*
X111409250Y-48790000D01*
X111395000Y-48786928D01*
X111270518Y-48799188D01*
X111150820Y-48835498D01*
X111040506Y-48894463D01*
X110943815Y-48973815D01*
X110864463Y-49070506D01*
X110805498Y-49180820D01*
X110803920Y-49186022D01*
X110755537Y-49095506D01*
X110676185Y-48998815D01*
X110616704Y-48950000D01*
X110676185Y-48901185D01*
X110755537Y-48804494D01*
X110814502Y-48694180D01*
X110847621Y-48585000D01*
X111733422Y-48585000D01*
X111959586Y-48811164D01*
X111822000Y-48948750D01*
X111822000Y-50073000D01*
X111842000Y-50073000D01*
X111842000Y-50327000D01*
X111822000Y-50327000D01*
X111822000Y-51451250D01*
X111980750Y-51610000D01*
X111995000Y-51613072D01*
X112080000Y-51604700D01*
X112080001Y-52211928D01*
X111750000Y-52211928D01*
X111625518Y-52224188D01*
X111505820Y-52260498D01*
X111395506Y-52319463D01*
X111298815Y-52398815D01*
X111219463Y-52495506D01*
X111160498Y-52605820D01*
X111124188Y-52725518D01*
X111111928Y-52850000D01*
X111111928Y-54550000D01*
X111124188Y-54674482D01*
X111160498Y-54794180D01*
X111219463Y-54904494D01*
X111298815Y-55001185D01*
X111395506Y-55080537D01*
X111505820Y-55139502D01*
X111625518Y-55175812D01*
X111750000Y-55188072D01*
X113450000Y-55188072D01*
X113574482Y-55175812D01*
X113694180Y-55139502D01*
X113804494Y-55080537D01*
X113901185Y-55001185D01*
X113980537Y-54904494D01*
X114039502Y-54794180D01*
X114075812Y-54674482D01*
X114088072Y-54550000D01*
X114088072Y-53049650D01*
X114198102Y-53095226D01*
X114398061Y-53135000D01*
X114601939Y-53135000D01*
X114801898Y-53095226D01*
X114990256Y-53017205D01*
X115159774Y-52903937D01*
X115303937Y-52759774D01*
X115417205Y-52590256D01*
X115495226Y-52401898D01*
X115535000Y-52201939D01*
X115535000Y-51998061D01*
X115495226Y-51798102D01*
X115418584Y-51613072D01*
X115805000Y-51613072D01*
X115929482Y-51600812D01*
X116049180Y-51564502D01*
X116159494Y-51505537D01*
X116256185Y-51426185D01*
X116335537Y-51329494D01*
X116394502Y-51219180D01*
X116396080Y-51213978D01*
X116444463Y-51304494D01*
X116523815Y-51401185D01*
X116620506Y-51480537D01*
X116730820Y-51539502D01*
X116850518Y-51575812D01*
X116975000Y-51588072D01*
X118225000Y-51588072D01*
X118349482Y-51575812D01*
X118469180Y-51539502D01*
X118579494Y-51480537D01*
X118676185Y-51401185D01*
X118755537Y-51304494D01*
X118814502Y-51194180D01*
X118850812Y-51074482D01*
X118863072Y-50950000D01*
X118863072Y-49450000D01*
X118850812Y-49325518D01*
X118814502Y-49205820D01*
X118755537Y-49095506D01*
X118676185Y-48998815D01*
X118616704Y-48950000D01*
X118676185Y-48901185D01*
X118755537Y-48804494D01*
X118814502Y-48694180D01*
X118850812Y-48574482D01*
X118863072Y-48450000D01*
X118860000Y-47985750D01*
X118701250Y-47827000D01*
X117727000Y-47827000D01*
X117727000Y-47847000D01*
X117473000Y-47847000D01*
X117473000Y-47827000D01*
X116498750Y-47827000D01*
X116340000Y-47985750D01*
X116337260Y-48399863D01*
X116326589Y-48364687D01*
X116244411Y-48210941D01*
X116186212Y-48140026D01*
X116161532Y-48109953D01*
X116161530Y-48109951D01*
X116133817Y-48076183D01*
X116100049Y-48048470D01*
X114264650Y-46213072D01*
X114535000Y-46213072D01*
X114659482Y-46200812D01*
X114779180Y-46164502D01*
X114870000Y-46115957D01*
X114960820Y-46164502D01*
X115080518Y-46200812D01*
X115205000Y-46213072D01*
X115805000Y-46213072D01*
X115807677Y-46212808D01*
X115936857Y-46341988D01*
X116066376Y-46448283D01*
X116263552Y-46553675D01*
X116438462Y-46606734D01*
X116385498Y-46705820D01*
X116349188Y-46825518D01*
X116336928Y-46950000D01*
X116340000Y-47414250D01*
X116498750Y-47573000D01*
X117473000Y-47573000D01*
X117473000Y-46473750D01*
X117727000Y-46473750D01*
X117727000Y-47573000D01*
X118701250Y-47573000D01*
X118860000Y-47414250D01*
X118863072Y-46950000D01*
X118850812Y-46825518D01*
X118814502Y-46705820D01*
X118755537Y-46595506D01*
X118676185Y-46498815D01*
X118579494Y-46419463D01*
X118469180Y-46360498D01*
X118349482Y-46324188D01*
X118225000Y-46311928D01*
X117885750Y-46315000D01*
X117727000Y-46473750D01*
X117473000Y-46473750D01*
X117396187Y-46396937D01*
X117506448Y-46306448D01*
X117648283Y-46133622D01*
X117753675Y-45936446D01*
X117818576Y-45722498D01*
X117840490Y-45499999D01*
X117818576Y-45277500D01*
X117753675Y-45063552D01*
X117648283Y-44866376D01*
X117643809Y-44860924D01*
X117748283Y-44733624D01*
X117853675Y-44536448D01*
X117918576Y-44322500D01*
X117940490Y-44100001D01*
X117918576Y-43877502D01*
X117853675Y-43663554D01*
X117748283Y-43466378D01*
X117606448Y-43293552D01*
X117433622Y-43151717D01*
X117236446Y-43046325D01*
X117022498Y-42981424D01*
X116799999Y-42959510D01*
X116577500Y-42981424D01*
X116363552Y-43046325D01*
X116166376Y-43151717D01*
X116036857Y-43258012D01*
X115898712Y-43396157D01*
X115805000Y-43386928D01*
X115205000Y-43386928D01*
X115080518Y-43399188D01*
X114960820Y-43435498D01*
X114870000Y-43484043D01*
X114779180Y-43435498D01*
X114659482Y-43399188D01*
X114535000Y-43386928D01*
X113935000Y-43386928D01*
X113810518Y-43399188D01*
X113690820Y-43435498D01*
X113600000Y-43484043D01*
X113509180Y-43435498D01*
X113389482Y-43399188D01*
X113265000Y-43386928D01*
X112665000Y-43386928D01*
X112540518Y-43399188D01*
X112420820Y-43435498D01*
X112330000Y-43484043D01*
X112239180Y-43435498D01*
X112119482Y-43399188D01*
X111995000Y-43386928D01*
X111395000Y-43386928D01*
X111270518Y-43399188D01*
X111150820Y-43435498D01*
X111040506Y-43494463D01*
X110943815Y-43573815D01*
X110868982Y-43665000D01*
X107370132Y-43665000D01*
X106185119Y-42479987D01*
X106188072Y-42450000D01*
X106188072Y-40750000D01*
X106175812Y-40625518D01*
X106139502Y-40505820D01*
X106080537Y-40395506D01*
X106001185Y-40298815D01*
X105904494Y-40219463D01*
X105794180Y-40160498D01*
X105674482Y-40124188D01*
X105585000Y-40115375D01*
X105585000Y-35837122D01*
X109285000Y-35837122D01*
X109285000Y-36962878D01*
X109504625Y-38067004D01*
X109935433Y-39107067D01*
X110560870Y-40043100D01*
X111356900Y-40839130D01*
X112292933Y-41464567D01*
X113332996Y-41895375D01*
X114437122Y-42115000D01*
X115562878Y-42115000D01*
X116667004Y-41895375D01*
X117707067Y-41464567D01*
X118643100Y-40839130D01*
X119439130Y-40043100D01*
X120064567Y-39107067D01*
X120495375Y-38067004D01*
X120715000Y-36962878D01*
X120715000Y-35837122D01*
X120495375Y-34732996D01*
X120064567Y-33692933D01*
X119439130Y-32756900D01*
X118643100Y-31960870D01*
X117707067Y-31335433D01*
X116667004Y-30904625D01*
X115562878Y-30685000D01*
X114437122Y-30685000D01*
X113332996Y-30904625D01*
X112292933Y-31335433D01*
X111356900Y-31960870D01*
X110560870Y-32756900D01*
X109935433Y-33692933D01*
X109504625Y-34732996D01*
X109285000Y-35837122D01*
X105585000Y-35837122D01*
X105585000Y-33343469D01*
X105589281Y-33300000D01*
X105585000Y-33256531D01*
X105585000Y-33256523D01*
X105572195Y-33126510D01*
X105521589Y-32959687D01*
X105439411Y-32805941D01*
X105328817Y-32671183D01*
X105295049Y-32643470D01*
X104906535Y-32254956D01*
X104895226Y-32198102D01*
X104817205Y-32009744D01*
X104703937Y-31840226D01*
X104559774Y-31696063D01*
X104390256Y-31582795D01*
X104201898Y-31504774D01*
X104001939Y-31465000D01*
X103798061Y-31465000D01*
X103598102Y-31504774D01*
X103409744Y-31582795D01*
X103240226Y-31696063D01*
X103096063Y-31840226D01*
X102982795Y-32009744D01*
X102904774Y-32198102D01*
X102865000Y-32398061D01*
X102865000Y-32601939D01*
X102904774Y-32801898D01*
X102982795Y-32990256D01*
X103096063Y-33159774D01*
X103240226Y-33303937D01*
X103409744Y-33417205D01*
X103598102Y-33495226D01*
X103654956Y-33506535D01*
X103815001Y-33666580D01*
X103815000Y-40115375D01*
X103725518Y-40124188D01*
X103605820Y-40160498D01*
X103495506Y-40219463D01*
X103398815Y-40298815D01*
X103319463Y-40395506D01*
X103260498Y-40505820D01*
X103224188Y-40625518D01*
X103211928Y-40750000D01*
X103211928Y-42450000D01*
X103224188Y-42574482D01*
X103260498Y-42694180D01*
X103319463Y-42804494D01*
X103396502Y-42898366D01*
X103229868Y-43065000D01*
X100944248Y-43065000D01*
X100777501Y-43081423D01*
X100563553Y-43146324D01*
X100366377Y-43251716D01*
X100201621Y-43386928D01*
X100000000Y-43386928D01*
X99904041Y-43396379D01*
X99913026Y-43292312D01*
X99910000Y-42585750D01*
X99751250Y-42427000D01*
X99148000Y-42427000D01*
X99148000Y-42447000D01*
X99052000Y-42447000D01*
X99052000Y-42427000D01*
X98148000Y-42427000D01*
X98148000Y-42447000D01*
X98052000Y-42447000D01*
X98052000Y-42427000D01*
X97976774Y-42427000D01*
X97985000Y-42343477D01*
X97985000Y-42173000D01*
X98052000Y-42173000D01*
X98052000Y-42153000D01*
X98148000Y-42153000D01*
X98148000Y-42173000D01*
X99052000Y-42173000D01*
X99052000Y-42153000D01*
X99148000Y-42153000D01*
X99148000Y-42173000D01*
X99751250Y-42173000D01*
X99910000Y-42014250D01*
X99913026Y-41307688D01*
X99902266Y-41183067D01*
X99867401Y-41062941D01*
X99809770Y-40951924D01*
X99770887Y-40903363D01*
X99773000Y-40901250D01*
X99773000Y-39927000D01*
X100027000Y-39927000D01*
X100027000Y-40901250D01*
X100185750Y-41060000D01*
X100650000Y-41063072D01*
X100774482Y-41050812D01*
X100894180Y-41014502D01*
X101004494Y-40955537D01*
X101101185Y-40876185D01*
X101180537Y-40779494D01*
X101239502Y-40669180D01*
X101275812Y-40549482D01*
X101288072Y-40425000D01*
X101285000Y-40085750D01*
X101126250Y-39927000D01*
X100027000Y-39927000D01*
X99773000Y-39927000D01*
X99753000Y-39927000D01*
X99753000Y-39673000D01*
X99773000Y-39673000D01*
X99773000Y-38698750D01*
X100027000Y-38698750D01*
X100027000Y-39673000D01*
X101126250Y-39673000D01*
X101285000Y-39514250D01*
X101288072Y-39175000D01*
X101275812Y-39050518D01*
X101239502Y-38930820D01*
X101180537Y-38820506D01*
X101101185Y-38723815D01*
X101004494Y-38644463D01*
X100894180Y-38585498D01*
X100774482Y-38549188D01*
X100650000Y-38536928D01*
X100185750Y-38540000D01*
X100027000Y-38698750D01*
X99773000Y-38698750D01*
X99614250Y-38540000D01*
X99150000Y-38536928D01*
X99025518Y-38549188D01*
X98905820Y-38585498D01*
X98795506Y-38644463D01*
X98698815Y-38723815D01*
X98650000Y-38783296D01*
X98601185Y-38723815D01*
X98504494Y-38644463D01*
X98394180Y-38585498D01*
X98274482Y-38549188D01*
X98150000Y-38536928D01*
X97514650Y-38536928D01*
X97563506Y-38488072D01*
X98650000Y-38488072D01*
X98774482Y-38475812D01*
X98894180Y-38439502D01*
X99004494Y-38380537D01*
X99101185Y-38301185D01*
X99180537Y-38204494D01*
X99239502Y-38094180D01*
X99275812Y-37974482D01*
X99288072Y-37850000D01*
X99288072Y-36150000D01*
X99275812Y-36025518D01*
X99239502Y-35905820D01*
X99180537Y-35795506D01*
X99101185Y-35698815D01*
X99004494Y-35619463D01*
X98894180Y-35560498D01*
X98774482Y-35524188D01*
X98650000Y-35511928D01*
X96950000Y-35511928D01*
X96825518Y-35524188D01*
X96705820Y-35560498D01*
X96595506Y-35619463D01*
X96498815Y-35698815D01*
X96419463Y-35795506D01*
X96360498Y-35905820D01*
X96324188Y-36025518D01*
X96311928Y-36150000D01*
X96311928Y-37236494D01*
X95906662Y-37641759D01*
X95881101Y-37620782D01*
X95888072Y-37550000D01*
X95888072Y-36750000D01*
X95875812Y-36625518D01*
X95839502Y-36505820D01*
X95780537Y-36395506D01*
X95701185Y-36298815D01*
X95604494Y-36219463D01*
X95494180Y-36160498D01*
X95374482Y-36124188D01*
X95250000Y-36111928D01*
X94350000Y-36111928D01*
X94225518Y-36124188D01*
X94105820Y-36160498D01*
X93995506Y-36219463D01*
X93898815Y-36298815D01*
X93819463Y-36395506D01*
X93760498Y-36505820D01*
X93724188Y-36625518D01*
X93711928Y-36750000D01*
X93711928Y-37550000D01*
X93724188Y-37674482D01*
X93756464Y-37780882D01*
X93744463Y-37795506D01*
X93685498Y-37905820D01*
X93649188Y-38025518D01*
X93636928Y-38150000D01*
X93636928Y-39650000D01*
X93649188Y-39774482D01*
X93685498Y-39894180D01*
X93744463Y-40004494D01*
X93823815Y-40101185D01*
X93883296Y-40150000D01*
X93823815Y-40198815D01*
X93744463Y-40295506D01*
X93685498Y-40405820D01*
X93649188Y-40525518D01*
X93636928Y-40650000D01*
X93636928Y-41411494D01*
X93504951Y-41543471D01*
X93471184Y-41571183D01*
X93443471Y-41604951D01*
X93443468Y-41604954D01*
X93360590Y-41705941D01*
X93278412Y-41859687D01*
X93227805Y-42026510D01*
X93210719Y-42200000D01*
X93215001Y-42243479D01*
X93215000Y-43556530D01*
X93210719Y-43600000D01*
X93215000Y-43643469D01*
X93215000Y-43643476D01*
X93222397Y-43718577D01*
X93227805Y-43773490D01*
X93239185Y-43811002D01*
X93278411Y-43940312D01*
X93360589Y-44094058D01*
X93471183Y-44228817D01*
X93504956Y-44256534D01*
X93561928Y-44313506D01*
X93561928Y-44315000D01*
X92917287Y-44315000D01*
X92914502Y-44305820D01*
X92855537Y-44195506D01*
X92776185Y-44098815D01*
X92716704Y-44050000D01*
X92776185Y-44001185D01*
X92855537Y-43904494D01*
X92914502Y-43794180D01*
X92950812Y-43674482D01*
X92963072Y-43550000D01*
X92963072Y-42050000D01*
X92950812Y-41925518D01*
X92914502Y-41805820D01*
X92855537Y-41695506D01*
X92776185Y-41598815D01*
X92679494Y-41519463D01*
X92585000Y-41468954D01*
X92585000Y-36012511D01*
X92698061Y-36035000D01*
X92901939Y-36035000D01*
X93101898Y-35995226D01*
X93247295Y-35935000D01*
X93940019Y-35935000D01*
X93995506Y-35980537D01*
X94105820Y-36039502D01*
X94225518Y-36075812D01*
X94350000Y-36088072D01*
X95250000Y-36088072D01*
X95374482Y-36075812D01*
X95494180Y-36039502D01*
X95604494Y-35980537D01*
X95701185Y-35901185D01*
X95780537Y-35804494D01*
X95839502Y-35694180D01*
X95875812Y-35574482D01*
X95888072Y-35450000D01*
X95888072Y-34650000D01*
X95875812Y-34525518D01*
X95839502Y-34405820D01*
X95780537Y-34295506D01*
X95701185Y-34198815D01*
X95604494Y-34119463D01*
X95494180Y-34060498D01*
X95374482Y-34024188D01*
X95250000Y-34011928D01*
X94350000Y-34011928D01*
X94225518Y-34024188D01*
X94105820Y-34060498D01*
X93995506Y-34119463D01*
X93940019Y-34165000D01*
X93413285Y-34165000D01*
X93290256Y-34082795D01*
X93101898Y-34004774D01*
X92901939Y-33965000D01*
X92698061Y-33965000D01*
X92683727Y-33967851D01*
X93266579Y-33385000D01*
X97461546Y-33385000D01*
X97509744Y-33417205D01*
X97698102Y-33495226D01*
X97898061Y-33535000D01*
X98101939Y-33535000D01*
X98301898Y-33495226D01*
X98490256Y-33417205D01*
X98659774Y-33303937D01*
X98803937Y-33159774D01*
X98917205Y-32990256D01*
X98995226Y-32801898D01*
X99035000Y-32601939D01*
X99035000Y-32398061D01*
X98995226Y-32198102D01*
X98917205Y-32009744D01*
X98803937Y-31840226D01*
X98659774Y-31696063D01*
X98490256Y-31582795D01*
X98301898Y-31504774D01*
X98101939Y-31465000D01*
X97898061Y-31465000D01*
X97698102Y-31504774D01*
X97509744Y-31582795D01*
X97461546Y-31615000D01*
X92943465Y-31615000D01*
X92899999Y-31610719D01*
X92856533Y-31615000D01*
X92856523Y-31615000D01*
X92726510Y-31627805D01*
X92559687Y-31678411D01*
X92405941Y-31760589D01*
X92405939Y-31760590D01*
X92405940Y-31760590D01*
X92304953Y-31843468D01*
X92304951Y-31843470D01*
X92271183Y-31871183D01*
X92243470Y-31904951D01*
X91104951Y-33043471D01*
X91071184Y-33071183D01*
X91043471Y-33104951D01*
X91043468Y-33104954D01*
X90960590Y-33205941D01*
X90878412Y-33359687D01*
X90827805Y-33526510D01*
X90810719Y-33700000D01*
X90815001Y-33743479D01*
X90815000Y-37343476D01*
X90815001Y-37343486D01*
X90815000Y-41468954D01*
X90720506Y-41519463D01*
X90700000Y-41536292D01*
X90679494Y-41519463D01*
X90569180Y-41460498D01*
X90449482Y-41424188D01*
X90325000Y-41411928D01*
X89985750Y-41415000D01*
X89827000Y-41573750D01*
X89827000Y-42673000D01*
X89847000Y-42673000D01*
X89847000Y-42927000D01*
X89827000Y-42927000D01*
X89827000Y-42947000D01*
X89573000Y-42947000D01*
X89573000Y-42927000D01*
X88598750Y-42927000D01*
X88440000Y-43085750D01*
X88436928Y-43550000D01*
X88449188Y-43674482D01*
X88485498Y-43794180D01*
X88544463Y-43904494D01*
X88623815Y-44001185D01*
X88683296Y-44050000D01*
X88623815Y-44098815D01*
X88544463Y-44195506D01*
X88485498Y-44305820D01*
X88452379Y-44415000D01*
X88066579Y-44415000D01*
X87888072Y-44236493D01*
X87888072Y-42650000D01*
X87875812Y-42525518D01*
X87839502Y-42405820D01*
X87780537Y-42295506D01*
X87701185Y-42198815D01*
X87604494Y-42119463D01*
X87494180Y-42060498D01*
X87459573Y-42050000D01*
X88436928Y-42050000D01*
X88440000Y-42514250D01*
X88598750Y-42673000D01*
X89573000Y-42673000D01*
X89573000Y-41573750D01*
X89414250Y-41415000D01*
X89075000Y-41411928D01*
X88950518Y-41424188D01*
X88830820Y-41460498D01*
X88720506Y-41519463D01*
X88623815Y-41598815D01*
X88544463Y-41695506D01*
X88485498Y-41805820D01*
X88449188Y-41925518D01*
X88436928Y-42050000D01*
X87459573Y-42050000D01*
X87374482Y-42024188D01*
X87250000Y-42011928D01*
X85550000Y-42011928D01*
X85425518Y-42024188D01*
X85305820Y-42060498D01*
X85195506Y-42119463D01*
X85098815Y-42198815D01*
X85019463Y-42295506D01*
X84960498Y-42405820D01*
X84924188Y-42525518D01*
X84911928Y-42650000D01*
X84911928Y-44350000D01*
X84924188Y-44474482D01*
X84960498Y-44594180D01*
X85019463Y-44704494D01*
X85098815Y-44801185D01*
X85195506Y-44880537D01*
X85305820Y-44939502D01*
X85425518Y-44975812D01*
X85550000Y-44988072D01*
X86136494Y-44988072D01*
X87043470Y-45895049D01*
X87071183Y-45928817D01*
X87104951Y-45956530D01*
X87104953Y-45956532D01*
X87205941Y-46039411D01*
X87359686Y-46121589D01*
X87456634Y-46150998D01*
X87526510Y-46172195D01*
X87656523Y-46185000D01*
X87656531Y-46185000D01*
X87700000Y-46189281D01*
X87743469Y-46185000D01*
X88452379Y-46185000D01*
X88485498Y-46294180D01*
X88544463Y-46404494D01*
X88623815Y-46501185D01*
X88720506Y-46580537D01*
X88830820Y-46639502D01*
X88950518Y-46675812D01*
X89075000Y-46688072D01*
X90325000Y-46688072D01*
X90449482Y-46675812D01*
X90569180Y-46639502D01*
X90679494Y-46580537D01*
X90700000Y-46563708D01*
X90720506Y-46580537D01*
X90830820Y-46639502D01*
X90950518Y-46675812D01*
X91075000Y-46688072D01*
X92325000Y-46688072D01*
X92449482Y-46675812D01*
X92569180Y-46639502D01*
X92654553Y-46593868D01*
X92063498Y-47184924D01*
X92039502Y-47105820D01*
X91980537Y-46995506D01*
X91901185Y-46898815D01*
X91804494Y-46819463D01*
X91694180Y-46760498D01*
X91574482Y-46724188D01*
X91450000Y-46711928D01*
X89750000Y-46711928D01*
X89625518Y-46724188D01*
X89505820Y-46760498D01*
X89395506Y-46819463D01*
X89298815Y-46898815D01*
X89219463Y-46995506D01*
X89160498Y-47105820D01*
X89124188Y-47225518D01*
X89111928Y-47350000D01*
X89111928Y-47440000D01*
X84514802Y-47440000D01*
X84038803Y-46964002D01*
X84015001Y-46934999D01*
X83899276Y-46840026D01*
X83767247Y-46769454D01*
X83623986Y-46725997D01*
X83512333Y-46715000D01*
X83512322Y-46715000D01*
X83475000Y-46711324D01*
X83437678Y-46715000D01*
X82542538Y-46715000D01*
X82544180Y-46714502D01*
X82654494Y-46655537D01*
X82751185Y-46576185D01*
X82830537Y-46479494D01*
X82889502Y-46369180D01*
X82925812Y-46249482D01*
X82938072Y-46125000D01*
X82938072Y-44875000D01*
X82925812Y-44750518D01*
X82889502Y-44630820D01*
X82830537Y-44520506D01*
X82751185Y-44423815D01*
X82654494Y-44344463D01*
X82544180Y-44285498D01*
X82424482Y-44249188D01*
X82300000Y-44236928D01*
X80800000Y-44236928D01*
X80675518Y-44249188D01*
X80555820Y-44285498D01*
X80445506Y-44344463D01*
X80348815Y-44423815D01*
X80300000Y-44483296D01*
X80251185Y-44423815D01*
X80154494Y-44344463D01*
X80044180Y-44285498D01*
X79924482Y-44249188D01*
X79800000Y-44236928D01*
X79744415Y-44236928D01*
X79684974Y-44125724D01*
X79613799Y-44038997D01*
X79590001Y-44009999D01*
X79561004Y-43986202D01*
X79279977Y-43705176D01*
X79280537Y-43704494D01*
X79339502Y-43594180D01*
X79375812Y-43474482D01*
X79388072Y-43350000D01*
X79388072Y-41650000D01*
X79375812Y-41525518D01*
X79339502Y-41405820D01*
X79280537Y-41295506D01*
X79201185Y-41198815D01*
X79104494Y-41119463D01*
X78994180Y-41060498D01*
X78874482Y-41024188D01*
X78750000Y-41011928D01*
X77050000Y-41011928D01*
X76925518Y-41024188D01*
X76805820Y-41060498D01*
X76695506Y-41119463D01*
X76598815Y-41198815D01*
X76519463Y-41295506D01*
X76460498Y-41405820D01*
X76424188Y-41525518D01*
X76411928Y-41650000D01*
X76411928Y-43350000D01*
X76424188Y-43474482D01*
X76460498Y-43594180D01*
X76519463Y-43704494D01*
X76598815Y-43801185D01*
X76695506Y-43880537D01*
X76805820Y-43939502D01*
X76925518Y-43975812D01*
X77050000Y-43988072D01*
X77413271Y-43988072D01*
X77696117Y-44270918D01*
X77624482Y-44249188D01*
X77500000Y-44236928D01*
X76000000Y-44236928D01*
X75875518Y-44249188D01*
X75755820Y-44285498D01*
X75645506Y-44344463D01*
X75548815Y-44423815D01*
X75500000Y-44483296D01*
X75451185Y-44423815D01*
X75354494Y-44344463D01*
X75244180Y-44285498D01*
X75124482Y-44249188D01*
X75000000Y-44236928D01*
X74535750Y-44240000D01*
X74377000Y-44398750D01*
X74377000Y-45373000D01*
X74397000Y-45373000D01*
X74397000Y-45627000D01*
X74377000Y-45627000D01*
X74377000Y-45647000D01*
X74123000Y-45647000D01*
X74123000Y-45627000D01*
X74103000Y-45627000D01*
X74103000Y-45373000D01*
X74123000Y-45373000D01*
X74123000Y-44398750D01*
X73964250Y-44240000D01*
X73500000Y-44236928D01*
X73375518Y-44249188D01*
X73255820Y-44285498D01*
X73145506Y-44344463D01*
X73131093Y-44356291D01*
X72750350Y-43975549D01*
X72869180Y-43939502D01*
X72979494Y-43880537D01*
X73076185Y-43801185D01*
X73155537Y-43704494D01*
X73214502Y-43594180D01*
X73250812Y-43474482D01*
X73263072Y-43350000D01*
X73260000Y-42885750D01*
X73101250Y-42727000D01*
X72127000Y-42727000D01*
X72127000Y-42747000D01*
X71873000Y-42747000D01*
X71873000Y-42727000D01*
X71853000Y-42727000D01*
X71853000Y-42473000D01*
X71873000Y-42473000D01*
X71873000Y-42453000D01*
X72127000Y-42453000D01*
X72127000Y-42473000D01*
X73101250Y-42473000D01*
X73260000Y-42314250D01*
X73263072Y-41850000D01*
X73250812Y-41725518D01*
X73214502Y-41605820D01*
X73155537Y-41495506D01*
X73076185Y-41398815D01*
X73016704Y-41350000D01*
X73076185Y-41301185D01*
X73155537Y-41204494D01*
X73214502Y-41094180D01*
X73247621Y-40985000D01*
X74661546Y-40985000D01*
X74709744Y-41017205D01*
X74898102Y-41095226D01*
X75098061Y-41135000D01*
X75301939Y-41135000D01*
X75501898Y-41095226D01*
X75690256Y-41017205D01*
X75859774Y-40903937D01*
X76003937Y-40759774D01*
X76117205Y-40590256D01*
X76195226Y-40401898D01*
X76206535Y-40345043D01*
X77095049Y-39456530D01*
X77128817Y-39428817D01*
X77156533Y-39395046D01*
X77239411Y-39294059D01*
X77321589Y-39140314D01*
X77372195Y-38973490D01*
X77385000Y-38843477D01*
X77385000Y-38843469D01*
X77389281Y-38800000D01*
X77385000Y-38756531D01*
X77385000Y-37166578D01*
X78766579Y-35785000D01*
X88861546Y-35785000D01*
X88909744Y-35817205D01*
X89098102Y-35895226D01*
X89298061Y-35935000D01*
X89501939Y-35935000D01*
X89701898Y-35895226D01*
X89890256Y-35817205D01*
X90059774Y-35703937D01*
X90203937Y-35559774D01*
X90317205Y-35390256D01*
X90395226Y-35201898D01*
X90435000Y-35001939D01*
X90435000Y-34798061D01*
X90395226Y-34598102D01*
X90317205Y-34409744D01*
X90203937Y-34240226D01*
X90059774Y-34096063D01*
X89890256Y-33982795D01*
X89701898Y-33904774D01*
X89501939Y-33865000D01*
X89298061Y-33865000D01*
X89098102Y-33904774D01*
X88909744Y-33982795D01*
X88861546Y-34015000D01*
X78443469Y-34015000D01*
X78400000Y-34010719D01*
X78356531Y-34015000D01*
X78356523Y-34015000D01*
X78226510Y-34027805D01*
X78059687Y-34078411D01*
X77905941Y-34160589D01*
X77804953Y-34243468D01*
X77804951Y-34243470D01*
X77771183Y-34271183D01*
X77743470Y-34304951D01*
X75904956Y-36143466D01*
X75871183Y-36171183D01*
X75760589Y-36305942D01*
X75678411Y-36459688D01*
X75627805Y-36626511D01*
X75615000Y-36756524D01*
X75615000Y-36756531D01*
X75610719Y-36800000D01*
X75615000Y-36843469D01*
X75615001Y-38433420D01*
X74954957Y-39093465D01*
X74898102Y-39104774D01*
X74709744Y-39182795D01*
X74661546Y-39215000D01*
X73247621Y-39215000D01*
X73214502Y-39105820D01*
X73155537Y-38995506D01*
X73076185Y-38898815D01*
X72979494Y-38819463D01*
X72869180Y-38760498D01*
X72749482Y-38724188D01*
X72625000Y-38711928D01*
X71375000Y-38711928D01*
X71250518Y-38724188D01*
X71130820Y-38760498D01*
X71020506Y-38819463D01*
X70923815Y-38898815D01*
X70844463Y-38995506D01*
X70785498Y-39105820D01*
X70749188Y-39225518D01*
X70736928Y-39350000D01*
X70736928Y-40288271D01*
X70288998Y-40736201D01*
X70260000Y-40759999D01*
X70236202Y-40788997D01*
X70236201Y-40788998D01*
X70165026Y-40875724D01*
X70094454Y-41007754D01*
X70050998Y-41151015D01*
X70036324Y-41300000D01*
X70040001Y-41337332D01*
X70040001Y-41961928D01*
X68675000Y-41961928D01*
X68550518Y-41974188D01*
X68430820Y-42010498D01*
X68320506Y-42069463D01*
X68223815Y-42148815D01*
X68144463Y-42245506D01*
X68085498Y-42355820D01*
X68049188Y-42475518D01*
X68036928Y-42600000D01*
X68036928Y-42689601D01*
X68003937Y-42640226D01*
X67859774Y-42496063D01*
X67690256Y-42382795D01*
X67501898Y-42304774D01*
X67301939Y-42265000D01*
X67098061Y-42265000D01*
X66898102Y-42304774D01*
X66709744Y-42382795D01*
X66540226Y-42496063D01*
X66396063Y-42640226D01*
X66282795Y-42809744D01*
X66204774Y-42998102D01*
X66165000Y-43198061D01*
X66165000Y-43401939D01*
X66204774Y-43601898D01*
X66282795Y-43790256D01*
X66396063Y-43959774D01*
X66540226Y-44103937D01*
X66709744Y-44217205D01*
X66898102Y-44295226D01*
X67098061Y-44335000D01*
X67144505Y-44335000D01*
X67169454Y-44417247D01*
X67240026Y-44549276D01*
X67334999Y-44665001D01*
X67450724Y-44759974D01*
X67582753Y-44830546D01*
X67726014Y-44874003D01*
X67837667Y-44885000D01*
X67875000Y-44888677D01*
X67912333Y-44885000D01*
X68036928Y-44885000D01*
X68036928Y-45000000D01*
X68046777Y-45100000D01*
X68036928Y-45200000D01*
X68036928Y-45214999D01*
X66127000Y-45214999D01*
X66127000Y-29127000D01*
X120873000Y-29127000D01*
X120873000Y-95873000D01*
%TA.AperFunction,Conductor*%
D34*
G36*
X120873000Y-95873000D02*
G01*
X76127000Y-95873000D01*
X76127000Y-93437196D01*
X111142409Y-93437196D01*
X111728124Y-94119416D01*
X112711704Y-94667045D01*
X113783223Y-95012265D01*
X114901501Y-95141808D01*
X116023565Y-95050697D01*
X117106294Y-94742433D01*
X118108079Y-94228863D01*
X118271876Y-94119416D01*
X118857591Y-93437196D01*
X115000000Y-89579605D01*
X111142409Y-93437196D01*
X76127000Y-93437196D01*
X76127000Y-89301501D01*
X109258192Y-89301501D01*
X109349303Y-90423565D01*
X109657567Y-91506294D01*
X110171137Y-92508079D01*
X110280584Y-92671876D01*
X110962804Y-93257591D01*
X114820395Y-89400000D01*
X115179605Y-89400000D01*
X119037196Y-93257591D01*
X119719416Y-92671876D01*
X120267045Y-91688296D01*
X120612265Y-90616777D01*
X120741808Y-89498499D01*
X120650697Y-88376435D01*
X120342433Y-87293706D01*
X119828863Y-86291921D01*
X119719416Y-86128124D01*
X119037196Y-85542409D01*
X115179605Y-89400000D01*
X114820395Y-89400000D01*
X110962804Y-85542409D01*
X110280584Y-86128124D01*
X109732955Y-87111704D01*
X109387735Y-88183223D01*
X109258192Y-89301501D01*
X76127000Y-89301501D01*
X76127000Y-88000000D01*
X78736928Y-88000000D01*
X78749188Y-88124482D01*
X78785498Y-88244180D01*
X78844463Y-88354494D01*
X78923815Y-88451185D01*
X79020506Y-88530537D01*
X79130820Y-88589502D01*
X79250518Y-88625812D01*
X79375000Y-88638072D01*
X79714250Y-88635000D01*
X79873000Y-88476250D01*
X79873000Y-87377000D01*
X78898750Y-87377000D01*
X78740000Y-87535750D01*
X78736928Y-88000000D01*
X76127000Y-88000000D01*
X76127000Y-56000000D01*
X76124560Y-55975224D01*
X76117333Y-55951399D01*
X76105597Y-55929443D01*
X76089803Y-55910197D01*
X76070557Y-55894403D01*
X76048601Y-55882667D01*
X76024776Y-55875440D01*
X76000000Y-55873000D01*
X66127000Y-55873000D01*
X66127000Y-54245927D01*
X66225518Y-54275812D01*
X66350000Y-54288072D01*
X68050000Y-54288072D01*
X68174482Y-54275812D01*
X68294180Y-54239502D01*
X68404494Y-54180537D01*
X68501185Y-54101185D01*
X68580537Y-54004494D01*
X68639502Y-53894180D01*
X68675812Y-53774482D01*
X68688072Y-53650000D01*
X68688072Y-52125000D01*
X72861928Y-52125000D01*
X72874188Y-52249482D01*
X72910498Y-52369180D01*
X72969463Y-52479494D01*
X73048815Y-52576185D01*
X73145506Y-52655537D01*
X73255820Y-52714502D01*
X73375518Y-52750812D01*
X73500000Y-52763072D01*
X73964250Y-52760000D01*
X74123000Y-52601250D01*
X74123000Y-51627000D01*
X73023750Y-51627000D01*
X72865000Y-51785750D01*
X72861928Y-52125000D01*
X68688072Y-52125000D01*
X68688072Y-51950000D01*
X68675812Y-51825518D01*
X68639502Y-51705820D01*
X68580537Y-51595506D01*
X68501185Y-51498815D01*
X68404494Y-51419463D01*
X68294180Y-51360498D01*
X68174482Y-51324188D01*
X68050000Y-51311928D01*
X67960000Y-51311928D01*
X67960000Y-50875000D01*
X72861928Y-50875000D01*
X72865000Y-51214250D01*
X73023750Y-51373000D01*
X74123000Y-51373000D01*
X74123000Y-50398750D01*
X73964250Y-50240000D01*
X73500000Y-50236928D01*
X73375518Y-50249188D01*
X73255820Y-50285498D01*
X73145506Y-50344463D01*
X73048815Y-50423815D01*
X72969463Y-50520506D01*
X72910498Y-50630820D01*
X72874188Y-50750518D01*
X72861928Y-50875000D01*
X67960000Y-50875000D01*
X67960000Y-49414801D01*
X68136445Y-49238356D01*
X68149228Y-49261524D01*
X68229861Y-49357151D01*
X68327600Y-49435209D01*
X68438689Y-49492700D01*
X68558860Y-49527413D01*
X68683493Y-49538015D01*
X69264250Y-49535000D01*
X69423000Y-49376250D01*
X69423000Y-48888072D01*
X69677000Y-48888072D01*
X69677000Y-49376250D01*
X69835750Y-49535000D01*
X70272027Y-49537265D01*
X70304774Y-49701898D01*
X70382795Y-49890256D01*
X70496063Y-50059774D01*
X70640226Y-50203937D01*
X70809744Y-50317205D01*
X70998102Y-50395226D01*
X71198061Y-50435000D01*
X71401939Y-50435000D01*
X71601898Y-50395226D01*
X71790256Y-50317205D01*
X71959774Y-50203937D01*
X72103937Y-50059774D01*
X72212033Y-49897997D01*
X72398061Y-49935000D01*
X72601939Y-49935000D01*
X72801898Y-49895226D01*
X72990256Y-49817205D01*
X73159774Y-49703937D01*
X73303937Y-49559774D01*
X73417205Y-49390256D01*
X73417807Y-49388803D01*
X73443604Y-49409974D01*
X73575633Y-49480546D01*
X73718894Y-49524003D01*
X73830547Y-49535000D01*
X73830556Y-49535000D01*
X73867879Y-49538676D01*
X73905202Y-49535000D01*
X74440000Y-49535000D01*
X74440000Y-49552002D01*
X74569748Y-49552002D01*
X74440000Y-49681750D01*
X74451156Y-49783996D01*
X74489285Y-49903127D01*
X74549922Y-50012531D01*
X74630737Y-50108003D01*
X74728625Y-50185874D01*
X74829928Y-50238053D01*
X74535750Y-50240000D01*
X74377000Y-50398750D01*
X74377000Y-51373000D01*
X74397000Y-51373000D01*
X74397000Y-51627000D01*
X74377000Y-51627000D01*
X74377000Y-52601250D01*
X74535750Y-52760000D01*
X75000000Y-52763072D01*
X75124482Y-52750812D01*
X75244180Y-52714502D01*
X75354494Y-52655537D01*
X75451185Y-52576185D01*
X75500000Y-52516704D01*
X75548815Y-52576185D01*
X75645506Y-52655537D01*
X75755820Y-52714502D01*
X75875518Y-52750812D01*
X76000000Y-52763072D01*
X77500000Y-52763072D01*
X77624482Y-52750812D01*
X77744180Y-52714502D01*
X77854494Y-52655537D01*
X77875000Y-52638708D01*
X77895506Y-52655537D01*
X78005820Y-52714502D01*
X78125518Y-52750812D01*
X78250000Y-52763072D01*
X78714250Y-52760000D01*
X78873000Y-52601250D01*
X78873000Y-51627000D01*
X78853000Y-51627000D01*
X78853000Y-51373000D01*
X78873000Y-51373000D01*
X78873000Y-50398750D01*
X78714250Y-50240000D01*
X78535982Y-50238820D01*
X78714803Y-50060000D01*
X78762678Y-50060000D01*
X78800000Y-50063676D01*
X78837322Y-50060000D01*
X78837333Y-50060000D01*
X78948986Y-50049003D01*
X78974611Y-50041230D01*
X79023815Y-50101185D01*
X79120506Y-50180537D01*
X79230820Y-50239502D01*
X79273347Y-50252403D01*
X79127000Y-50398750D01*
X79127000Y-51373000D01*
X79147000Y-51373000D01*
X79147000Y-51627000D01*
X79127000Y-51627000D01*
X79127000Y-52601250D01*
X79285750Y-52760000D01*
X79750000Y-52763072D01*
X79874482Y-52750812D01*
X79994180Y-52714502D01*
X80104494Y-52655537D01*
X80201185Y-52576185D01*
X80250000Y-52516704D01*
X80298815Y-52576185D01*
X80395506Y-52655537D01*
X80398490Y-52657132D01*
X80340226Y-52696063D01*
X80196063Y-52840226D01*
X80082795Y-53009744D01*
X80004774Y-53198102D01*
X79965000Y-53398061D01*
X79965000Y-53601939D01*
X80004774Y-53801898D01*
X80082795Y-53990256D01*
X80196063Y-54159774D01*
X80340226Y-54303937D01*
X80509744Y-54417205D01*
X80698102Y-54495226D01*
X80898061Y-54535000D01*
X81101939Y-54535000D01*
X81301898Y-54495226D01*
X81490256Y-54417205D01*
X81659774Y-54303937D01*
X81803937Y-54159774D01*
X81805643Y-54157221D01*
X84371645Y-56723224D01*
X83836860Y-57258009D01*
X83793552Y-57293551D01*
X83651717Y-57466377D01*
X83595384Y-57571770D01*
X83546324Y-57663554D01*
X83481423Y-57877502D01*
X83459509Y-58100000D01*
X83465001Y-58155762D01*
X83465000Y-78944249D01*
X83459509Y-79000000D01*
X83465000Y-79055751D01*
X83481423Y-79222498D01*
X83546324Y-79436446D01*
X83651716Y-79633623D01*
X83793551Y-79806449D01*
X83836865Y-79841996D01*
X85118008Y-81123140D01*
X85153551Y-81166449D01*
X85326377Y-81308284D01*
X85523553Y-81413676D01*
X85737501Y-81478577D01*
X85904248Y-81495000D01*
X85904257Y-81495000D01*
X85959999Y-81500490D01*
X86015741Y-81495000D01*
X86790640Y-81495000D01*
X86941637Y-81720983D01*
X87239017Y-82018363D01*
X87465001Y-82169360D01*
X87465001Y-82929867D01*
X86779869Y-83615000D01*
X81130501Y-83615000D01*
X81076185Y-83548815D01*
X80979494Y-83469463D01*
X80869180Y-83410498D01*
X80749482Y-83374188D01*
X80625000Y-83361928D01*
X79375000Y-83361928D01*
X79250518Y-83374188D01*
X79130820Y-83410498D01*
X79020506Y-83469463D01*
X78923815Y-83548815D01*
X78844463Y-83645506D01*
X78785498Y-83755820D01*
X78749188Y-83875518D01*
X78736928Y-84000000D01*
X78736928Y-85500000D01*
X78749188Y-85624482D01*
X78785498Y-85744180D01*
X78844463Y-85854494D01*
X78923815Y-85951185D01*
X78983296Y-86000000D01*
X78923815Y-86048815D01*
X78844463Y-86145506D01*
X78785498Y-86255820D01*
X78749188Y-86375518D01*
X78736928Y-86500000D01*
X78740000Y-86964250D01*
X78898750Y-87123000D01*
X79873000Y-87123000D01*
X79873000Y-87103000D01*
X80127000Y-87103000D01*
X80127000Y-87123000D01*
X80147000Y-87123000D01*
X80147000Y-87377000D01*
X80127000Y-87377000D01*
X80127000Y-88476250D01*
X80285750Y-88635000D01*
X80625000Y-88638072D01*
X80749482Y-88625812D01*
X80869180Y-88589502D01*
X80979494Y-88530537D01*
X81076185Y-88451185D01*
X81155537Y-88354494D01*
X81214502Y-88244180D01*
X81250812Y-88124482D01*
X81263072Y-88000000D01*
X81262730Y-87948356D01*
X81319463Y-88054494D01*
X81398815Y-88151185D01*
X81495506Y-88230537D01*
X81605820Y-88289502D01*
X81725518Y-88325812D01*
X81850000Y-88338072D01*
X83314250Y-88335000D01*
X83473000Y-88176250D01*
X83473000Y-87027000D01*
X83727000Y-87027000D01*
X83727000Y-88176250D01*
X83885750Y-88335000D01*
X85350000Y-88338072D01*
X85474482Y-88325812D01*
X85594180Y-88289502D01*
X85704494Y-88230537D01*
X85801185Y-88151185D01*
X85880537Y-88054494D01*
X85939502Y-87944180D01*
X85975812Y-87824482D01*
X85988072Y-87700000D01*
X85985000Y-87185750D01*
X85826250Y-87027000D01*
X83727000Y-87027000D01*
X83473000Y-87027000D01*
X83453000Y-87027000D01*
X83453000Y-86773000D01*
X83473000Y-86773000D01*
X83473000Y-86753000D01*
X83727000Y-86753000D01*
X83727000Y-86773000D01*
X85826250Y-86773000D01*
X85985000Y-86614250D01*
X85988072Y-86100000D01*
X85975812Y-85975518D01*
X85948354Y-85885000D01*
X86651646Y-85885000D01*
X86624188Y-85975518D01*
X86611928Y-86100000D01*
X86611928Y-87700000D01*
X86624188Y-87824482D01*
X86660498Y-87944180D01*
X86719463Y-88054494D01*
X86798815Y-88151185D01*
X86895506Y-88230537D01*
X87005820Y-88289502D01*
X87125518Y-88325812D01*
X87250000Y-88338072D01*
X90750000Y-88338072D01*
X90874482Y-88325812D01*
X90994180Y-88289502D01*
X91104494Y-88230537D01*
X91201185Y-88151185D01*
X91280537Y-88054494D01*
X91339502Y-87944180D01*
X91375812Y-87824482D01*
X91388072Y-87700000D01*
X91388072Y-86100000D01*
X91375812Y-85975518D01*
X91339502Y-85855820D01*
X91280537Y-85745506D01*
X91201185Y-85648815D01*
X91104494Y-85569463D01*
X90994180Y-85510498D01*
X90874482Y-85474188D01*
X90750000Y-85461928D01*
X89735000Y-85461928D01*
X89735000Y-85362804D01*
X111142409Y-85362804D01*
X115000000Y-89220395D01*
X118857591Y-85362804D01*
X118271876Y-84680584D01*
X117288296Y-84132955D01*
X116216777Y-83787735D01*
X115098499Y-83658192D01*
X113976435Y-83749303D01*
X112893706Y-84057567D01*
X111891921Y-84571137D01*
X111728124Y-84680584D01*
X111142409Y-85362804D01*
X89735000Y-85362804D01*
X89735000Y-83455743D01*
X89740490Y-83400001D01*
X89735000Y-83344259D01*
X89735000Y-82169360D01*
X89960983Y-82018363D01*
X90258363Y-81720983D01*
X90492012Y-81371302D01*
X90652953Y-80982756D01*
X90735000Y-80570279D01*
X90735000Y-80149721D01*
X90652953Y-79737244D01*
X90492012Y-79348698D01*
X90258363Y-78999017D01*
X89960983Y-78701637D01*
X89611302Y-78467988D01*
X89222756Y-78307047D01*
X88810279Y-78225000D01*
X88389721Y-78225000D01*
X87977244Y-78307047D01*
X87588698Y-78467988D01*
X87239017Y-78701637D01*
X86941637Y-78999017D01*
X86790640Y-79225000D01*
X86430132Y-79225000D01*
X85735000Y-78529869D01*
X85735000Y-69989721D01*
X86465000Y-69989721D01*
X86465000Y-70410279D01*
X86547047Y-70822756D01*
X86707988Y-71211302D01*
X86941637Y-71560983D01*
X87239017Y-71858363D01*
X87588698Y-72092012D01*
X87977244Y-72252953D01*
X88389721Y-72335000D01*
X88810279Y-72335000D01*
X89222756Y-72252953D01*
X89611302Y-72092012D01*
X89960983Y-71858363D01*
X90258363Y-71560983D01*
X90492012Y-71211302D01*
X90652953Y-70822756D01*
X90735000Y-70410279D01*
X90735000Y-69989721D01*
X90652953Y-69577244D01*
X90492012Y-69188698D01*
X90258363Y-68839017D01*
X89960983Y-68541637D01*
X89611302Y-68307988D01*
X89222756Y-68147047D01*
X88810279Y-68065000D01*
X88389721Y-68065000D01*
X87977244Y-68147047D01*
X87588698Y-68307988D01*
X87239017Y-68541637D01*
X86941637Y-68839017D01*
X86707988Y-69188698D01*
X86547047Y-69577244D01*
X86465000Y-69989721D01*
X85735000Y-69989721D01*
X85735000Y-61531653D01*
X87287952Y-61531653D01*
X87443962Y-61847214D01*
X87818745Y-62038020D01*
X88223551Y-62152044D01*
X88642824Y-62184902D01*
X89060451Y-62135334D01*
X89460383Y-62005243D01*
X89756038Y-61847214D01*
X89780338Y-61798061D01*
X92565000Y-61798061D01*
X92565000Y-62001939D01*
X92604774Y-62201898D01*
X92682795Y-62390256D01*
X92796063Y-62559774D01*
X92813449Y-62577160D01*
X92804774Y-62598102D01*
X92765000Y-62798061D01*
X92765000Y-63001939D01*
X92804774Y-63201898D01*
X92882795Y-63390256D01*
X92996063Y-63559774D01*
X93140226Y-63703937D01*
X93143009Y-63705796D01*
X93104774Y-63798102D01*
X93065000Y-63998061D01*
X93065000Y-64201939D01*
X93104774Y-64401898D01*
X93182795Y-64590256D01*
X93296063Y-64759774D01*
X93440226Y-64903937D01*
X93609744Y-65017205D01*
X93798102Y-65095226D01*
X93991196Y-65133634D01*
X94004774Y-65201898D01*
X94082795Y-65390256D01*
X94196063Y-65559774D01*
X94340226Y-65703937D01*
X94509744Y-65817205D01*
X94698102Y-65895226D01*
X94891503Y-65933696D01*
X94489003Y-66336196D01*
X94459999Y-66359999D01*
X94407627Y-66423815D01*
X94365026Y-66475724D01*
X94332569Y-66536446D01*
X94294454Y-66607754D01*
X94250997Y-66751015D01*
X94240000Y-66862668D01*
X94240000Y-66862678D01*
X94236324Y-66900000D01*
X94240000Y-66937323D01*
X94240001Y-70011928D01*
X94150000Y-70011928D01*
X94025518Y-70024188D01*
X93905820Y-70060498D01*
X93795506Y-70119463D01*
X93698815Y-70198815D01*
X93619463Y-70295506D01*
X93560498Y-70405820D01*
X93524188Y-70525518D01*
X93511928Y-70650000D01*
X93511928Y-72350000D01*
X93524188Y-72474482D01*
X93560498Y-72594180D01*
X93619463Y-72704494D01*
X93698815Y-72801185D01*
X93795506Y-72880537D01*
X93905820Y-72939502D01*
X94025518Y-72975812D01*
X94115001Y-72984625D01*
X94115001Y-73111928D01*
X93375000Y-73111928D01*
X93250518Y-73124188D01*
X93130820Y-73160498D01*
X93020506Y-73219463D01*
X92923815Y-73298815D01*
X92844463Y-73395506D01*
X92785498Y-73505820D01*
X92749188Y-73625518D01*
X92736928Y-73750000D01*
X92736928Y-75250000D01*
X92749188Y-75374482D01*
X92785498Y-75494180D01*
X92844463Y-75604494D01*
X92923815Y-75701185D01*
X92983296Y-75750000D01*
X92923815Y-75798815D01*
X92844463Y-75895506D01*
X92785498Y-76005820D01*
X92749188Y-76125518D01*
X92736928Y-76250000D01*
X92736928Y-77750000D01*
X92749188Y-77874482D01*
X92785498Y-77994180D01*
X92844463Y-78104494D01*
X92923815Y-78201185D01*
X93020506Y-78280537D01*
X93115001Y-78331046D01*
X93115001Y-79256521D01*
X93110719Y-79300000D01*
X93127805Y-79473490D01*
X93178412Y-79640313D01*
X93260590Y-79794059D01*
X93343468Y-79895046D01*
X93343471Y-79895049D01*
X93371184Y-79928817D01*
X93404951Y-79956529D01*
X93511928Y-80063506D01*
X93511928Y-81150000D01*
X93524188Y-81274482D01*
X93560498Y-81394180D01*
X93619463Y-81504494D01*
X93698815Y-81601185D01*
X93795506Y-81680537D01*
X93905820Y-81739502D01*
X94025518Y-81775812D01*
X94150000Y-81788072D01*
X95850000Y-81788072D01*
X95974482Y-81775812D01*
X96094180Y-81739502D01*
X96204494Y-81680537D01*
X96301185Y-81601185D01*
X96380537Y-81504494D01*
X96439502Y-81394180D01*
X96475812Y-81274482D01*
X96488072Y-81150000D01*
X96488072Y-79450000D01*
X96475812Y-79325518D01*
X96439502Y-79205820D01*
X96380537Y-79095506D01*
X96301185Y-78998815D01*
X96204494Y-78919463D01*
X96094180Y-78860498D01*
X95974482Y-78824188D01*
X95850000Y-78811928D01*
X94885000Y-78811928D01*
X94885000Y-78331046D01*
X94979494Y-78280537D01*
X95000000Y-78263708D01*
X95020506Y-78280537D01*
X95130820Y-78339502D01*
X95250518Y-78375812D01*
X95375000Y-78388072D01*
X95714250Y-78385000D01*
X95873000Y-78226250D01*
X95873000Y-77127000D01*
X96127000Y-77127000D01*
X96127000Y-78226250D01*
X96285750Y-78385000D01*
X96625000Y-78388072D01*
X96749482Y-78375812D01*
X96869180Y-78339502D01*
X96979494Y-78280537D01*
X97076185Y-78201185D01*
X97155537Y-78104494D01*
X97200000Y-78021311D01*
X97244463Y-78104494D01*
X97323815Y-78201185D01*
X97420506Y-78280537D01*
X97530820Y-78339502D01*
X97650518Y-78375812D01*
X97775000Y-78388072D01*
X98114250Y-78385000D01*
X98273000Y-78226250D01*
X98273000Y-77127000D01*
X97298750Y-77127000D01*
X97200000Y-77225750D01*
X97101250Y-77127000D01*
X96127000Y-77127000D01*
X95873000Y-77127000D01*
X95853000Y-77127000D01*
X95853000Y-76873000D01*
X95873000Y-76873000D01*
X95873000Y-76853000D01*
X96127000Y-76853000D01*
X96127000Y-76873000D01*
X97101250Y-76873000D01*
X97200000Y-76774250D01*
X97298750Y-76873000D01*
X98273000Y-76873000D01*
X98273000Y-76853000D01*
X98527000Y-76853000D01*
X98527000Y-76873000D01*
X98547000Y-76873000D01*
X98547000Y-77127000D01*
X98527000Y-77127000D01*
X98527000Y-78226250D01*
X98685750Y-78385000D01*
X99025000Y-78388072D01*
X99149482Y-78375812D01*
X99269180Y-78339502D01*
X99379494Y-78280537D01*
X99476185Y-78201185D01*
X99525000Y-78141704D01*
X99573815Y-78201185D01*
X99670506Y-78280537D01*
X99765001Y-78331046D01*
X99765001Y-78611928D01*
X98750000Y-78611928D01*
X98625518Y-78624188D01*
X98505820Y-78660498D01*
X98395506Y-78719463D01*
X98298815Y-78798815D01*
X98219463Y-78895506D01*
X98160498Y-79005820D01*
X98124188Y-79125518D01*
X98111928Y-79250000D01*
X98111928Y-80950000D01*
X98124188Y-81074482D01*
X98160498Y-81194180D01*
X98219463Y-81304494D01*
X98298815Y-81401185D01*
X98395506Y-81480537D01*
X98505820Y-81539502D01*
X98625518Y-81575812D01*
X98750000Y-81588072D01*
X100450000Y-81588072D01*
X100574482Y-81575812D01*
X100694180Y-81539502D01*
X100804494Y-81480537D01*
X100901185Y-81401185D01*
X100980537Y-81304494D01*
X101039502Y-81194180D01*
X101075812Y-81074482D01*
X101088072Y-80950000D01*
X101088072Y-79863507D01*
X101245049Y-79706530D01*
X101278817Y-79678817D01*
X101306533Y-79645046D01*
X101389410Y-79544060D01*
X101389411Y-79544059D01*
X101471589Y-79390313D01*
X101522195Y-79223490D01*
X101535000Y-79093477D01*
X101535000Y-79093467D01*
X101539281Y-79050001D01*
X101535000Y-79006535D01*
X101535000Y-78331046D01*
X101629494Y-78280537D01*
X101726185Y-78201185D01*
X101794393Y-78118073D01*
X101870506Y-78180537D01*
X101965001Y-78231046D01*
X101965001Y-79006521D01*
X101960719Y-79050000D01*
X101977805Y-79223490D01*
X102028412Y-79390313D01*
X102110590Y-79544059D01*
X102193468Y-79645046D01*
X102193469Y-79645047D01*
X102211928Y-79667539D01*
X102211928Y-80750000D01*
X102224188Y-80874482D01*
X102260498Y-80994180D01*
X102319463Y-81104494D01*
X102398815Y-81201185D01*
X102495506Y-81280537D01*
X102605820Y-81339502D01*
X102725518Y-81375812D01*
X102850000Y-81388072D01*
X104550000Y-81388072D01*
X104674482Y-81375812D01*
X104794180Y-81339502D01*
X104904494Y-81280537D01*
X105001185Y-81201185D01*
X105080537Y-81104494D01*
X105139502Y-80994180D01*
X105175812Y-80874482D01*
X105188072Y-80750000D01*
X105188072Y-79050000D01*
X105175812Y-78925518D01*
X105139502Y-78805820D01*
X105080537Y-78695506D01*
X105001185Y-78598815D01*
X104904494Y-78519463D01*
X104794180Y-78460498D01*
X104674482Y-78424188D01*
X104550000Y-78411928D01*
X103735000Y-78411928D01*
X103735000Y-78231046D01*
X103829494Y-78180537D01*
X103850000Y-78163708D01*
X103870506Y-78180537D01*
X103980820Y-78239502D01*
X104100518Y-78275812D01*
X104225000Y-78288072D01*
X104564250Y-78285000D01*
X104723000Y-78126250D01*
X104723000Y-77027000D01*
X104977000Y-77027000D01*
X104977000Y-78126250D01*
X105135750Y-78285000D01*
X105475000Y-78288072D01*
X105599482Y-78275812D01*
X105719180Y-78239502D01*
X105829494Y-78180537D01*
X105926185Y-78101185D01*
X106005537Y-78004494D01*
X106064502Y-77894180D01*
X106100000Y-77777159D01*
X106135498Y-77894180D01*
X106194463Y-78004494D01*
X106273815Y-78101185D01*
X106370506Y-78180537D01*
X106480820Y-78239502D01*
X106600518Y-78275812D01*
X106725000Y-78288072D01*
X107064250Y-78285000D01*
X107223000Y-78126250D01*
X107223000Y-77027000D01*
X106248750Y-77027000D01*
X106100000Y-77175750D01*
X105951250Y-77027000D01*
X104977000Y-77027000D01*
X104723000Y-77027000D01*
X104703000Y-77027000D01*
X104703000Y-76773000D01*
X104723000Y-76773000D01*
X104723000Y-76753000D01*
X104977000Y-76753000D01*
X104977000Y-76773000D01*
X105951250Y-76773000D01*
X106100000Y-76624250D01*
X106248750Y-76773000D01*
X107223000Y-76773000D01*
X107223000Y-76753000D01*
X107477000Y-76753000D01*
X107477000Y-76773000D01*
X107497000Y-76773000D01*
X107497000Y-77027000D01*
X107477000Y-77027000D01*
X107477000Y-78126250D01*
X107635750Y-78285000D01*
X107975000Y-78288072D01*
X108099482Y-78275812D01*
X108219180Y-78239502D01*
X108329494Y-78180537D01*
X108350000Y-78163708D01*
X108369066Y-78179355D01*
X108136494Y-78411928D01*
X107650000Y-78411928D01*
X107525518Y-78424188D01*
X107405820Y-78460498D01*
X107295506Y-78519463D01*
X107198815Y-78598815D01*
X107119463Y-78695506D01*
X107060498Y-78805820D01*
X107024188Y-78925518D01*
X107011928Y-79050000D01*
X107011928Y-80750000D01*
X107024188Y-80874482D01*
X107060498Y-80994180D01*
X107119463Y-81104494D01*
X107198815Y-81201185D01*
X107295506Y-81280537D01*
X107405820Y-81339502D01*
X107525518Y-81375812D01*
X107650000Y-81388072D01*
X109350000Y-81388072D01*
X109474482Y-81375812D01*
X109594180Y-81339502D01*
X109704494Y-81280537D01*
X109801185Y-81201185D01*
X109880537Y-81104494D01*
X109939502Y-80994180D01*
X109975812Y-80874482D01*
X109988072Y-80750000D01*
X109988072Y-79067540D01*
X110089411Y-78944059D01*
X110125516Y-78876511D01*
X110171589Y-78790314D01*
X110222195Y-78623490D01*
X110228390Y-78560589D01*
X110235000Y-78493477D01*
X110235000Y-78493469D01*
X110239281Y-78450000D01*
X110235000Y-78406531D01*
X110235000Y-78231046D01*
X110329494Y-78180537D01*
X110426185Y-78101185D01*
X110505537Y-78004494D01*
X110564502Y-77894180D01*
X110600812Y-77774482D01*
X110601886Y-77763581D01*
X110740313Y-77721589D01*
X110894059Y-77639411D01*
X111028817Y-77528817D01*
X111056534Y-77495044D01*
X111495044Y-77056534D01*
X111528817Y-77028817D01*
X111639411Y-76894059D01*
X111721589Y-76740313D01*
X111772195Y-76573490D01*
X111785000Y-76443477D01*
X111785000Y-76443469D01*
X111789281Y-76400000D01*
X111785000Y-76356531D01*
X111785000Y-72866578D01*
X112446579Y-72205000D01*
X112905344Y-72205000D01*
X112946525Y-72266632D01*
X113153368Y-72473475D01*
X113327760Y-72590000D01*
X113153368Y-72706525D01*
X112946525Y-72913368D01*
X112784010Y-73156589D01*
X112672068Y-73426842D01*
X112615000Y-73713740D01*
X112615000Y-74006260D01*
X112672068Y-74293158D01*
X112784010Y-74563411D01*
X112946525Y-74806632D01*
X113078380Y-74938487D01*
X113005820Y-74960498D01*
X112895506Y-75019463D01*
X112798815Y-75098815D01*
X112719463Y-75195506D01*
X112660498Y-75305820D01*
X112624188Y-75425518D01*
X112611928Y-75550000D01*
X112611928Y-77250000D01*
X112624188Y-77374482D01*
X112660498Y-77494180D01*
X112719463Y-77604494D01*
X112798815Y-77701185D01*
X112895506Y-77780537D01*
X113005820Y-77839502D01*
X113125518Y-77875812D01*
X113250000Y-77888072D01*
X114950000Y-77888072D01*
X115074482Y-77875812D01*
X115194180Y-77839502D01*
X115304494Y-77780537D01*
X115401185Y-77701185D01*
X115480537Y-77604494D01*
X115539502Y-77494180D01*
X115575812Y-77374482D01*
X115588072Y-77250000D01*
X115588072Y-75550000D01*
X115575812Y-75425518D01*
X115539502Y-75305820D01*
X115480537Y-75195506D01*
X115401185Y-75098815D01*
X115304494Y-75019463D01*
X115194180Y-74960498D01*
X115121620Y-74938487D01*
X115253475Y-74806632D01*
X115415990Y-74563411D01*
X115527932Y-74293158D01*
X115585000Y-74006260D01*
X115585000Y-73713740D01*
X115527932Y-73426842D01*
X115415990Y-73156589D01*
X115253475Y-72913368D01*
X115046632Y-72706525D01*
X114872240Y-72590000D01*
X115046632Y-72473475D01*
X115253475Y-72266632D01*
X115415990Y-72023411D01*
X115527932Y-71753158D01*
X115585000Y-71466260D01*
X115585000Y-71173740D01*
X115527932Y-70886842D01*
X115415990Y-70616589D01*
X115253475Y-70373368D01*
X115046632Y-70166525D01*
X114864466Y-70044805D01*
X114981355Y-69975178D01*
X115197588Y-69780269D01*
X115371641Y-69546920D01*
X115496825Y-69284099D01*
X115541476Y-69136890D01*
X115420155Y-68907000D01*
X114227000Y-68907000D01*
X114227000Y-68927000D01*
X113973000Y-68927000D01*
X113973000Y-68907000D01*
X112779845Y-68907000D01*
X112658524Y-69136890D01*
X112703175Y-69284099D01*
X112828359Y-69546920D01*
X113002412Y-69780269D01*
X113218645Y-69975178D01*
X113335534Y-70044805D01*
X113153368Y-70166525D01*
X112946525Y-70373368D01*
X112905344Y-70435000D01*
X112123466Y-70435000D01*
X112079999Y-70430719D01*
X112036533Y-70435000D01*
X112036523Y-70435000D01*
X111906510Y-70447805D01*
X111739687Y-70498411D01*
X111585941Y-70580589D01*
X111585939Y-70580590D01*
X111585940Y-70580590D01*
X111484953Y-70663468D01*
X111484951Y-70663470D01*
X111451183Y-70691183D01*
X111423470Y-70724951D01*
X110304956Y-71843466D01*
X110271183Y-71871183D01*
X110160589Y-72005942D01*
X110078411Y-72159688D01*
X110027805Y-72326511D01*
X110015000Y-72456524D01*
X110015000Y-72456531D01*
X110010719Y-72500000D01*
X110015000Y-72543469D01*
X110015000Y-73015868D01*
X109975000Y-73011928D01*
X109213506Y-73011928D01*
X109076713Y-72875135D01*
X109194180Y-72839502D01*
X109304494Y-72780537D01*
X109401185Y-72701185D01*
X109480537Y-72604494D01*
X109539502Y-72494180D01*
X109575812Y-72374482D01*
X109588072Y-72250000D01*
X109588072Y-70550000D01*
X109575812Y-70425518D01*
X109539502Y-70305820D01*
X109480537Y-70195506D01*
X109401185Y-70098815D01*
X109304494Y-70019463D01*
X109194180Y-69960498D01*
X109074482Y-69924188D01*
X108950000Y-69911928D01*
X108860000Y-69911928D01*
X108860000Y-68423110D01*
X112658524Y-68423110D01*
X112779845Y-68653000D01*
X113973000Y-68653000D01*
X113973000Y-67459186D01*
X114227000Y-67459186D01*
X114227000Y-68653000D01*
X115420155Y-68653000D01*
X115541476Y-68423110D01*
X115496825Y-68275901D01*
X115371641Y-68013080D01*
X115197588Y-67779731D01*
X114981355Y-67584822D01*
X114731252Y-67435843D01*
X114456891Y-67338519D01*
X114227000Y-67459186D01*
X113973000Y-67459186D01*
X113743109Y-67338519D01*
X113468748Y-67435843D01*
X113218645Y-67584822D01*
X113002412Y-67779731D01*
X112828359Y-68013080D01*
X112703175Y-68275901D01*
X112658524Y-68423110D01*
X108860000Y-68423110D01*
X108860000Y-68137322D01*
X108863676Y-68099999D01*
X108860000Y-68062676D01*
X108860000Y-68062667D01*
X108849003Y-67951014D01*
X108805546Y-67807753D01*
X108790568Y-67779731D01*
X108734974Y-67675723D01*
X108663799Y-67588997D01*
X108640001Y-67559999D01*
X108611004Y-67536202D01*
X105588803Y-64514002D01*
X105565000Y-64484998D01*
X105449275Y-64390025D01*
X105317246Y-64319453D01*
X105232533Y-64293756D01*
X105228223Y-64250000D01*
X105238072Y-64150000D01*
X105238072Y-63850000D01*
X105228223Y-63750000D01*
X105238072Y-63650000D01*
X105238072Y-63350000D01*
X105225812Y-63225518D01*
X105189502Y-63105820D01*
X105130537Y-62995506D01*
X105051185Y-62898815D01*
X104954494Y-62819463D01*
X104844180Y-62760498D01*
X104724482Y-62724188D01*
X104600000Y-62711928D01*
X103200000Y-62711928D01*
X103075518Y-62724188D01*
X103023393Y-62740000D01*
X102514802Y-62740000D01*
X101411086Y-61636284D01*
X101814250Y-61635000D01*
X101973000Y-61476250D01*
X101973000Y-59127000D01*
X102227000Y-59127000D01*
X102227000Y-61476250D01*
X102385750Y-61635000D01*
X103350000Y-61638072D01*
X103474482Y-61625812D01*
X103594180Y-61589502D01*
X103704494Y-61530537D01*
X103801185Y-61451185D01*
X103880537Y-61354494D01*
X103939502Y-61244180D01*
X103975812Y-61124482D01*
X103988072Y-61000000D01*
X103985000Y-59285750D01*
X103826250Y-59127000D01*
X102227000Y-59127000D01*
X101973000Y-59127000D01*
X100373750Y-59127000D01*
X100215000Y-59285750D01*
X100211928Y-61000000D01*
X100224188Y-61124482D01*
X100228895Y-61140000D01*
X94303711Y-61140000D01*
X94259774Y-61096063D01*
X94090256Y-60982795D01*
X93901898Y-60904774D01*
X93701939Y-60865000D01*
X93498061Y-60865000D01*
X93298102Y-60904774D01*
X93109744Y-60982795D01*
X92940226Y-61096063D01*
X92796063Y-61240226D01*
X92682795Y-61409744D01*
X92604774Y-61598102D01*
X92565000Y-61798061D01*
X89780338Y-61798061D01*
X89912048Y-61531653D01*
X88600000Y-60219605D01*
X87287952Y-61531653D01*
X85735000Y-61531653D01*
X85735000Y-60082824D01*
X86455098Y-60082824D01*
X86504666Y-60500451D01*
X86634757Y-60900383D01*
X86792786Y-61196038D01*
X87108347Y-61352048D01*
X88420395Y-60040000D01*
X88779605Y-60040000D01*
X90091653Y-61352048D01*
X90407214Y-61196038D01*
X90598020Y-60821255D01*
X90712044Y-60416449D01*
X90744902Y-59997176D01*
X90695334Y-59579549D01*
X90565243Y-59179617D01*
X90407214Y-58883962D01*
X90091653Y-58727952D01*
X88779605Y-60040000D01*
X88420395Y-60040000D01*
X87108347Y-58727952D01*
X86792786Y-58883962D01*
X86601980Y-59258745D01*
X86487956Y-59663551D01*
X86455098Y-60082824D01*
X85735000Y-60082824D01*
X85735000Y-58570131D01*
X86270132Y-58035000D01*
X87861840Y-58035000D01*
X87739617Y-58074757D01*
X87443962Y-58232786D01*
X87287952Y-58548347D01*
X88600000Y-59860395D01*
X89912048Y-58548347D01*
X89756038Y-58232786D01*
X89381255Y-58041980D01*
X89356475Y-58035000D01*
X97844249Y-58035000D01*
X97900000Y-58040491D01*
X97955751Y-58035000D01*
X97955752Y-58035000D01*
X98122499Y-58018577D01*
X98336447Y-57953676D01*
X98533623Y-57848284D01*
X98706449Y-57706449D01*
X98741995Y-57663136D01*
X99405131Y-57000000D01*
X100211928Y-57000000D01*
X100215000Y-58714250D01*
X100373750Y-58873000D01*
X101973000Y-58873000D01*
X101973000Y-56523750D01*
X102227000Y-56523750D01*
X102227000Y-58873000D01*
X103826250Y-58873000D01*
X103985000Y-58714250D01*
X103988072Y-57000000D01*
X103975812Y-56875518D01*
X103952904Y-56800000D01*
X108036928Y-56800000D01*
X108049188Y-56924482D01*
X108085498Y-57044180D01*
X108144463Y-57154494D01*
X108223815Y-57251185D01*
X108320506Y-57330537D01*
X108430820Y-57389502D01*
X108550518Y-57425812D01*
X108675000Y-57438072D01*
X109014250Y-57435000D01*
X109173000Y-57276250D01*
X109173000Y-56177000D01*
X109427000Y-56177000D01*
X109427000Y-57276250D01*
X109585750Y-57435000D01*
X109925000Y-57438072D01*
X110049482Y-57425812D01*
X110169180Y-57389502D01*
X110279494Y-57330537D01*
X110376185Y-57251185D01*
X110455537Y-57154494D01*
X110514502Y-57044180D01*
X110550812Y-56924482D01*
X110563072Y-56800000D01*
X110560000Y-56335750D01*
X110401250Y-56177000D01*
X109427000Y-56177000D01*
X109173000Y-56177000D01*
X108198750Y-56177000D01*
X108040000Y-56335750D01*
X108036928Y-56800000D01*
X103952904Y-56800000D01*
X103939502Y-56755820D01*
X103880537Y-56645506D01*
X103801185Y-56548815D01*
X103704494Y-56469463D01*
X103594180Y-56410498D01*
X103474482Y-56374188D01*
X103350000Y-56361928D01*
X102385750Y-56365000D01*
X102227000Y-56523750D01*
X101973000Y-56523750D01*
X101814250Y-56365000D01*
X100850000Y-56361928D01*
X100725518Y-56374188D01*
X100605820Y-56410498D01*
X100495506Y-56469463D01*
X100398815Y-56548815D01*
X100319463Y-56645506D01*
X100260498Y-56755820D01*
X100224188Y-56875518D01*
X100211928Y-57000000D01*
X99405131Y-57000000D01*
X99463140Y-56941992D01*
X99506449Y-56906449D01*
X99648284Y-56733623D01*
X99753676Y-56536447D01*
X99818577Y-56322499D01*
X99835000Y-56155752D01*
X99835000Y-56155751D01*
X99840491Y-56100000D01*
X99835000Y-56044248D01*
X99835000Y-54570131D01*
X100774496Y-53630636D01*
X100850000Y-53638072D01*
X103350000Y-53638072D01*
X103474482Y-53625812D01*
X103594180Y-53589502D01*
X103704494Y-53530537D01*
X103801185Y-53451185D01*
X103880537Y-53354494D01*
X103939502Y-53244180D01*
X103975812Y-53124482D01*
X103988072Y-53000000D01*
X103988072Y-52639650D01*
X105493470Y-54145049D01*
X105521183Y-54178817D01*
X105554951Y-54206530D01*
X105554953Y-54206532D01*
X105655941Y-54289411D01*
X105809686Y-54371589D01*
X105903347Y-54400001D01*
X105976510Y-54422195D01*
X106106523Y-54435000D01*
X106106531Y-54435000D01*
X106150000Y-54439281D01*
X106193469Y-54435000D01*
X108052379Y-54435000D01*
X108085498Y-54544180D01*
X108144463Y-54654494D01*
X108223815Y-54751185D01*
X108283296Y-54800000D01*
X108223815Y-54848815D01*
X108144463Y-54945506D01*
X108085498Y-55055820D01*
X108049188Y-55175518D01*
X108036928Y-55300000D01*
X108040000Y-55764250D01*
X108198750Y-55923000D01*
X109173000Y-55923000D01*
X109173000Y-55903000D01*
X109427000Y-55903000D01*
X109427000Y-55923000D01*
X110401250Y-55923000D01*
X110560000Y-55764250D01*
X110563072Y-55300000D01*
X110550812Y-55175518D01*
X110514502Y-55055820D01*
X110455537Y-54945506D01*
X110376185Y-54848815D01*
X110316704Y-54800000D01*
X110376185Y-54751185D01*
X110455537Y-54654494D01*
X110514502Y-54544180D01*
X110550812Y-54424482D01*
X110563072Y-54300000D01*
X110563072Y-52800000D01*
X110550812Y-52675518D01*
X110514502Y-52555820D01*
X110455537Y-52445506D01*
X110376185Y-52348815D01*
X110279494Y-52269463D01*
X110169180Y-52210498D01*
X110049482Y-52174188D01*
X109925000Y-52161928D01*
X108675000Y-52161928D01*
X108550518Y-52174188D01*
X108430820Y-52210498D01*
X108320506Y-52269463D01*
X108223815Y-52348815D01*
X108144463Y-52445506D01*
X108085498Y-52555820D01*
X108052379Y-52665000D01*
X106516579Y-52665000D01*
X105101578Y-51250000D01*
X105401578Y-50950000D01*
X108336928Y-50950000D01*
X108349188Y-51074482D01*
X108385498Y-51194180D01*
X108444463Y-51304494D01*
X108523815Y-51401185D01*
X108620506Y-51480537D01*
X108730820Y-51539502D01*
X108850518Y-51575812D01*
X108975000Y-51588072D01*
X109314250Y-51585000D01*
X109473000Y-51426250D01*
X109473000Y-50327000D01*
X109727000Y-50327000D01*
X109727000Y-51426250D01*
X109885750Y-51585000D01*
X110225000Y-51588072D01*
X110349482Y-51575812D01*
X110469180Y-51539502D01*
X110579494Y-51480537D01*
X110676185Y-51401185D01*
X110755537Y-51304494D01*
X110803920Y-51213978D01*
X110805498Y-51219180D01*
X110864463Y-51329494D01*
X110943815Y-51426185D01*
X111040506Y-51505537D01*
X111150820Y-51564502D01*
X111270518Y-51600812D01*
X111395000Y-51613072D01*
X111409250Y-51610000D01*
X111568000Y-51451250D01*
X111568000Y-50327000D01*
X110918750Y-50327000D01*
X110810000Y-50435750D01*
X110701250Y-50327000D01*
X109727000Y-50327000D01*
X109473000Y-50327000D01*
X108498750Y-50327000D01*
X108340000Y-50485750D01*
X108336928Y-50950000D01*
X105401578Y-50950000D01*
X108336928Y-48014651D01*
X108336928Y-48450000D01*
X108349188Y-48574482D01*
X108385498Y-48694180D01*
X108444463Y-48804494D01*
X108523815Y-48901185D01*
X108583296Y-48950000D01*
X108523815Y-48998815D01*
X108444463Y-49095506D01*
X108385498Y-49205820D01*
X108349188Y-49325518D01*
X108336928Y-49450000D01*
X108340000Y-49914250D01*
X108498750Y-50073000D01*
X109473000Y-50073000D01*
X109473000Y-50053000D01*
X109727000Y-50053000D01*
X109727000Y-50073000D01*
X110701250Y-50073000D01*
X110810000Y-49964250D01*
X110918750Y-50073000D01*
X111568000Y-50073000D01*
X111568000Y-48948750D01*
X111409250Y-48790000D01*
X111395000Y-48786928D01*
X111270518Y-48799188D01*
X111150820Y-48835498D01*
X111040506Y-48894463D01*
X110943815Y-48973815D01*
X110864463Y-49070506D01*
X110805498Y-49180820D01*
X110803920Y-49186022D01*
X110755537Y-49095506D01*
X110676185Y-48998815D01*
X110616704Y-48950000D01*
X110676185Y-48901185D01*
X110755537Y-48804494D01*
X110814502Y-48694180D01*
X110847621Y-48585000D01*
X111733422Y-48585000D01*
X111959586Y-48811164D01*
X111822000Y-48948750D01*
X111822000Y-50073000D01*
X111842000Y-50073000D01*
X111842000Y-50327000D01*
X111822000Y-50327000D01*
X111822000Y-51451250D01*
X111980750Y-51610000D01*
X111995000Y-51613072D01*
X112080000Y-51604700D01*
X112080001Y-52211928D01*
X111750000Y-52211928D01*
X111625518Y-52224188D01*
X111505820Y-52260498D01*
X111395506Y-52319463D01*
X111298815Y-52398815D01*
X111219463Y-52495506D01*
X111160498Y-52605820D01*
X111124188Y-52725518D01*
X111111928Y-52850000D01*
X111111928Y-54550000D01*
X111124188Y-54674482D01*
X111160498Y-54794180D01*
X111219463Y-54904494D01*
X111298815Y-55001185D01*
X111395506Y-55080537D01*
X111505820Y-55139502D01*
X111625518Y-55175812D01*
X111750000Y-55188072D01*
X113450000Y-55188072D01*
X113574482Y-55175812D01*
X113694180Y-55139502D01*
X113804494Y-55080537D01*
X113901185Y-55001185D01*
X113980537Y-54904494D01*
X114039502Y-54794180D01*
X114075812Y-54674482D01*
X114088072Y-54550000D01*
X114088072Y-53049650D01*
X114198102Y-53095226D01*
X114398061Y-53135000D01*
X114601939Y-53135000D01*
X114801898Y-53095226D01*
X114990256Y-53017205D01*
X115159774Y-52903937D01*
X115303937Y-52759774D01*
X115417205Y-52590256D01*
X115495226Y-52401898D01*
X115535000Y-52201939D01*
X115535000Y-51998061D01*
X115495226Y-51798102D01*
X115418584Y-51613072D01*
X115805000Y-51613072D01*
X115929482Y-51600812D01*
X116049180Y-51564502D01*
X116159494Y-51505537D01*
X116256185Y-51426185D01*
X116335537Y-51329494D01*
X116394502Y-51219180D01*
X116396080Y-51213978D01*
X116444463Y-51304494D01*
X116523815Y-51401185D01*
X116620506Y-51480537D01*
X116730820Y-51539502D01*
X116850518Y-51575812D01*
X116975000Y-51588072D01*
X118225000Y-51588072D01*
X118349482Y-51575812D01*
X118469180Y-51539502D01*
X118579494Y-51480537D01*
X118676185Y-51401185D01*
X118755537Y-51304494D01*
X118814502Y-51194180D01*
X118850812Y-51074482D01*
X118863072Y-50950000D01*
X118863072Y-49450000D01*
X118850812Y-49325518D01*
X118814502Y-49205820D01*
X118755537Y-49095506D01*
X118676185Y-48998815D01*
X118616704Y-48950000D01*
X118676185Y-48901185D01*
X118755537Y-48804494D01*
X118814502Y-48694180D01*
X118850812Y-48574482D01*
X118863072Y-48450000D01*
X118860000Y-47985750D01*
X118701250Y-47827000D01*
X117727000Y-47827000D01*
X117727000Y-47847000D01*
X117473000Y-47847000D01*
X117473000Y-47827000D01*
X116498750Y-47827000D01*
X116340000Y-47985750D01*
X116337260Y-48399863D01*
X116326589Y-48364687D01*
X116244411Y-48210941D01*
X116186212Y-48140026D01*
X116161532Y-48109953D01*
X116161530Y-48109951D01*
X116133817Y-48076183D01*
X116100049Y-48048470D01*
X114264650Y-46213072D01*
X114535000Y-46213072D01*
X114659482Y-46200812D01*
X114779180Y-46164502D01*
X114870000Y-46115957D01*
X114960820Y-46164502D01*
X115080518Y-46200812D01*
X115205000Y-46213072D01*
X115805000Y-46213072D01*
X115807677Y-46212808D01*
X115936857Y-46341988D01*
X116066376Y-46448283D01*
X116263552Y-46553675D01*
X116438462Y-46606734D01*
X116385498Y-46705820D01*
X116349188Y-46825518D01*
X116336928Y-46950000D01*
X116340000Y-47414250D01*
X116498750Y-47573000D01*
X117473000Y-47573000D01*
X117473000Y-46473750D01*
X117727000Y-46473750D01*
X117727000Y-47573000D01*
X118701250Y-47573000D01*
X118860000Y-47414250D01*
X118863072Y-46950000D01*
X118850812Y-46825518D01*
X118814502Y-46705820D01*
X118755537Y-46595506D01*
X118676185Y-46498815D01*
X118579494Y-46419463D01*
X118469180Y-46360498D01*
X118349482Y-46324188D01*
X118225000Y-46311928D01*
X117885750Y-46315000D01*
X117727000Y-46473750D01*
X117473000Y-46473750D01*
X117396187Y-46396937D01*
X117506448Y-46306448D01*
X117648283Y-46133622D01*
X117753675Y-45936446D01*
X117818576Y-45722498D01*
X117840490Y-45499999D01*
X117818576Y-45277500D01*
X117753675Y-45063552D01*
X117648283Y-44866376D01*
X117643809Y-44860924D01*
X117748283Y-44733624D01*
X117853675Y-44536448D01*
X117918576Y-44322500D01*
X117940490Y-44100001D01*
X117918576Y-43877502D01*
X117853675Y-43663554D01*
X117748283Y-43466378D01*
X117606448Y-43293552D01*
X117433622Y-43151717D01*
X117236446Y-43046325D01*
X117022498Y-42981424D01*
X116799999Y-42959510D01*
X116577500Y-42981424D01*
X116363552Y-43046325D01*
X116166376Y-43151717D01*
X116036857Y-43258012D01*
X115898712Y-43396157D01*
X115805000Y-43386928D01*
X115205000Y-43386928D01*
X115080518Y-43399188D01*
X114960820Y-43435498D01*
X114870000Y-43484043D01*
X114779180Y-43435498D01*
X114659482Y-43399188D01*
X114535000Y-43386928D01*
X113935000Y-43386928D01*
X113810518Y-43399188D01*
X113690820Y-43435498D01*
X113600000Y-43484043D01*
X113509180Y-43435498D01*
X113389482Y-43399188D01*
X113265000Y-43386928D01*
X112665000Y-43386928D01*
X112540518Y-43399188D01*
X112420820Y-43435498D01*
X112330000Y-43484043D01*
X112239180Y-43435498D01*
X112119482Y-43399188D01*
X111995000Y-43386928D01*
X111395000Y-43386928D01*
X111270518Y-43399188D01*
X111150820Y-43435498D01*
X111040506Y-43494463D01*
X110943815Y-43573815D01*
X110868982Y-43665000D01*
X107370132Y-43665000D01*
X106185119Y-42479987D01*
X106188072Y-42450000D01*
X106188072Y-40750000D01*
X106175812Y-40625518D01*
X106139502Y-40505820D01*
X106080537Y-40395506D01*
X106001185Y-40298815D01*
X105904494Y-40219463D01*
X105794180Y-40160498D01*
X105674482Y-40124188D01*
X105585000Y-40115375D01*
X105585000Y-35837122D01*
X109285000Y-35837122D01*
X109285000Y-36962878D01*
X109504625Y-38067004D01*
X109935433Y-39107067D01*
X110560870Y-40043100D01*
X111356900Y-40839130D01*
X112292933Y-41464567D01*
X113332996Y-41895375D01*
X114437122Y-42115000D01*
X115562878Y-42115000D01*
X116667004Y-41895375D01*
X117707067Y-41464567D01*
X118643100Y-40839130D01*
X119439130Y-40043100D01*
X120064567Y-39107067D01*
X120495375Y-38067004D01*
X120715000Y-36962878D01*
X120715000Y-35837122D01*
X120495375Y-34732996D01*
X120064567Y-33692933D01*
X119439130Y-32756900D01*
X118643100Y-31960870D01*
X117707067Y-31335433D01*
X116667004Y-30904625D01*
X115562878Y-30685000D01*
X114437122Y-30685000D01*
X113332996Y-30904625D01*
X112292933Y-31335433D01*
X111356900Y-31960870D01*
X110560870Y-32756900D01*
X109935433Y-33692933D01*
X109504625Y-34732996D01*
X109285000Y-35837122D01*
X105585000Y-35837122D01*
X105585000Y-33343469D01*
X105589281Y-33300000D01*
X105585000Y-33256531D01*
X105585000Y-33256523D01*
X105572195Y-33126510D01*
X105521589Y-32959687D01*
X105439411Y-32805941D01*
X105328817Y-32671183D01*
X105295049Y-32643470D01*
X104906535Y-32254956D01*
X104895226Y-32198102D01*
X104817205Y-32009744D01*
X104703937Y-31840226D01*
X104559774Y-31696063D01*
X104390256Y-31582795D01*
X104201898Y-31504774D01*
X104001939Y-31465000D01*
X103798061Y-31465000D01*
X103598102Y-31504774D01*
X103409744Y-31582795D01*
X103240226Y-31696063D01*
X103096063Y-31840226D01*
X102982795Y-32009744D01*
X102904774Y-32198102D01*
X102865000Y-32398061D01*
X102865000Y-32601939D01*
X102904774Y-32801898D01*
X102982795Y-32990256D01*
X103096063Y-33159774D01*
X103240226Y-33303937D01*
X103409744Y-33417205D01*
X103598102Y-33495226D01*
X103654956Y-33506535D01*
X103815001Y-33666580D01*
X103815000Y-40115375D01*
X103725518Y-40124188D01*
X103605820Y-40160498D01*
X103495506Y-40219463D01*
X103398815Y-40298815D01*
X103319463Y-40395506D01*
X103260498Y-40505820D01*
X103224188Y-40625518D01*
X103211928Y-40750000D01*
X103211928Y-42450000D01*
X103224188Y-42574482D01*
X103260498Y-42694180D01*
X103319463Y-42804494D01*
X103396502Y-42898366D01*
X103229868Y-43065000D01*
X100944248Y-43065000D01*
X100777501Y-43081423D01*
X100563553Y-43146324D01*
X100366377Y-43251716D01*
X100201621Y-43386928D01*
X100000000Y-43386928D01*
X99904041Y-43396379D01*
X99913026Y-43292312D01*
X99910000Y-42585750D01*
X99751250Y-42427000D01*
X99148000Y-42427000D01*
X99148000Y-42447000D01*
X99052000Y-42447000D01*
X99052000Y-42427000D01*
X98148000Y-42427000D01*
X98148000Y-42447000D01*
X98052000Y-42447000D01*
X98052000Y-42427000D01*
X97976774Y-42427000D01*
X97985000Y-42343477D01*
X97985000Y-42173000D01*
X98052000Y-42173000D01*
X98052000Y-42153000D01*
X98148000Y-42153000D01*
X98148000Y-42173000D01*
X99052000Y-42173000D01*
X99052000Y-42153000D01*
X99148000Y-42153000D01*
X99148000Y-42173000D01*
X99751250Y-42173000D01*
X99910000Y-42014250D01*
X99913026Y-41307688D01*
X99902266Y-41183067D01*
X99867401Y-41062941D01*
X99809770Y-40951924D01*
X99770887Y-40903363D01*
X99773000Y-40901250D01*
X99773000Y-39927000D01*
X100027000Y-39927000D01*
X100027000Y-40901250D01*
X100185750Y-41060000D01*
X100650000Y-41063072D01*
X100774482Y-41050812D01*
X100894180Y-41014502D01*
X101004494Y-40955537D01*
X101101185Y-40876185D01*
X101180537Y-40779494D01*
X101239502Y-40669180D01*
X101275812Y-40549482D01*
X101288072Y-40425000D01*
X101285000Y-40085750D01*
X101126250Y-39927000D01*
X100027000Y-39927000D01*
X99773000Y-39927000D01*
X99753000Y-39927000D01*
X99753000Y-39673000D01*
X99773000Y-39673000D01*
X99773000Y-38698750D01*
X100027000Y-38698750D01*
X100027000Y-39673000D01*
X101126250Y-39673000D01*
X101285000Y-39514250D01*
X101288072Y-39175000D01*
X101275812Y-39050518D01*
X101239502Y-38930820D01*
X101180537Y-38820506D01*
X101101185Y-38723815D01*
X101004494Y-38644463D01*
X100894180Y-38585498D01*
X100774482Y-38549188D01*
X100650000Y-38536928D01*
X100185750Y-38540000D01*
X100027000Y-38698750D01*
X99773000Y-38698750D01*
X99614250Y-38540000D01*
X99150000Y-38536928D01*
X99025518Y-38549188D01*
X98905820Y-38585498D01*
X98795506Y-38644463D01*
X98698815Y-38723815D01*
X98650000Y-38783296D01*
X98601185Y-38723815D01*
X98504494Y-38644463D01*
X98394180Y-38585498D01*
X98274482Y-38549188D01*
X98150000Y-38536928D01*
X97514650Y-38536928D01*
X97563506Y-38488072D01*
X98650000Y-38488072D01*
X98774482Y-38475812D01*
X98894180Y-38439502D01*
X99004494Y-38380537D01*
X99101185Y-38301185D01*
X99180537Y-38204494D01*
X99239502Y-38094180D01*
X99275812Y-37974482D01*
X99288072Y-37850000D01*
X99288072Y-36150000D01*
X99275812Y-36025518D01*
X99239502Y-35905820D01*
X99180537Y-35795506D01*
X99101185Y-35698815D01*
X99004494Y-35619463D01*
X98894180Y-35560498D01*
X98774482Y-35524188D01*
X98650000Y-35511928D01*
X96950000Y-35511928D01*
X96825518Y-35524188D01*
X96705820Y-35560498D01*
X96595506Y-35619463D01*
X96498815Y-35698815D01*
X96419463Y-35795506D01*
X96360498Y-35905820D01*
X96324188Y-36025518D01*
X96311928Y-36150000D01*
X96311928Y-37236494D01*
X95906662Y-37641759D01*
X95881101Y-37620782D01*
X95888072Y-37550000D01*
X95888072Y-36750000D01*
X95875812Y-36625518D01*
X95839502Y-36505820D01*
X95780537Y-36395506D01*
X95701185Y-36298815D01*
X95604494Y-36219463D01*
X95494180Y-36160498D01*
X95374482Y-36124188D01*
X95250000Y-36111928D01*
X94350000Y-36111928D01*
X94225518Y-36124188D01*
X94105820Y-36160498D01*
X93995506Y-36219463D01*
X93898815Y-36298815D01*
X93819463Y-36395506D01*
X93760498Y-36505820D01*
X93724188Y-36625518D01*
X93711928Y-36750000D01*
X93711928Y-37550000D01*
X93724188Y-37674482D01*
X93756464Y-37780882D01*
X93744463Y-37795506D01*
X93685498Y-37905820D01*
X93649188Y-38025518D01*
X93636928Y-38150000D01*
X93636928Y-39650000D01*
X93649188Y-39774482D01*
X93685498Y-39894180D01*
X93744463Y-40004494D01*
X93823815Y-40101185D01*
X93883296Y-40150000D01*
X93823815Y-40198815D01*
X93744463Y-40295506D01*
X93685498Y-40405820D01*
X93649188Y-40525518D01*
X93636928Y-40650000D01*
X93636928Y-41411494D01*
X93504951Y-41543471D01*
X93471184Y-41571183D01*
X93443471Y-41604951D01*
X93443468Y-41604954D01*
X93360590Y-41705941D01*
X93278412Y-41859687D01*
X93227805Y-42026510D01*
X93210719Y-42200000D01*
X93215001Y-42243479D01*
X93215000Y-43556530D01*
X93210719Y-43600000D01*
X93215000Y-43643469D01*
X93215000Y-43643476D01*
X93222397Y-43718577D01*
X93227805Y-43773490D01*
X93239185Y-43811002D01*
X93278411Y-43940312D01*
X93360589Y-44094058D01*
X93471183Y-44228817D01*
X93504956Y-44256534D01*
X93561928Y-44313506D01*
X93561928Y-44315000D01*
X92917287Y-44315000D01*
X92914502Y-44305820D01*
X92855537Y-44195506D01*
X92776185Y-44098815D01*
X92716704Y-44050000D01*
X92776185Y-44001185D01*
X92855537Y-43904494D01*
X92914502Y-43794180D01*
X92950812Y-43674482D01*
X92963072Y-43550000D01*
X92963072Y-42050000D01*
X92950812Y-41925518D01*
X92914502Y-41805820D01*
X92855537Y-41695506D01*
X92776185Y-41598815D01*
X92679494Y-41519463D01*
X92585000Y-41468954D01*
X92585000Y-36012511D01*
X92698061Y-36035000D01*
X92901939Y-36035000D01*
X93101898Y-35995226D01*
X93247295Y-35935000D01*
X93940019Y-35935000D01*
X93995506Y-35980537D01*
X94105820Y-36039502D01*
X94225518Y-36075812D01*
X94350000Y-36088072D01*
X95250000Y-36088072D01*
X95374482Y-36075812D01*
X95494180Y-36039502D01*
X95604494Y-35980537D01*
X95701185Y-35901185D01*
X95780537Y-35804494D01*
X95839502Y-35694180D01*
X95875812Y-35574482D01*
X95888072Y-35450000D01*
X95888072Y-34650000D01*
X95875812Y-34525518D01*
X95839502Y-34405820D01*
X95780537Y-34295506D01*
X95701185Y-34198815D01*
X95604494Y-34119463D01*
X95494180Y-34060498D01*
X95374482Y-34024188D01*
X95250000Y-34011928D01*
X94350000Y-34011928D01*
X94225518Y-34024188D01*
X94105820Y-34060498D01*
X93995506Y-34119463D01*
X93940019Y-34165000D01*
X93413285Y-34165000D01*
X93290256Y-34082795D01*
X93101898Y-34004774D01*
X92901939Y-33965000D01*
X92698061Y-33965000D01*
X92683727Y-33967851D01*
X93266579Y-33385000D01*
X97461546Y-33385000D01*
X97509744Y-33417205D01*
X97698102Y-33495226D01*
X97898061Y-33535000D01*
X98101939Y-33535000D01*
X98301898Y-33495226D01*
X98490256Y-33417205D01*
X98659774Y-33303937D01*
X98803937Y-33159774D01*
X98917205Y-32990256D01*
X98995226Y-32801898D01*
X99035000Y-32601939D01*
X99035000Y-32398061D01*
X98995226Y-32198102D01*
X98917205Y-32009744D01*
X98803937Y-31840226D01*
X98659774Y-31696063D01*
X98490256Y-31582795D01*
X98301898Y-31504774D01*
X98101939Y-31465000D01*
X97898061Y-31465000D01*
X97698102Y-31504774D01*
X97509744Y-31582795D01*
X97461546Y-31615000D01*
X92943465Y-31615000D01*
X92899999Y-31610719D01*
X92856533Y-31615000D01*
X92856523Y-31615000D01*
X92726510Y-31627805D01*
X92559687Y-31678411D01*
X92405941Y-31760589D01*
X92405939Y-31760590D01*
X92405940Y-31760590D01*
X92304953Y-31843468D01*
X92304951Y-31843470D01*
X92271183Y-31871183D01*
X92243470Y-31904951D01*
X91104951Y-33043471D01*
X91071184Y-33071183D01*
X91043471Y-33104951D01*
X91043468Y-33104954D01*
X90960590Y-33205941D01*
X90878412Y-33359687D01*
X90827805Y-33526510D01*
X90810719Y-33700000D01*
X90815001Y-33743479D01*
X90815000Y-37343476D01*
X90815001Y-37343486D01*
X90815000Y-41468954D01*
X90720506Y-41519463D01*
X90700000Y-41536292D01*
X90679494Y-41519463D01*
X90569180Y-41460498D01*
X90449482Y-41424188D01*
X90325000Y-41411928D01*
X89985750Y-41415000D01*
X89827000Y-41573750D01*
X89827000Y-42673000D01*
X89847000Y-42673000D01*
X89847000Y-42927000D01*
X89827000Y-42927000D01*
X89827000Y-42947000D01*
X89573000Y-42947000D01*
X89573000Y-42927000D01*
X88598750Y-42927000D01*
X88440000Y-43085750D01*
X88436928Y-43550000D01*
X88449188Y-43674482D01*
X88485498Y-43794180D01*
X88544463Y-43904494D01*
X88623815Y-44001185D01*
X88683296Y-44050000D01*
X88623815Y-44098815D01*
X88544463Y-44195506D01*
X88485498Y-44305820D01*
X88452379Y-44415000D01*
X88066579Y-44415000D01*
X87888072Y-44236493D01*
X87888072Y-42650000D01*
X87875812Y-42525518D01*
X87839502Y-42405820D01*
X87780537Y-42295506D01*
X87701185Y-42198815D01*
X87604494Y-42119463D01*
X87494180Y-42060498D01*
X87459573Y-42050000D01*
X88436928Y-42050000D01*
X88440000Y-42514250D01*
X88598750Y-42673000D01*
X89573000Y-42673000D01*
X89573000Y-41573750D01*
X89414250Y-41415000D01*
X89075000Y-41411928D01*
X88950518Y-41424188D01*
X88830820Y-41460498D01*
X88720506Y-41519463D01*
X88623815Y-41598815D01*
X88544463Y-41695506D01*
X88485498Y-41805820D01*
X88449188Y-41925518D01*
X88436928Y-42050000D01*
X87459573Y-42050000D01*
X87374482Y-42024188D01*
X87250000Y-42011928D01*
X85550000Y-42011928D01*
X85425518Y-42024188D01*
X85305820Y-42060498D01*
X85195506Y-42119463D01*
X85098815Y-42198815D01*
X85019463Y-42295506D01*
X84960498Y-42405820D01*
X84924188Y-42525518D01*
X84911928Y-42650000D01*
X84911928Y-44350000D01*
X84924188Y-44474482D01*
X84960498Y-44594180D01*
X85019463Y-44704494D01*
X85098815Y-44801185D01*
X85195506Y-44880537D01*
X85305820Y-44939502D01*
X85425518Y-44975812D01*
X85550000Y-44988072D01*
X86136494Y-44988072D01*
X87043470Y-45895049D01*
X87071183Y-45928817D01*
X87104951Y-45956530D01*
X87104953Y-45956532D01*
X87205941Y-46039411D01*
X87359686Y-46121589D01*
X87456634Y-46150998D01*
X87526510Y-46172195D01*
X87656523Y-46185000D01*
X87656531Y-46185000D01*
X87700000Y-46189281D01*
X87743469Y-46185000D01*
X88452379Y-46185000D01*
X88485498Y-46294180D01*
X88544463Y-46404494D01*
X88623815Y-46501185D01*
X88720506Y-46580537D01*
X88830820Y-46639502D01*
X88950518Y-46675812D01*
X89075000Y-46688072D01*
X90325000Y-46688072D01*
X90449482Y-46675812D01*
X90569180Y-46639502D01*
X90679494Y-46580537D01*
X90700000Y-46563708D01*
X90720506Y-46580537D01*
X90830820Y-46639502D01*
X90950518Y-46675812D01*
X91075000Y-46688072D01*
X92325000Y-46688072D01*
X92449482Y-46675812D01*
X92569180Y-46639502D01*
X92654553Y-46593868D01*
X92063498Y-47184924D01*
X92039502Y-47105820D01*
X91980537Y-46995506D01*
X91901185Y-46898815D01*
X91804494Y-46819463D01*
X91694180Y-46760498D01*
X91574482Y-46724188D01*
X91450000Y-46711928D01*
X89750000Y-46711928D01*
X89625518Y-46724188D01*
X89505820Y-46760498D01*
X89395506Y-46819463D01*
X89298815Y-46898815D01*
X89219463Y-46995506D01*
X89160498Y-47105820D01*
X89124188Y-47225518D01*
X89111928Y-47350000D01*
X89111928Y-47440000D01*
X84514802Y-47440000D01*
X84038803Y-46964002D01*
X84015001Y-46934999D01*
X83899276Y-46840026D01*
X83767247Y-46769454D01*
X83623986Y-46725997D01*
X83512333Y-46715000D01*
X83512322Y-46715000D01*
X83475000Y-46711324D01*
X83437678Y-46715000D01*
X82542538Y-46715000D01*
X82544180Y-46714502D01*
X82654494Y-46655537D01*
X82751185Y-46576185D01*
X82830537Y-46479494D01*
X82889502Y-46369180D01*
X82925812Y-46249482D01*
X82938072Y-46125000D01*
X82938072Y-44875000D01*
X82925812Y-44750518D01*
X82889502Y-44630820D01*
X82830537Y-44520506D01*
X82751185Y-44423815D01*
X82654494Y-44344463D01*
X82544180Y-44285498D01*
X82424482Y-44249188D01*
X82300000Y-44236928D01*
X80800000Y-44236928D01*
X80675518Y-44249188D01*
X80555820Y-44285498D01*
X80445506Y-44344463D01*
X80348815Y-44423815D01*
X80300000Y-44483296D01*
X80251185Y-44423815D01*
X80154494Y-44344463D01*
X80044180Y-44285498D01*
X79924482Y-44249188D01*
X79800000Y-44236928D01*
X79744415Y-44236928D01*
X79684974Y-44125724D01*
X79613799Y-44038997D01*
X79590001Y-44009999D01*
X79561004Y-43986202D01*
X79279977Y-43705176D01*
X79280537Y-43704494D01*
X79339502Y-43594180D01*
X79375812Y-43474482D01*
X79388072Y-43350000D01*
X79388072Y-41650000D01*
X79375812Y-41525518D01*
X79339502Y-41405820D01*
X79280537Y-41295506D01*
X79201185Y-41198815D01*
X79104494Y-41119463D01*
X78994180Y-41060498D01*
X78874482Y-41024188D01*
X78750000Y-41011928D01*
X77050000Y-41011928D01*
X76925518Y-41024188D01*
X76805820Y-41060498D01*
X76695506Y-41119463D01*
X76598815Y-41198815D01*
X76519463Y-41295506D01*
X76460498Y-41405820D01*
X76424188Y-41525518D01*
X76411928Y-41650000D01*
X76411928Y-43350000D01*
X76424188Y-43474482D01*
X76460498Y-43594180D01*
X76519463Y-43704494D01*
X76598815Y-43801185D01*
X76695506Y-43880537D01*
X76805820Y-43939502D01*
X76925518Y-43975812D01*
X77050000Y-43988072D01*
X77413271Y-43988072D01*
X77696117Y-44270918D01*
X77624482Y-44249188D01*
X77500000Y-44236928D01*
X76000000Y-44236928D01*
X75875518Y-44249188D01*
X75755820Y-44285498D01*
X75645506Y-44344463D01*
X75548815Y-44423815D01*
X75500000Y-44483296D01*
X75451185Y-44423815D01*
X75354494Y-44344463D01*
X75244180Y-44285498D01*
X75124482Y-44249188D01*
X75000000Y-44236928D01*
X74535750Y-44240000D01*
X74377000Y-44398750D01*
X74377000Y-45373000D01*
X74397000Y-45373000D01*
X74397000Y-45627000D01*
X74377000Y-45627000D01*
X74377000Y-45647000D01*
X74123000Y-45647000D01*
X74123000Y-45627000D01*
X74103000Y-45627000D01*
X74103000Y-45373000D01*
X74123000Y-45373000D01*
X74123000Y-44398750D01*
X73964250Y-44240000D01*
X73500000Y-44236928D01*
X73375518Y-44249188D01*
X73255820Y-44285498D01*
X73145506Y-44344463D01*
X73131093Y-44356291D01*
X72750350Y-43975549D01*
X72869180Y-43939502D01*
X72979494Y-43880537D01*
X73076185Y-43801185D01*
X73155537Y-43704494D01*
X73214502Y-43594180D01*
X73250812Y-43474482D01*
X73263072Y-43350000D01*
X73260000Y-42885750D01*
X73101250Y-42727000D01*
X72127000Y-42727000D01*
X72127000Y-42747000D01*
X71873000Y-42747000D01*
X71873000Y-42727000D01*
X71853000Y-42727000D01*
X71853000Y-42473000D01*
X71873000Y-42473000D01*
X71873000Y-42453000D01*
X72127000Y-42453000D01*
X72127000Y-42473000D01*
X73101250Y-42473000D01*
X73260000Y-42314250D01*
X73263072Y-41850000D01*
X73250812Y-41725518D01*
X73214502Y-41605820D01*
X73155537Y-41495506D01*
X73076185Y-41398815D01*
X73016704Y-41350000D01*
X73076185Y-41301185D01*
X73155537Y-41204494D01*
X73214502Y-41094180D01*
X73247621Y-40985000D01*
X74661546Y-40985000D01*
X74709744Y-41017205D01*
X74898102Y-41095226D01*
X75098061Y-41135000D01*
X75301939Y-41135000D01*
X75501898Y-41095226D01*
X75690256Y-41017205D01*
X75859774Y-40903937D01*
X76003937Y-40759774D01*
X76117205Y-40590256D01*
X76195226Y-40401898D01*
X76206535Y-40345043D01*
X77095049Y-39456530D01*
X77128817Y-39428817D01*
X77156533Y-39395046D01*
X77239411Y-39294059D01*
X77321589Y-39140314D01*
X77372195Y-38973490D01*
X77385000Y-38843477D01*
X77385000Y-38843469D01*
X77389281Y-38800000D01*
X77385000Y-38756531D01*
X77385000Y-37166578D01*
X78766579Y-35785000D01*
X88861546Y-35785000D01*
X88909744Y-35817205D01*
X89098102Y-35895226D01*
X89298061Y-35935000D01*
X89501939Y-35935000D01*
X89701898Y-35895226D01*
X89890256Y-35817205D01*
X90059774Y-35703937D01*
X90203937Y-35559774D01*
X90317205Y-35390256D01*
X90395226Y-35201898D01*
X90435000Y-35001939D01*
X90435000Y-34798061D01*
X90395226Y-34598102D01*
X90317205Y-34409744D01*
X90203937Y-34240226D01*
X90059774Y-34096063D01*
X89890256Y-33982795D01*
X89701898Y-33904774D01*
X89501939Y-33865000D01*
X89298061Y-33865000D01*
X89098102Y-33904774D01*
X88909744Y-33982795D01*
X88861546Y-34015000D01*
X78443469Y-34015000D01*
X78400000Y-34010719D01*
X78356531Y-34015000D01*
X78356523Y-34015000D01*
X78226510Y-34027805D01*
X78059687Y-34078411D01*
X77905941Y-34160589D01*
X77804953Y-34243468D01*
X77804951Y-34243470D01*
X77771183Y-34271183D01*
X77743470Y-34304951D01*
X75904956Y-36143466D01*
X75871183Y-36171183D01*
X75760589Y-36305942D01*
X75678411Y-36459688D01*
X75627805Y-36626511D01*
X75615000Y-36756524D01*
X75615000Y-36756531D01*
X75610719Y-36800000D01*
X75615000Y-36843469D01*
X75615001Y-38433420D01*
X74954957Y-39093465D01*
X74898102Y-39104774D01*
X74709744Y-39182795D01*
X74661546Y-39215000D01*
X73247621Y-39215000D01*
X73214502Y-39105820D01*
X73155537Y-38995506D01*
X73076185Y-38898815D01*
X72979494Y-38819463D01*
X72869180Y-38760498D01*
X72749482Y-38724188D01*
X72625000Y-38711928D01*
X71375000Y-38711928D01*
X71250518Y-38724188D01*
X71130820Y-38760498D01*
X71020506Y-38819463D01*
X70923815Y-38898815D01*
X70844463Y-38995506D01*
X70785498Y-39105820D01*
X70749188Y-39225518D01*
X70736928Y-39350000D01*
X70736928Y-40288271D01*
X70288998Y-40736201D01*
X70260000Y-40759999D01*
X70236202Y-40788997D01*
X70236201Y-40788998D01*
X70165026Y-40875724D01*
X70094454Y-41007754D01*
X70050998Y-41151015D01*
X70036324Y-41300000D01*
X70040001Y-41337332D01*
X70040001Y-41961928D01*
X68675000Y-41961928D01*
X68550518Y-41974188D01*
X68430820Y-42010498D01*
X68320506Y-42069463D01*
X68223815Y-42148815D01*
X68144463Y-42245506D01*
X68085498Y-42355820D01*
X68049188Y-42475518D01*
X68036928Y-42600000D01*
X68036928Y-42689601D01*
X68003937Y-42640226D01*
X67859774Y-42496063D01*
X67690256Y-42382795D01*
X67501898Y-42304774D01*
X67301939Y-42265000D01*
X67098061Y-42265000D01*
X66898102Y-42304774D01*
X66709744Y-42382795D01*
X66540226Y-42496063D01*
X66396063Y-42640226D01*
X66282795Y-42809744D01*
X66204774Y-42998102D01*
X66165000Y-43198061D01*
X66165000Y-43401939D01*
X66204774Y-43601898D01*
X66282795Y-43790256D01*
X66396063Y-43959774D01*
X66540226Y-44103937D01*
X66709744Y-44217205D01*
X66898102Y-44295226D01*
X67098061Y-44335000D01*
X67144505Y-44335000D01*
X67169454Y-44417247D01*
X67240026Y-44549276D01*
X67334999Y-44665001D01*
X67450724Y-44759974D01*
X67582753Y-44830546D01*
X67726014Y-44874003D01*
X67837667Y-44885000D01*
X67875000Y-44888677D01*
X67912333Y-44885000D01*
X68036928Y-44885000D01*
X68036928Y-45000000D01*
X68046777Y-45100000D01*
X68036928Y-45200000D01*
X68036928Y-45214999D01*
X66127000Y-45214999D01*
X66127000Y-29127000D01*
X120873000Y-29127000D01*
X120873000Y-95873000D01*
G37*
%TD.AperFunction*%
D33*
X101236201Y-64511003D02*
X101259999Y-64540001D01*
X101288997Y-64563799D01*
X101375723Y-64634974D01*
X101460965Y-64680537D01*
X101507753Y-64705546D01*
X101651014Y-64749003D01*
X101651591Y-64749060D01*
X101650998Y-64751014D01*
X101646364Y-64798061D01*
X101636324Y-64900000D01*
X101640001Y-64937332D01*
X101640000Y-66373602D01*
X101604494Y-66344463D01*
X101494180Y-66285498D01*
X101374482Y-66249188D01*
X101250000Y-66236928D01*
X100785750Y-66240000D01*
X100627000Y-66398750D01*
X100627000Y-67373000D01*
X100647000Y-67373000D01*
X100647000Y-67627000D01*
X100627000Y-67627000D01*
X100627000Y-68601250D01*
X100785750Y-68760000D01*
X101081543Y-68761957D01*
X100982795Y-68909744D01*
X100904774Y-69098102D01*
X100865000Y-69298061D01*
X100865000Y-69501939D01*
X100904774Y-69701898D01*
X100982795Y-69890256D01*
X101096063Y-70059774D01*
X101240226Y-70203937D01*
X101409744Y-70317205D01*
X101598102Y-70395226D01*
X101798061Y-70435000D01*
X102001939Y-70435000D01*
X102201898Y-70395226D01*
X102390256Y-70317205D01*
X102559774Y-70203937D01*
X102703937Y-70059774D01*
X102817205Y-69890256D01*
X102895226Y-69701898D01*
X102906535Y-69645043D01*
X103595049Y-68956530D01*
X103628817Y-68928817D01*
X103682278Y-68863676D01*
X103739411Y-68794059D01*
X103756306Y-68762451D01*
X103874482Y-68750812D01*
X103994180Y-68714502D01*
X104104494Y-68655537D01*
X104140001Y-68626398D01*
X104140001Y-70011928D01*
X103050000Y-70011928D01*
X102925518Y-70024188D01*
X102805820Y-70060498D01*
X102695506Y-70119463D01*
X102598815Y-70198815D01*
X102519463Y-70295506D01*
X102460498Y-70405820D01*
X102424188Y-70525518D01*
X102411928Y-70650000D01*
X102411928Y-72350000D01*
X102424188Y-72474482D01*
X102460498Y-72594180D01*
X102519463Y-72704494D01*
X102598815Y-72801185D01*
X102695506Y-72880537D01*
X102805820Y-72939502D01*
X102925518Y-72975812D01*
X103015001Y-72984625D01*
X103015001Y-73011928D01*
X102225000Y-73011928D01*
X102100518Y-73024188D01*
X101980820Y-73060498D01*
X101870506Y-73119463D01*
X101773815Y-73198815D01*
X101705607Y-73281927D01*
X101629494Y-73219463D01*
X101519180Y-73160498D01*
X101399482Y-73124188D01*
X101275000Y-73111928D01*
X100513506Y-73111928D01*
X100376713Y-72975135D01*
X100494180Y-72939502D01*
X100604494Y-72880537D01*
X100701185Y-72801185D01*
X100780537Y-72704494D01*
X100839502Y-72594180D01*
X100875812Y-72474482D01*
X100888072Y-72350000D01*
X100888072Y-70650000D01*
X100875812Y-70525518D01*
X100839502Y-70405820D01*
X100780537Y-70295506D01*
X100701185Y-70198815D01*
X100604494Y-70119463D01*
X100494180Y-70060498D01*
X100374482Y-70024188D01*
X100250000Y-70011928D01*
X98986729Y-70011928D01*
X98960000Y-69985199D01*
X98960000Y-68125000D01*
X99111928Y-68125000D01*
X99124188Y-68249482D01*
X99160498Y-68369180D01*
X99219463Y-68479494D01*
X99298815Y-68576185D01*
X99395506Y-68655537D01*
X99505820Y-68714502D01*
X99625518Y-68750812D01*
X99750000Y-68763072D01*
X100214250Y-68760000D01*
X100373000Y-68601250D01*
X100373000Y-67627000D01*
X99273750Y-67627000D01*
X99115000Y-67785750D01*
X99111928Y-68125000D01*
X98960000Y-68125000D01*
X98960000Y-66314801D01*
X98986729Y-66288072D01*
X99501004Y-66288072D01*
X99395506Y-66344463D01*
X99298815Y-66423815D01*
X99219463Y-66520506D01*
X99160498Y-66630820D01*
X99124188Y-66750518D01*
X99111928Y-66875000D01*
X99115000Y-67214250D01*
X99273750Y-67373000D01*
X100373000Y-67373000D01*
X100373000Y-66398750D01*
X100256734Y-66282484D01*
X100324482Y-66275812D01*
X100444180Y-66239502D01*
X100554494Y-66180537D01*
X100651185Y-66101185D01*
X100730537Y-66004494D01*
X100789502Y-65894180D01*
X100825812Y-65774482D01*
X100838072Y-65650000D01*
X100838072Y-65350000D01*
X100828223Y-65250000D01*
X100838072Y-65150000D01*
X100838072Y-64850000D01*
X100827898Y-64746698D01*
X100835000Y-64681750D01*
X100802753Y-64649503D01*
X100789502Y-64605820D01*
X100732939Y-64500000D01*
X100789502Y-64394180D01*
X100802753Y-64350497D01*
X100835000Y-64318250D01*
X100827898Y-64253302D01*
X100838072Y-64150000D01*
X100838072Y-64112874D01*
X101236201Y-64511003D01*
%TA.AperFunction,Conductor*%
D34*
G36*
X101236201Y-64511003D02*
G01*
X101259999Y-64540001D01*
X101288997Y-64563799D01*
X101375723Y-64634974D01*
X101460965Y-64680537D01*
X101507753Y-64705546D01*
X101651014Y-64749003D01*
X101651591Y-64749060D01*
X101650998Y-64751014D01*
X101646364Y-64798061D01*
X101636324Y-64900000D01*
X101640001Y-64937332D01*
X101640000Y-66373602D01*
X101604494Y-66344463D01*
X101494180Y-66285498D01*
X101374482Y-66249188D01*
X101250000Y-66236928D01*
X100785750Y-66240000D01*
X100627000Y-66398750D01*
X100627000Y-67373000D01*
X100647000Y-67373000D01*
X100647000Y-67627000D01*
X100627000Y-67627000D01*
X100627000Y-68601250D01*
X100785750Y-68760000D01*
X101081543Y-68761957D01*
X100982795Y-68909744D01*
X100904774Y-69098102D01*
X100865000Y-69298061D01*
X100865000Y-69501939D01*
X100904774Y-69701898D01*
X100982795Y-69890256D01*
X101096063Y-70059774D01*
X101240226Y-70203937D01*
X101409744Y-70317205D01*
X101598102Y-70395226D01*
X101798061Y-70435000D01*
X102001939Y-70435000D01*
X102201898Y-70395226D01*
X102390256Y-70317205D01*
X102559774Y-70203937D01*
X102703937Y-70059774D01*
X102817205Y-69890256D01*
X102895226Y-69701898D01*
X102906535Y-69645043D01*
X103595049Y-68956530D01*
X103628817Y-68928817D01*
X103682278Y-68863676D01*
X103739411Y-68794059D01*
X103756306Y-68762451D01*
X103874482Y-68750812D01*
X103994180Y-68714502D01*
X104104494Y-68655537D01*
X104140001Y-68626398D01*
X104140001Y-70011928D01*
X103050000Y-70011928D01*
X102925518Y-70024188D01*
X102805820Y-70060498D01*
X102695506Y-70119463D01*
X102598815Y-70198815D01*
X102519463Y-70295506D01*
X102460498Y-70405820D01*
X102424188Y-70525518D01*
X102411928Y-70650000D01*
X102411928Y-72350000D01*
X102424188Y-72474482D01*
X102460498Y-72594180D01*
X102519463Y-72704494D01*
X102598815Y-72801185D01*
X102695506Y-72880537D01*
X102805820Y-72939502D01*
X102925518Y-72975812D01*
X103015001Y-72984625D01*
X103015001Y-73011928D01*
X102225000Y-73011928D01*
X102100518Y-73024188D01*
X101980820Y-73060498D01*
X101870506Y-73119463D01*
X101773815Y-73198815D01*
X101705607Y-73281927D01*
X101629494Y-73219463D01*
X101519180Y-73160498D01*
X101399482Y-73124188D01*
X101275000Y-73111928D01*
X100513506Y-73111928D01*
X100376713Y-72975135D01*
X100494180Y-72939502D01*
X100604494Y-72880537D01*
X100701185Y-72801185D01*
X100780537Y-72704494D01*
X100839502Y-72594180D01*
X100875812Y-72474482D01*
X100888072Y-72350000D01*
X100888072Y-70650000D01*
X100875812Y-70525518D01*
X100839502Y-70405820D01*
X100780537Y-70295506D01*
X100701185Y-70198815D01*
X100604494Y-70119463D01*
X100494180Y-70060498D01*
X100374482Y-70024188D01*
X100250000Y-70011928D01*
X98986729Y-70011928D01*
X98960000Y-69985199D01*
X98960000Y-68125000D01*
X99111928Y-68125000D01*
X99124188Y-68249482D01*
X99160498Y-68369180D01*
X99219463Y-68479494D01*
X99298815Y-68576185D01*
X99395506Y-68655537D01*
X99505820Y-68714502D01*
X99625518Y-68750812D01*
X99750000Y-68763072D01*
X100214250Y-68760000D01*
X100373000Y-68601250D01*
X100373000Y-67627000D01*
X99273750Y-67627000D01*
X99115000Y-67785750D01*
X99111928Y-68125000D01*
X98960000Y-68125000D01*
X98960000Y-66314801D01*
X98986729Y-66288072D01*
X99501004Y-66288072D01*
X99395506Y-66344463D01*
X99298815Y-66423815D01*
X99219463Y-66520506D01*
X99160498Y-66630820D01*
X99124188Y-66750518D01*
X99111928Y-66875000D01*
X99115000Y-67214250D01*
X99273750Y-67373000D01*
X100373000Y-67373000D01*
X100373000Y-66398750D01*
X100256734Y-66282484D01*
X100324482Y-66275812D01*
X100444180Y-66239502D01*
X100554494Y-66180537D01*
X100651185Y-66101185D01*
X100730537Y-66004494D01*
X100789502Y-65894180D01*
X100825812Y-65774482D01*
X100838072Y-65650000D01*
X100838072Y-65350000D01*
X100828223Y-65250000D01*
X100838072Y-65150000D01*
X100838072Y-64850000D01*
X100827898Y-64746698D01*
X100835000Y-64681750D01*
X100802753Y-64649503D01*
X100789502Y-64605820D01*
X100732939Y-64500000D01*
X100789502Y-64394180D01*
X100802753Y-64350497D01*
X100835000Y-64318250D01*
X100827898Y-64253302D01*
X100838072Y-64150000D01*
X100838072Y-64112874D01*
X101236201Y-64511003D01*
G37*
%TD.AperFunction*%
D33*
X77165026Y-47324276D02*
X77194159Y-47359774D01*
X77259999Y-47440001D01*
X77289003Y-47463804D01*
X78364972Y-48539774D01*
X78362676Y-48540000D01*
X78362667Y-48540000D01*
X78251014Y-48550997D01*
X78107753Y-48594454D01*
X77975724Y-48665026D01*
X77962688Y-48675724D01*
X77888996Y-48736201D01*
X77888992Y-48736205D01*
X77859999Y-48759999D01*
X77836205Y-48788992D01*
X77051724Y-49573474D01*
X77001250Y-49523000D01*
X76888678Y-49523000D01*
X76976185Y-49451185D01*
X77055537Y-49354494D01*
X77114502Y-49244180D01*
X77127753Y-49200497D01*
X77160000Y-49168250D01*
X77152905Y-49103227D01*
X77163072Y-49000000D01*
X77163072Y-48550000D01*
X77153223Y-48450000D01*
X77163072Y-48350000D01*
X77163072Y-47900000D01*
X77153223Y-47800000D01*
X77163072Y-47700000D01*
X77163072Y-47320620D01*
X77165026Y-47324276D01*
%TA.AperFunction,Conductor*%
D34*
G36*
X77165026Y-47324276D02*
G01*
X77194159Y-47359774D01*
X77259999Y-47440001D01*
X77289003Y-47463804D01*
X78364972Y-48539774D01*
X78362676Y-48540000D01*
X78362667Y-48540000D01*
X78251014Y-48550997D01*
X78107753Y-48594454D01*
X77975724Y-48665026D01*
X77962688Y-48675724D01*
X77888996Y-48736201D01*
X77888992Y-48736205D01*
X77859999Y-48759999D01*
X77836205Y-48788992D01*
X77051724Y-49573474D01*
X77001250Y-49523000D01*
X76888678Y-49523000D01*
X76976185Y-49451185D01*
X77055537Y-49354494D01*
X77114502Y-49244180D01*
X77127753Y-49200497D01*
X77160000Y-49168250D01*
X77152905Y-49103227D01*
X77163072Y-49000000D01*
X77163072Y-48550000D01*
X77153223Y-48450000D01*
X77163072Y-48350000D01*
X77163072Y-47900000D01*
X77153223Y-47800000D01*
X77163072Y-47700000D01*
X77163072Y-47320620D01*
X77165026Y-47324276D01*
G37*
%TD.AperFunction*%
%TD*%
M02*
