%TF.GenerationSoftware,KiCad,Pcbnew,(5.1.8)-1*%
%TF.CreationDate,2020-12-02T17:51:49+01:00*%
%TF.ProjectId,board,626f6172-642e-46b6-9963-61645f706362,rev?*%
%TF.SameCoordinates,Original*%
%TF.FileFunction,Paste,Top*%
%TF.FilePolarity,Positive*%
%FSLAX46Y46*%
G04 Gerber Fmt 4.6, Leading zero omitted, Abs format (unit mm)*
G04 Created by KiCad (PCBNEW (5.1.8)-1) date 2020-12-02 17:51:49*
%MOMM*%
%LPD*%
G01*
G04 APERTURE LIST*
%ADD10R,1.500000X1.250000*%
%ADD11R,1.600000X3.500000*%
%ADD12R,3.500000X1.600000*%
%ADD13R,1.250000X1.500000*%
%ADD14R,2.500000X4.000000*%
%ADD15R,0.800000X0.900000*%
%ADD16R,0.900000X0.800000*%
%ADD17R,1.750000X0.450000*%
%ADD18R,1.450000X0.450000*%
%ADD19R,1.400000X0.300000*%
%ADD20R,0.600000X1.550000*%
%ADD21R,2.000000X0.350000*%
%ADD22R,0.350000X2.000000*%
%ADD23R,0.820000X0.820000*%
G04 APERTURE END LIST*
D10*
%TO.C,C1*%
X62450000Y-60100000D03*
X59950000Y-60100000D03*
%TD*%
D11*
%TO.C,C2*%
X61200000Y-74500000D03*
X61200000Y-79900000D03*
%TD*%
%TO.C,C3*%
X61200000Y-63900000D03*
X61200000Y-69300000D03*
%TD*%
D12*
%TO.C,C4*%
X83600000Y-86900000D03*
X89000000Y-86900000D03*
%TD*%
D13*
%TO.C,C5*%
X80000000Y-87250000D03*
X80000000Y-84750000D03*
%TD*%
%TO.C,C6*%
X59800000Y-42800000D03*
X59800000Y-40300000D03*
%TD*%
D10*
%TO.C,C7*%
X79000000Y-51500000D03*
X81500000Y-51500000D03*
%TD*%
D13*
%TO.C,C8*%
X72000000Y-40100000D03*
X72000000Y-42600000D03*
%TD*%
D10*
%TO.C,C9*%
X76750000Y-51500000D03*
X74250000Y-51500000D03*
%TD*%
%TO.C,C10*%
X103000000Y-67500000D03*
X100500000Y-67500000D03*
%TD*%
D14*
%TO.C,C11*%
X102100000Y-59000000D03*
X102100000Y-51000000D03*
%TD*%
D13*
%TO.C,C12*%
X109300000Y-53550000D03*
X109300000Y-56050000D03*
%TD*%
%TO.C,C13*%
X107350000Y-76900000D03*
X107350000Y-74400000D03*
%TD*%
%TO.C,C14*%
X104850000Y-74400000D03*
X104850000Y-76900000D03*
%TD*%
%TO.C,C15*%
X98400000Y-77000000D03*
X98400000Y-74500000D03*
%TD*%
%TO.C,C16*%
X96000000Y-74500000D03*
X96000000Y-77000000D03*
%TD*%
%TO.C,C17*%
X117600000Y-50200000D03*
X117600000Y-47700000D03*
%TD*%
D15*
%TO.C,D1*%
X89550000Y-55000000D03*
X91650000Y-55000000D03*
%TD*%
D16*
%TO.C,D2*%
X94800000Y-37150000D03*
X94800000Y-35050000D03*
%TD*%
D10*
%TO.C,R1*%
X74250000Y-45500000D03*
X76750000Y-45500000D03*
%TD*%
%TO.C,R2*%
X79050000Y-45500000D03*
X81550000Y-45500000D03*
%TD*%
D13*
%TO.C,R3*%
X89700000Y-42800000D03*
X89700000Y-45300000D03*
%TD*%
%TO.C,R4*%
X91700000Y-45300000D03*
X91700000Y-42800000D03*
%TD*%
%TO.C,R5*%
X93500000Y-52100000D03*
X93500000Y-49600000D03*
%TD*%
D10*
%TO.C,R6*%
X99900000Y-39800000D03*
X97400000Y-39800000D03*
%TD*%
D13*
%TO.C,R7*%
X95700000Y-52200000D03*
X95700000Y-49700000D03*
%TD*%
%TO.C,R8*%
X94900000Y-41400000D03*
X94900000Y-38900000D03*
%TD*%
%TO.C,R9*%
X94000000Y-77000000D03*
X94000000Y-74500000D03*
%TD*%
%TO.C,R10*%
X100650000Y-77000000D03*
X100650000Y-74500000D03*
%TD*%
%TO.C,R11*%
X102850000Y-74400000D03*
X102850000Y-76900000D03*
%TD*%
%TO.C,R12*%
X109350000Y-76900000D03*
X109350000Y-74400000D03*
%TD*%
%TO.C,R13*%
X109600000Y-47700000D03*
X109600000Y-50200000D03*
%TD*%
D17*
%TO.C,U2*%
X69550000Y-42825000D03*
X69550000Y-43475000D03*
X69550000Y-44125000D03*
X69550000Y-44775000D03*
X69550000Y-45425000D03*
X69550000Y-46075000D03*
X69550000Y-46725000D03*
X69550000Y-47375000D03*
X69550000Y-48025000D03*
X69550000Y-48675000D03*
X62350000Y-48675000D03*
X62350000Y-48025000D03*
X62350000Y-47375000D03*
X62350000Y-46725000D03*
X62350000Y-46075000D03*
X62350000Y-45425000D03*
X62350000Y-44775000D03*
X62350000Y-44125000D03*
X62350000Y-43475000D03*
X62350000Y-42825000D03*
%TD*%
D18*
%TO.C,U3*%
X75800000Y-49425000D03*
X75800000Y-48775000D03*
X75800000Y-48125000D03*
X75800000Y-47475000D03*
X80200000Y-47475000D03*
X80200000Y-48125000D03*
X80200000Y-48775000D03*
X80200000Y-49425000D03*
%TD*%
D19*
%TO.C,U4*%
X103900000Y-63500000D03*
X103900000Y-64000000D03*
X103900000Y-64500000D03*
X103900000Y-65000000D03*
X103900000Y-65500000D03*
X99500000Y-65500000D03*
X99500000Y-65000000D03*
X99500000Y-64500000D03*
X99500000Y-64000000D03*
X99500000Y-63500000D03*
%TD*%
D20*
%TO.C,U6*%
X115505000Y-50200000D03*
X114235000Y-50200000D03*
X112965000Y-50200000D03*
X111695000Y-50200000D03*
X111695000Y-44800000D03*
X112965000Y-44800000D03*
X114235000Y-44800000D03*
X115505000Y-44800000D03*
%TD*%
D21*
%TO.C,U5*%
X95200000Y-45200000D03*
X101000000Y-45200000D03*
X95200000Y-46200000D03*
D22*
X97100000Y-48100000D03*
X98100000Y-48100000D03*
X99100000Y-48100000D03*
D21*
X101000000Y-46200000D03*
X101000000Y-44200000D03*
D22*
X99100000Y-42300000D03*
X98100000Y-42300000D03*
X97100000Y-42300000D03*
D21*
X95200000Y-44200000D03*
D23*
X98660000Y-44640000D03*
X97540000Y-44640000D03*
X97540000Y-45760000D03*
X98660000Y-45760000D03*
%TD*%
M02*
