%TF.GenerationSoftware,KiCad,Pcbnew,(5.1.8)-1*%
%TF.CreationDate,2020-12-02T17:51:49+01:00*%
%TF.ProjectId,board,626f6172-642e-46b6-9963-61645f706362,rev?*%
%TF.SameCoordinates,Original*%
%TF.FileFunction,Legend,Top*%
%TF.FilePolarity,Positive*%
%FSLAX46Y46*%
G04 Gerber Fmt 4.6, Leading zero omitted, Abs format (unit mm)*
G04 Created by KiCad (PCBNEW (5.1.8)-1) date 2020-12-02 17:51:49*
%MOMM*%
%LPD*%
G01*
G04 APERTURE LIST*
%ADD10C,0.120000*%
%ADD11C,0.300000*%
%ADD12C,0.150000*%
G04 APERTURE END LIST*
D10*
%TO.C,J6*%
X115430000Y-77730000D02*
X114100000Y-77730000D01*
X115430000Y-76400000D02*
X115430000Y-77730000D01*
X115430000Y-75130000D02*
X112770000Y-75130000D01*
X112770000Y-75130000D02*
X112770000Y-67450000D01*
X115430000Y-75130000D02*
X115430000Y-67450000D01*
X115430000Y-67450000D02*
X112770000Y-67450000D01*
%TO.C,C1*%
X60700000Y-60950000D02*
X61700000Y-60950000D01*
X61700000Y-59250000D02*
X60700000Y-59250000D01*
%TO.C,C2*%
X57900000Y-79740000D02*
X57900000Y-73900000D01*
X58660000Y-80500000D02*
X57900000Y-79740000D01*
X64500000Y-79740000D02*
X63740000Y-80500000D01*
X64500000Y-73900000D02*
X64500000Y-79740000D01*
X58660000Y-80500000D02*
X60080000Y-80500000D01*
X57900000Y-73900000D02*
X60080000Y-73900000D01*
X64500000Y-73900000D02*
X62320000Y-73900000D01*
X63740000Y-80500000D02*
X62320000Y-80500000D01*
%TO.C,C3*%
X58660000Y-63300000D02*
X60080000Y-63300000D01*
X57900000Y-69900000D02*
X60080000Y-69900000D01*
X64500000Y-69900000D02*
X62320000Y-69900000D01*
X63740000Y-63300000D02*
X62320000Y-63300000D01*
X57900000Y-69900000D02*
X57900000Y-64060000D01*
X57900000Y-64060000D02*
X58660000Y-63300000D01*
X63740000Y-63300000D02*
X64500000Y-64060000D01*
X64500000Y-64060000D02*
X64500000Y-69900000D01*
%TO.C,C4*%
X88840000Y-90200000D02*
X83000000Y-90200000D01*
X89600000Y-89440000D02*
X88840000Y-90200000D01*
X88840000Y-83600000D02*
X89600000Y-84360000D01*
X83000000Y-83600000D02*
X88840000Y-83600000D01*
X89600000Y-89440000D02*
X89600000Y-88020000D01*
X83000000Y-90200000D02*
X83000000Y-88020000D01*
X83000000Y-83600000D02*
X83000000Y-85780000D01*
X89600000Y-84360000D02*
X89600000Y-85780000D01*
%TO.C,C5*%
X79150000Y-85500000D02*
X79150000Y-86500000D01*
X80850000Y-86500000D02*
X80850000Y-85500000D01*
%TO.C,C6*%
X58950000Y-41050000D02*
X58950000Y-42050000D01*
X60650000Y-42050000D02*
X60650000Y-41050000D01*
%TO.C,C7*%
X80750000Y-50650000D02*
X79750000Y-50650000D01*
X79750000Y-52350000D02*
X80750000Y-52350000D01*
%TO.C,C8*%
X72850000Y-41850000D02*
X72850000Y-40850000D01*
X71150000Y-40850000D02*
X71150000Y-41850000D01*
%TO.C,C9*%
X75000000Y-52350000D02*
X76000000Y-52350000D01*
X76000000Y-50650000D02*
X75000000Y-50650000D01*
%TO.C,C10*%
X101250000Y-68350000D02*
X102250000Y-68350000D01*
X102250000Y-66650000D02*
X101250000Y-66650000D01*
%TO.C,C11*%
X107310000Y-50550000D02*
X107310000Y-60210000D01*
X106550000Y-49790000D02*
X107310000Y-50550000D01*
X96890000Y-50550000D02*
X97650000Y-49790000D01*
X96890000Y-60210000D02*
X96890000Y-50550000D01*
X107310000Y-60210000D02*
X103660000Y-60210000D01*
X96890000Y-60210000D02*
X100540000Y-60210000D01*
X97650000Y-49790000D02*
X100540000Y-49790000D01*
X106550000Y-49790000D02*
X103660000Y-49790000D01*
%TO.C,C12*%
X110150000Y-55300000D02*
X110150000Y-54300000D01*
X108450000Y-54300000D02*
X108450000Y-55300000D01*
%TO.C,C13*%
X106500000Y-75150000D02*
X106500000Y-76150000D01*
X108200000Y-76150000D02*
X108200000Y-75150000D01*
%TO.C,C14*%
X105700000Y-76150000D02*
X105700000Y-75150000D01*
X104000000Y-75150000D02*
X104000000Y-76150000D01*
%TO.C,C15*%
X97550000Y-75250000D02*
X97550000Y-76250000D01*
X99250000Y-76250000D02*
X99250000Y-75250000D01*
%TO.C,C16*%
X96850000Y-76250000D02*
X96850000Y-75250000D01*
X95150000Y-75250000D02*
X95150000Y-76250000D01*
%TO.C,C17*%
X116750000Y-48450000D02*
X116750000Y-49450000D01*
X118450000Y-49450000D02*
X118450000Y-48450000D01*
%TO.C,D1*%
X92200000Y-55800000D02*
X89600000Y-55800000D01*
X92200000Y-54200000D02*
X89600000Y-54200000D01*
X92200000Y-55800000D02*
X92200000Y-54200000D01*
%TO.C,D2*%
X94000000Y-37700000D02*
X95600000Y-37700000D01*
X95600000Y-37700000D02*
X95600000Y-35100000D01*
X94000000Y-37700000D02*
X94000000Y-35100000D01*
%TO.C,J1*%
X55830000Y-64430000D02*
X54500000Y-64430000D01*
X55830000Y-63100000D02*
X55830000Y-64430000D01*
X55830000Y-61830000D02*
X53170000Y-61830000D01*
X53170000Y-61830000D02*
X53170000Y-38910000D01*
X55830000Y-61830000D02*
X55830000Y-38910000D01*
X55830000Y-38910000D02*
X53170000Y-38910000D01*
%TO.C,J2*%
X53170000Y-71870000D02*
X54500000Y-71870000D01*
X53170000Y-73200000D02*
X53170000Y-71870000D01*
X53170000Y-74470000D02*
X55830000Y-74470000D01*
X55830000Y-74470000D02*
X55830000Y-77070000D01*
X53170000Y-74470000D02*
X53170000Y-77070000D01*
X53170000Y-77070000D02*
X55830000Y-77070000D01*
%TO.C,J3*%
X53270000Y-91470000D02*
X55930000Y-91470000D01*
X53270000Y-88870000D02*
X53270000Y-91470000D01*
X55930000Y-88870000D02*
X55930000Y-91470000D01*
X53270000Y-88870000D02*
X55930000Y-88870000D01*
X53270000Y-87600000D02*
X53270000Y-86270000D01*
X53270000Y-86270000D02*
X54600000Y-86270000D01*
%TO.C,J4*%
X120500000Y-89400000D02*
G75*
G03*
X120500000Y-89400000I-5500000J0D01*
G01*
%TO.C,J5*%
X120500000Y-36400000D02*
G75*
G03*
X120500000Y-36400000I-5500000J0D01*
G01*
%TO.C,R1*%
X76000000Y-44650000D02*
X75000000Y-44650000D01*
X75000000Y-46350000D02*
X76000000Y-46350000D01*
%TO.C,R2*%
X80800000Y-44650000D02*
X79800000Y-44650000D01*
X79800000Y-46350000D02*
X80800000Y-46350000D01*
%TO.C,R3*%
X90550000Y-44550000D02*
X90550000Y-43550000D01*
X88850000Y-43550000D02*
X88850000Y-44550000D01*
%TO.C,R4*%
X90850000Y-43550000D02*
X90850000Y-44550000D01*
X92550000Y-44550000D02*
X92550000Y-43550000D01*
%TO.C,R5*%
X92650000Y-50350000D02*
X92650000Y-51350000D01*
X94350000Y-51350000D02*
X94350000Y-50350000D01*
%TO.C,R6*%
X98150000Y-40650000D02*
X99150000Y-40650000D01*
X99150000Y-38950000D02*
X98150000Y-38950000D01*
%TO.C,R7*%
X94850000Y-50450000D02*
X94850000Y-51450000D01*
X96550000Y-51450000D02*
X96550000Y-50450000D01*
%TO.C,R8*%
X94050000Y-39650000D02*
X94050000Y-40650000D01*
X95750000Y-40650000D02*
X95750000Y-39650000D01*
%TO.C,R9*%
X93150000Y-75250000D02*
X93150000Y-76250000D01*
X94850000Y-76250000D02*
X94850000Y-75250000D01*
%TO.C,R10*%
X99800000Y-75250000D02*
X99800000Y-76250000D01*
X101500000Y-76250000D02*
X101500000Y-75250000D01*
%TO.C,R11*%
X103700000Y-76150000D02*
X103700000Y-75150000D01*
X102000000Y-75150000D02*
X102000000Y-76150000D01*
%TO.C,R12*%
X108500000Y-75150000D02*
X108500000Y-76150000D01*
X110200000Y-76150000D02*
X110200000Y-75150000D01*
%TO.C,R13*%
X110450000Y-49450000D02*
X110450000Y-48450000D01*
X108750000Y-48450000D02*
X108750000Y-49450000D01*
%TO.C,TP1*%
X61770000Y-55270000D02*
X63100000Y-55270000D01*
X61770000Y-56600000D02*
X61770000Y-55270000D01*
X61770000Y-57870000D02*
X64430000Y-57870000D01*
X64430000Y-57870000D02*
X64430000Y-57930000D01*
X61770000Y-57870000D02*
X61770000Y-57930000D01*
X61770000Y-57930000D02*
X64430000Y-57930000D01*
%TO.C,TP2*%
X61870000Y-51470000D02*
X63200000Y-51470000D01*
X61870000Y-52800000D02*
X61870000Y-51470000D01*
X61870000Y-54070000D02*
X64530000Y-54070000D01*
X64530000Y-54070000D02*
X64530000Y-54130000D01*
X61870000Y-54070000D02*
X61870000Y-54130000D01*
X61870000Y-54130000D02*
X64530000Y-54130000D01*
%TO.C,TP3*%
X65870000Y-54130000D02*
X68530000Y-54130000D01*
X65870000Y-54070000D02*
X65870000Y-54130000D01*
X68530000Y-54070000D02*
X68530000Y-54130000D01*
X65870000Y-54070000D02*
X68530000Y-54070000D01*
X65870000Y-52800000D02*
X65870000Y-51470000D01*
X65870000Y-51470000D02*
X67200000Y-51470000D01*
%TO.C,TP4*%
X76570000Y-43830000D02*
X79230000Y-43830000D01*
X76570000Y-43770000D02*
X76570000Y-43830000D01*
X79230000Y-43770000D02*
X79230000Y-43830000D01*
X76570000Y-43770000D02*
X79230000Y-43770000D01*
X76570000Y-42500000D02*
X76570000Y-41170000D01*
X76570000Y-41170000D02*
X77900000Y-41170000D01*
%TO.C,TP5*%
X89270000Y-49530000D02*
X91930000Y-49530000D01*
X89270000Y-49470000D02*
X89270000Y-49530000D01*
X91930000Y-49470000D02*
X91930000Y-49530000D01*
X89270000Y-49470000D02*
X91930000Y-49470000D01*
X89270000Y-48200000D02*
X89270000Y-46870000D01*
X89270000Y-46870000D02*
X90600000Y-46870000D01*
%TO.C,TP6*%
X85070000Y-42170000D02*
X86400000Y-42170000D01*
X85070000Y-43500000D02*
X85070000Y-42170000D01*
X85070000Y-44770000D02*
X87730000Y-44770000D01*
X87730000Y-44770000D02*
X87730000Y-44830000D01*
X85070000Y-44770000D02*
X85070000Y-44830000D01*
X85070000Y-44830000D02*
X87730000Y-44830000D01*
%TO.C,TP7*%
X106770000Y-72730000D02*
X109430000Y-72730000D01*
X106770000Y-72670000D02*
X106770000Y-72730000D01*
X109430000Y-72670000D02*
X109430000Y-72730000D01*
X106770000Y-72670000D02*
X109430000Y-72670000D01*
X106770000Y-71400000D02*
X106770000Y-70070000D01*
X106770000Y-70070000D02*
X108100000Y-70070000D01*
%TO.C,TP8*%
X93470000Y-53970000D02*
X94800000Y-53970000D01*
X93470000Y-55300000D02*
X93470000Y-53970000D01*
X93470000Y-56570000D02*
X96130000Y-56570000D01*
X96130000Y-56570000D02*
X96130000Y-56630000D01*
X93470000Y-56570000D02*
X93470000Y-56630000D01*
X93470000Y-56630000D02*
X96130000Y-56630000D01*
%TO.C,TP9*%
X96470000Y-35670000D02*
X97800000Y-35670000D01*
X96470000Y-37000000D02*
X96470000Y-35670000D01*
X96470000Y-38270000D02*
X99130000Y-38270000D01*
X99130000Y-38270000D02*
X99130000Y-38330000D01*
X96470000Y-38270000D02*
X96470000Y-38330000D01*
X96470000Y-38330000D02*
X99130000Y-38330000D01*
%TO.C,TP10*%
X89270000Y-50770000D02*
X90600000Y-50770000D01*
X89270000Y-52100000D02*
X89270000Y-50770000D01*
X89270000Y-53370000D02*
X91930000Y-53370000D01*
X91930000Y-53370000D02*
X91930000Y-53430000D01*
X89270000Y-53370000D02*
X89270000Y-53430000D01*
X89270000Y-53430000D02*
X91930000Y-53430000D01*
%TO.C,TP11*%
X103370000Y-42930000D02*
X106030000Y-42930000D01*
X103370000Y-42870000D02*
X103370000Y-42930000D01*
X106030000Y-42870000D02*
X106030000Y-42930000D01*
X103370000Y-42870000D02*
X106030000Y-42870000D01*
X103370000Y-41600000D02*
X103370000Y-40270000D01*
X103370000Y-40270000D02*
X104700000Y-40270000D01*
%TO.C,TP12*%
X102570000Y-70170000D02*
X103900000Y-70170000D01*
X102570000Y-71500000D02*
X102570000Y-70170000D01*
X102570000Y-72770000D02*
X105230000Y-72770000D01*
X105230000Y-72770000D02*
X105230000Y-72830000D01*
X102570000Y-72770000D02*
X102570000Y-72830000D01*
X102570000Y-72830000D02*
X105230000Y-72830000D01*
%TO.C,TP13*%
X98070000Y-72830000D02*
X100730000Y-72830000D01*
X98070000Y-72770000D02*
X98070000Y-72830000D01*
X100730000Y-72770000D02*
X100730000Y-72830000D01*
X98070000Y-72770000D02*
X100730000Y-72770000D01*
X98070000Y-71500000D02*
X98070000Y-70170000D01*
X98070000Y-70170000D02*
X99400000Y-70170000D01*
%TO.C,TP14*%
X93670000Y-70170000D02*
X95000000Y-70170000D01*
X93670000Y-71500000D02*
X93670000Y-70170000D01*
X93670000Y-72770000D02*
X96330000Y-72770000D01*
X96330000Y-72770000D02*
X96330000Y-72830000D01*
X93670000Y-72770000D02*
X93670000Y-72830000D01*
X93670000Y-72830000D02*
X96330000Y-72830000D01*
%TO.C,TP15*%
X107170000Y-81230000D02*
X109830000Y-81230000D01*
X107170000Y-81170000D02*
X107170000Y-81230000D01*
X109830000Y-81170000D02*
X109830000Y-81230000D01*
X107170000Y-81170000D02*
X109830000Y-81170000D01*
X107170000Y-79900000D02*
X107170000Y-78570000D01*
X107170000Y-78570000D02*
X108500000Y-78570000D01*
%TO.C,TP16*%
X111270000Y-55030000D02*
X113930000Y-55030000D01*
X111270000Y-54970000D02*
X111270000Y-55030000D01*
X113930000Y-54970000D02*
X113930000Y-55030000D01*
X111270000Y-54970000D02*
X113930000Y-54970000D01*
X111270000Y-53700000D02*
X111270000Y-52370000D01*
X111270000Y-52370000D02*
X112600000Y-52370000D01*
%TO.C,TP17*%
X102370000Y-81230000D02*
X105030000Y-81230000D01*
X102370000Y-81170000D02*
X102370000Y-81230000D01*
X105030000Y-81170000D02*
X105030000Y-81230000D01*
X102370000Y-81170000D02*
X105030000Y-81170000D01*
X102370000Y-79900000D02*
X102370000Y-78570000D01*
X102370000Y-78570000D02*
X103700000Y-78570000D01*
%TO.C,TP18*%
X98270000Y-78770000D02*
X99600000Y-78770000D01*
X98270000Y-80100000D02*
X98270000Y-78770000D01*
X98270000Y-81370000D02*
X100930000Y-81370000D01*
X100930000Y-81370000D02*
X100930000Y-81430000D01*
X98270000Y-81370000D02*
X98270000Y-81430000D01*
X98270000Y-81430000D02*
X100930000Y-81430000D01*
%TO.C,TP19*%
X93670000Y-78970000D02*
X95000000Y-78970000D01*
X93670000Y-80300000D02*
X93670000Y-78970000D01*
X93670000Y-81570000D02*
X96330000Y-81570000D01*
X96330000Y-81570000D02*
X96330000Y-81630000D01*
X93670000Y-81570000D02*
X93670000Y-81630000D01*
X93670000Y-81630000D02*
X96330000Y-81630000D01*
D11*
%TO.C,U1*%
X91140000Y-57500000D02*
X65740000Y-57500000D01*
X65740000Y-57500000D02*
X65740000Y-82900000D01*
X65740000Y-82900000D02*
X91140000Y-82900000D01*
X91140000Y-82900000D02*
X91140000Y-57500000D01*
D12*
%TO.C,U2*%
X63075000Y-42275000D02*
X61475000Y-42275000D01*
X63075000Y-49575000D02*
X68825000Y-49575000D01*
X63075000Y-41925000D02*
X68825000Y-41925000D01*
X63075000Y-49575000D02*
X63075000Y-49125000D01*
X68825000Y-49575000D02*
X68825000Y-49125000D01*
X68825000Y-41925000D02*
X68825000Y-42375000D01*
X63075000Y-41925000D02*
X63075000Y-42275000D01*
%TO.C,U3*%
X79675000Y-49950000D02*
X80925000Y-49950000D01*
X79675000Y-46775000D02*
X76325000Y-46775000D01*
X79675000Y-50125000D02*
X76325000Y-50125000D01*
X79675000Y-46775000D02*
X79675000Y-47025000D01*
X76325000Y-46775000D02*
X76325000Y-47025000D01*
X76325000Y-50125000D02*
X76325000Y-49875000D01*
X79675000Y-50125000D02*
X79675000Y-49950000D01*
%TO.C,U4*%
X100025000Y-63050000D02*
X98800000Y-63050000D01*
X100025000Y-66175000D02*
X103375000Y-66175000D01*
X100025000Y-62825000D02*
X103375000Y-62825000D01*
X100025000Y-66175000D02*
X100025000Y-65875000D01*
X103375000Y-66175000D02*
X103375000Y-65875000D01*
X103375000Y-62825000D02*
X103375000Y-63125000D01*
X100025000Y-62825000D02*
X100025000Y-63050000D01*
%TO.C,U6*%
X116125000Y-45425000D02*
X116125000Y-44025000D01*
X111025000Y-45425000D02*
X111025000Y-49575000D01*
X116175000Y-45425000D02*
X116175000Y-49575000D01*
X111025000Y-45425000D02*
X111170000Y-45425000D01*
X111025000Y-49575000D02*
X111170000Y-49575000D01*
X116175000Y-49575000D02*
X116030000Y-49575000D01*
X116175000Y-45425000D02*
X116125000Y-45425000D01*
%TO.C,J6*%
X113766666Y-78182380D02*
X113766666Y-78896666D01*
X113719047Y-79039523D01*
X113623809Y-79134761D01*
X113480952Y-79182380D01*
X113385714Y-79182380D01*
X114671428Y-78182380D02*
X114480952Y-78182380D01*
X114385714Y-78230000D01*
X114338095Y-78277619D01*
X114242857Y-78420476D01*
X114195238Y-78610952D01*
X114195238Y-78991904D01*
X114242857Y-79087142D01*
X114290476Y-79134761D01*
X114385714Y-79182380D01*
X114576190Y-79182380D01*
X114671428Y-79134761D01*
X114719047Y-79087142D01*
X114766666Y-78991904D01*
X114766666Y-78753809D01*
X114719047Y-78658571D01*
X114671428Y-78610952D01*
X114576190Y-78563333D01*
X114385714Y-78563333D01*
X114290476Y-78610952D01*
X114242857Y-78658571D01*
X114195238Y-78753809D01*
%TO.C,C1*%
X61033333Y-62207142D02*
X60985714Y-62254761D01*
X60842857Y-62302380D01*
X60747619Y-62302380D01*
X60604761Y-62254761D01*
X60509523Y-62159523D01*
X60461904Y-62064285D01*
X60414285Y-61873809D01*
X60414285Y-61730952D01*
X60461904Y-61540476D01*
X60509523Y-61445238D01*
X60604761Y-61350000D01*
X60747619Y-61302380D01*
X60842857Y-61302380D01*
X60985714Y-61350000D01*
X61033333Y-61397619D01*
X61985714Y-62302380D02*
X61414285Y-62302380D01*
X61700000Y-62302380D02*
X61700000Y-61302380D01*
X61604761Y-61445238D01*
X61509523Y-61540476D01*
X61414285Y-61588095D01*
%TO.C,C2*%
X65987142Y-77366666D02*
X66034761Y-77414285D01*
X66082380Y-77557142D01*
X66082380Y-77652380D01*
X66034761Y-77795238D01*
X65939523Y-77890476D01*
X65844285Y-77938095D01*
X65653809Y-77985714D01*
X65510952Y-77985714D01*
X65320476Y-77938095D01*
X65225238Y-77890476D01*
X65130000Y-77795238D01*
X65082380Y-77652380D01*
X65082380Y-77557142D01*
X65130000Y-77414285D01*
X65177619Y-77366666D01*
X65177619Y-76985714D02*
X65130000Y-76938095D01*
X65082380Y-76842857D01*
X65082380Y-76604761D01*
X65130000Y-76509523D01*
X65177619Y-76461904D01*
X65272857Y-76414285D01*
X65368095Y-76414285D01*
X65510952Y-76461904D01*
X66082380Y-77033333D01*
X66082380Y-76414285D01*
X64181428Y-81860952D02*
X64181428Y-81099047D01*
X64562380Y-81480000D02*
X63800476Y-81480000D01*
%TO.C,C3*%
X57127142Y-66766666D02*
X57174761Y-66814285D01*
X57222380Y-66957142D01*
X57222380Y-67052380D01*
X57174761Y-67195238D01*
X57079523Y-67290476D01*
X56984285Y-67338095D01*
X56793809Y-67385714D01*
X56650952Y-67385714D01*
X56460476Y-67338095D01*
X56365238Y-67290476D01*
X56270000Y-67195238D01*
X56222380Y-67052380D01*
X56222380Y-66957142D01*
X56270000Y-66814285D01*
X56317619Y-66766666D01*
X56222380Y-66433333D02*
X56222380Y-65814285D01*
X56603333Y-66147619D01*
X56603333Y-66004761D01*
X56650952Y-65909523D01*
X56698571Y-65861904D01*
X56793809Y-65814285D01*
X57031904Y-65814285D01*
X57127142Y-65861904D01*
X57174761Y-65909523D01*
X57222380Y-66004761D01*
X57222380Y-66290476D01*
X57174761Y-66385714D01*
X57127142Y-66433333D01*
X58361428Y-62700952D02*
X58361428Y-61939047D01*
X58742380Y-62320000D02*
X57980476Y-62320000D01*
%TO.C,C4*%
X86133333Y-82827142D02*
X86085714Y-82874761D01*
X85942857Y-82922380D01*
X85847619Y-82922380D01*
X85704761Y-82874761D01*
X85609523Y-82779523D01*
X85561904Y-82684285D01*
X85514285Y-82493809D01*
X85514285Y-82350952D01*
X85561904Y-82160476D01*
X85609523Y-82065238D01*
X85704761Y-81970000D01*
X85847619Y-81922380D01*
X85942857Y-81922380D01*
X86085714Y-81970000D01*
X86133333Y-82017619D01*
X86990476Y-82255714D02*
X86990476Y-82922380D01*
X86752380Y-81874761D02*
X86514285Y-82589047D01*
X87133333Y-82589047D01*
X90199047Y-84061428D02*
X90960952Y-84061428D01*
X90580000Y-84442380D02*
X90580000Y-83680476D01*
%TO.C,C5*%
X82107142Y-86166666D02*
X82154761Y-86214285D01*
X82202380Y-86357142D01*
X82202380Y-86452380D01*
X82154761Y-86595238D01*
X82059523Y-86690476D01*
X81964285Y-86738095D01*
X81773809Y-86785714D01*
X81630952Y-86785714D01*
X81440476Y-86738095D01*
X81345238Y-86690476D01*
X81250000Y-86595238D01*
X81202380Y-86452380D01*
X81202380Y-86357142D01*
X81250000Y-86214285D01*
X81297619Y-86166666D01*
X81202380Y-85261904D02*
X81202380Y-85738095D01*
X81678571Y-85785714D01*
X81630952Y-85738095D01*
X81583333Y-85642857D01*
X81583333Y-85404761D01*
X81630952Y-85309523D01*
X81678571Y-85261904D01*
X81773809Y-85214285D01*
X82011904Y-85214285D01*
X82107142Y-85261904D01*
X82154761Y-85309523D01*
X82202380Y-85404761D01*
X82202380Y-85642857D01*
X82154761Y-85738095D01*
X82107142Y-85785714D01*
%TO.C,C6*%
X61907142Y-41716666D02*
X61954761Y-41764285D01*
X62002380Y-41907142D01*
X62002380Y-42002380D01*
X61954761Y-42145238D01*
X61859523Y-42240476D01*
X61764285Y-42288095D01*
X61573809Y-42335714D01*
X61430952Y-42335714D01*
X61240476Y-42288095D01*
X61145238Y-42240476D01*
X61050000Y-42145238D01*
X61002380Y-42002380D01*
X61002380Y-41907142D01*
X61050000Y-41764285D01*
X61097619Y-41716666D01*
X61002380Y-40859523D02*
X61002380Y-41050000D01*
X61050000Y-41145238D01*
X61097619Y-41192857D01*
X61240476Y-41288095D01*
X61430952Y-41335714D01*
X61811904Y-41335714D01*
X61907142Y-41288095D01*
X61954761Y-41240476D01*
X62002380Y-41145238D01*
X62002380Y-40954761D01*
X61954761Y-40859523D01*
X61907142Y-40811904D01*
X61811904Y-40764285D01*
X61573809Y-40764285D01*
X61478571Y-40811904D01*
X61430952Y-40859523D01*
X61383333Y-40954761D01*
X61383333Y-41145238D01*
X61430952Y-41240476D01*
X61478571Y-41288095D01*
X61573809Y-41335714D01*
%TO.C,C7*%
X80083333Y-53607142D02*
X80035714Y-53654761D01*
X79892857Y-53702380D01*
X79797619Y-53702380D01*
X79654761Y-53654761D01*
X79559523Y-53559523D01*
X79511904Y-53464285D01*
X79464285Y-53273809D01*
X79464285Y-53130952D01*
X79511904Y-52940476D01*
X79559523Y-52845238D01*
X79654761Y-52750000D01*
X79797619Y-52702380D01*
X79892857Y-52702380D01*
X80035714Y-52750000D01*
X80083333Y-52797619D01*
X80416666Y-52702380D02*
X81083333Y-52702380D01*
X80654761Y-53702380D01*
%TO.C,C8*%
X74107142Y-41516666D02*
X74154761Y-41564285D01*
X74202380Y-41707142D01*
X74202380Y-41802380D01*
X74154761Y-41945238D01*
X74059523Y-42040476D01*
X73964285Y-42088095D01*
X73773809Y-42135714D01*
X73630952Y-42135714D01*
X73440476Y-42088095D01*
X73345238Y-42040476D01*
X73250000Y-41945238D01*
X73202380Y-41802380D01*
X73202380Y-41707142D01*
X73250000Y-41564285D01*
X73297619Y-41516666D01*
X73630952Y-40945238D02*
X73583333Y-41040476D01*
X73535714Y-41088095D01*
X73440476Y-41135714D01*
X73392857Y-41135714D01*
X73297619Y-41088095D01*
X73250000Y-41040476D01*
X73202380Y-40945238D01*
X73202380Y-40754761D01*
X73250000Y-40659523D01*
X73297619Y-40611904D01*
X73392857Y-40564285D01*
X73440476Y-40564285D01*
X73535714Y-40611904D01*
X73583333Y-40659523D01*
X73630952Y-40754761D01*
X73630952Y-40945238D01*
X73678571Y-41040476D01*
X73726190Y-41088095D01*
X73821428Y-41135714D01*
X74011904Y-41135714D01*
X74107142Y-41088095D01*
X74154761Y-41040476D01*
X74202380Y-40945238D01*
X74202380Y-40754761D01*
X74154761Y-40659523D01*
X74107142Y-40611904D01*
X74011904Y-40564285D01*
X73821428Y-40564285D01*
X73726190Y-40611904D01*
X73678571Y-40659523D01*
X73630952Y-40754761D01*
%TO.C,C9*%
X75333333Y-53607142D02*
X75285714Y-53654761D01*
X75142857Y-53702380D01*
X75047619Y-53702380D01*
X74904761Y-53654761D01*
X74809523Y-53559523D01*
X74761904Y-53464285D01*
X74714285Y-53273809D01*
X74714285Y-53130952D01*
X74761904Y-52940476D01*
X74809523Y-52845238D01*
X74904761Y-52750000D01*
X75047619Y-52702380D01*
X75142857Y-52702380D01*
X75285714Y-52750000D01*
X75333333Y-52797619D01*
X75809523Y-53702380D02*
X76000000Y-53702380D01*
X76095238Y-53654761D01*
X76142857Y-53607142D01*
X76238095Y-53464285D01*
X76285714Y-53273809D01*
X76285714Y-52892857D01*
X76238095Y-52797619D01*
X76190476Y-52750000D01*
X76095238Y-52702380D01*
X75904761Y-52702380D01*
X75809523Y-52750000D01*
X75761904Y-52797619D01*
X75714285Y-52892857D01*
X75714285Y-53130952D01*
X75761904Y-53226190D01*
X75809523Y-53273809D01*
X75904761Y-53321428D01*
X76095238Y-53321428D01*
X76190476Y-53273809D01*
X76238095Y-53226190D01*
X76285714Y-53130952D01*
%TO.C,C10*%
X101107142Y-69607142D02*
X101059523Y-69654761D01*
X100916666Y-69702380D01*
X100821428Y-69702380D01*
X100678571Y-69654761D01*
X100583333Y-69559523D01*
X100535714Y-69464285D01*
X100488095Y-69273809D01*
X100488095Y-69130952D01*
X100535714Y-68940476D01*
X100583333Y-68845238D01*
X100678571Y-68750000D01*
X100821428Y-68702380D01*
X100916666Y-68702380D01*
X101059523Y-68750000D01*
X101107142Y-68797619D01*
X102059523Y-69702380D02*
X101488095Y-69702380D01*
X101773809Y-69702380D02*
X101773809Y-68702380D01*
X101678571Y-68845238D01*
X101583333Y-68940476D01*
X101488095Y-68988095D01*
X102678571Y-68702380D02*
X102773809Y-68702380D01*
X102869047Y-68750000D01*
X102916666Y-68797619D01*
X102964285Y-68892857D01*
X103011904Y-69083333D01*
X103011904Y-69321428D01*
X102964285Y-69511904D01*
X102916666Y-69607142D01*
X102869047Y-69654761D01*
X102773809Y-69702380D01*
X102678571Y-69702380D01*
X102583333Y-69654761D01*
X102535714Y-69607142D01*
X102488095Y-69511904D01*
X102440476Y-69321428D01*
X102440476Y-69083333D01*
X102488095Y-68892857D01*
X102535714Y-68797619D01*
X102583333Y-68750000D01*
X102678571Y-68702380D01*
%TO.C,C11*%
X95997142Y-55642857D02*
X96044761Y-55690476D01*
X96092380Y-55833333D01*
X96092380Y-55928571D01*
X96044761Y-56071428D01*
X95949523Y-56166666D01*
X95854285Y-56214285D01*
X95663809Y-56261904D01*
X95520952Y-56261904D01*
X95330476Y-56214285D01*
X95235238Y-56166666D01*
X95140000Y-56071428D01*
X95092380Y-55928571D01*
X95092380Y-55833333D01*
X95140000Y-55690476D01*
X95187619Y-55642857D01*
X96092380Y-54690476D02*
X96092380Y-55261904D01*
X96092380Y-54976190D02*
X95092380Y-54976190D01*
X95235238Y-55071428D01*
X95330476Y-55166666D01*
X95378095Y-55261904D01*
X96092380Y-53738095D02*
X96092380Y-54309523D01*
X96092380Y-54023809D02*
X95092380Y-54023809D01*
X95235238Y-54119047D01*
X95330476Y-54214285D01*
X95378095Y-54309523D01*
X97201428Y-49600952D02*
X97201428Y-48839047D01*
X97582380Y-49220000D02*
X96820476Y-49220000D01*
%TO.C,C12*%
X111407142Y-55442857D02*
X111454761Y-55490476D01*
X111502380Y-55633333D01*
X111502380Y-55728571D01*
X111454761Y-55871428D01*
X111359523Y-55966666D01*
X111264285Y-56014285D01*
X111073809Y-56061904D01*
X110930952Y-56061904D01*
X110740476Y-56014285D01*
X110645238Y-55966666D01*
X110550000Y-55871428D01*
X110502380Y-55728571D01*
X110502380Y-55633333D01*
X110550000Y-55490476D01*
X110597619Y-55442857D01*
X111502380Y-54490476D02*
X111502380Y-55061904D01*
X111502380Y-54776190D02*
X110502380Y-54776190D01*
X110645238Y-54871428D01*
X110740476Y-54966666D01*
X110788095Y-55061904D01*
X110597619Y-54109523D02*
X110550000Y-54061904D01*
X110502380Y-53966666D01*
X110502380Y-53728571D01*
X110550000Y-53633333D01*
X110597619Y-53585714D01*
X110692857Y-53538095D01*
X110788095Y-53538095D01*
X110930952Y-53585714D01*
X111502380Y-54157142D01*
X111502380Y-53538095D01*
%TO.C,C13*%
X109457142Y-76292857D02*
X109504761Y-76340476D01*
X109552380Y-76483333D01*
X109552380Y-76578571D01*
X109504761Y-76721428D01*
X109409523Y-76816666D01*
X109314285Y-76864285D01*
X109123809Y-76911904D01*
X108980952Y-76911904D01*
X108790476Y-76864285D01*
X108695238Y-76816666D01*
X108600000Y-76721428D01*
X108552380Y-76578571D01*
X108552380Y-76483333D01*
X108600000Y-76340476D01*
X108647619Y-76292857D01*
X109552380Y-75340476D02*
X109552380Y-75911904D01*
X109552380Y-75626190D02*
X108552380Y-75626190D01*
X108695238Y-75721428D01*
X108790476Y-75816666D01*
X108838095Y-75911904D01*
X108552380Y-75007142D02*
X108552380Y-74388095D01*
X108933333Y-74721428D01*
X108933333Y-74578571D01*
X108980952Y-74483333D01*
X109028571Y-74435714D01*
X109123809Y-74388095D01*
X109361904Y-74388095D01*
X109457142Y-74435714D01*
X109504761Y-74483333D01*
X109552380Y-74578571D01*
X109552380Y-74864285D01*
X109504761Y-74959523D01*
X109457142Y-75007142D01*
%TO.C,C14*%
X106957142Y-76292857D02*
X107004761Y-76340476D01*
X107052380Y-76483333D01*
X107052380Y-76578571D01*
X107004761Y-76721428D01*
X106909523Y-76816666D01*
X106814285Y-76864285D01*
X106623809Y-76911904D01*
X106480952Y-76911904D01*
X106290476Y-76864285D01*
X106195238Y-76816666D01*
X106100000Y-76721428D01*
X106052380Y-76578571D01*
X106052380Y-76483333D01*
X106100000Y-76340476D01*
X106147619Y-76292857D01*
X107052380Y-75340476D02*
X107052380Y-75911904D01*
X107052380Y-75626190D02*
X106052380Y-75626190D01*
X106195238Y-75721428D01*
X106290476Y-75816666D01*
X106338095Y-75911904D01*
X106385714Y-74483333D02*
X107052380Y-74483333D01*
X106004761Y-74721428D02*
X106719047Y-74959523D01*
X106719047Y-74340476D01*
%TO.C,C15*%
X100507142Y-76392857D02*
X100554761Y-76440476D01*
X100602380Y-76583333D01*
X100602380Y-76678571D01*
X100554761Y-76821428D01*
X100459523Y-76916666D01*
X100364285Y-76964285D01*
X100173809Y-77011904D01*
X100030952Y-77011904D01*
X99840476Y-76964285D01*
X99745238Y-76916666D01*
X99650000Y-76821428D01*
X99602380Y-76678571D01*
X99602380Y-76583333D01*
X99650000Y-76440476D01*
X99697619Y-76392857D01*
X100602380Y-75440476D02*
X100602380Y-76011904D01*
X100602380Y-75726190D02*
X99602380Y-75726190D01*
X99745238Y-75821428D01*
X99840476Y-75916666D01*
X99888095Y-76011904D01*
X99602380Y-74535714D02*
X99602380Y-75011904D01*
X100078571Y-75059523D01*
X100030952Y-75011904D01*
X99983333Y-74916666D01*
X99983333Y-74678571D01*
X100030952Y-74583333D01*
X100078571Y-74535714D01*
X100173809Y-74488095D01*
X100411904Y-74488095D01*
X100507142Y-74535714D01*
X100554761Y-74583333D01*
X100602380Y-74678571D01*
X100602380Y-74916666D01*
X100554761Y-75011904D01*
X100507142Y-75059523D01*
%TO.C,C16*%
X98107142Y-76392857D02*
X98154761Y-76440476D01*
X98202380Y-76583333D01*
X98202380Y-76678571D01*
X98154761Y-76821428D01*
X98059523Y-76916666D01*
X97964285Y-76964285D01*
X97773809Y-77011904D01*
X97630952Y-77011904D01*
X97440476Y-76964285D01*
X97345238Y-76916666D01*
X97250000Y-76821428D01*
X97202380Y-76678571D01*
X97202380Y-76583333D01*
X97250000Y-76440476D01*
X97297619Y-76392857D01*
X98202380Y-75440476D02*
X98202380Y-76011904D01*
X98202380Y-75726190D02*
X97202380Y-75726190D01*
X97345238Y-75821428D01*
X97440476Y-75916666D01*
X97488095Y-76011904D01*
X97202380Y-74583333D02*
X97202380Y-74773809D01*
X97250000Y-74869047D01*
X97297619Y-74916666D01*
X97440476Y-75011904D01*
X97630952Y-75059523D01*
X98011904Y-75059523D01*
X98107142Y-75011904D01*
X98154761Y-74964285D01*
X98202380Y-74869047D01*
X98202380Y-74678571D01*
X98154761Y-74583333D01*
X98107142Y-74535714D01*
X98011904Y-74488095D01*
X97773809Y-74488095D01*
X97678571Y-74535714D01*
X97630952Y-74583333D01*
X97583333Y-74678571D01*
X97583333Y-74869047D01*
X97630952Y-74964285D01*
X97678571Y-75011904D01*
X97773809Y-75059523D01*
%TO.C,C17*%
X116207142Y-49592857D02*
X116254761Y-49640476D01*
X116302380Y-49783333D01*
X116302380Y-49878571D01*
X116254761Y-50021428D01*
X116159523Y-50116666D01*
X116064285Y-50164285D01*
X115873809Y-50211904D01*
X115730952Y-50211904D01*
X115540476Y-50164285D01*
X115445238Y-50116666D01*
X115350000Y-50021428D01*
X115302380Y-49878571D01*
X115302380Y-49783333D01*
X115350000Y-49640476D01*
X115397619Y-49592857D01*
X116302380Y-48640476D02*
X116302380Y-49211904D01*
X116302380Y-48926190D02*
X115302380Y-48926190D01*
X115445238Y-49021428D01*
X115540476Y-49116666D01*
X115588095Y-49211904D01*
X115302380Y-48307142D02*
X115302380Y-47640476D01*
X116302380Y-48069047D01*
%TO.C,D1*%
X89861904Y-57052380D02*
X89861904Y-56052380D01*
X90100000Y-56052380D01*
X90242857Y-56100000D01*
X90338095Y-56195238D01*
X90385714Y-56290476D01*
X90433333Y-56480952D01*
X90433333Y-56623809D01*
X90385714Y-56814285D01*
X90338095Y-56909523D01*
X90242857Y-57004761D01*
X90100000Y-57052380D01*
X89861904Y-57052380D01*
X91385714Y-57052380D02*
X90814285Y-57052380D01*
X91100000Y-57052380D02*
X91100000Y-56052380D01*
X91004761Y-56195238D01*
X90909523Y-56290476D01*
X90814285Y-56338095D01*
%TO.C,D2*%
X93652380Y-36838095D02*
X92652380Y-36838095D01*
X92652380Y-36600000D01*
X92700000Y-36457142D01*
X92795238Y-36361904D01*
X92890476Y-36314285D01*
X93080952Y-36266666D01*
X93223809Y-36266666D01*
X93414285Y-36314285D01*
X93509523Y-36361904D01*
X93604761Y-36457142D01*
X93652380Y-36600000D01*
X93652380Y-36838095D01*
X92747619Y-35885714D02*
X92700000Y-35838095D01*
X92652380Y-35742857D01*
X92652380Y-35504761D01*
X92700000Y-35409523D01*
X92747619Y-35361904D01*
X92842857Y-35314285D01*
X92938095Y-35314285D01*
X93080952Y-35361904D01*
X93652380Y-35933333D01*
X93652380Y-35314285D01*
%TO.C,J1*%
X54166666Y-64882380D02*
X54166666Y-65596666D01*
X54119047Y-65739523D01*
X54023809Y-65834761D01*
X53880952Y-65882380D01*
X53785714Y-65882380D01*
X55166666Y-65882380D02*
X54595238Y-65882380D01*
X54880952Y-65882380D02*
X54880952Y-64882380D01*
X54785714Y-65025238D01*
X54690476Y-65120476D01*
X54595238Y-65168095D01*
%TO.C,J2*%
X54166666Y-70322380D02*
X54166666Y-71036666D01*
X54119047Y-71179523D01*
X54023809Y-71274761D01*
X53880952Y-71322380D01*
X53785714Y-71322380D01*
X54595238Y-70417619D02*
X54642857Y-70370000D01*
X54738095Y-70322380D01*
X54976190Y-70322380D01*
X55071428Y-70370000D01*
X55119047Y-70417619D01*
X55166666Y-70512857D01*
X55166666Y-70608095D01*
X55119047Y-70750952D01*
X54547619Y-71322380D01*
X55166666Y-71322380D01*
%TO.C,J3*%
X54266666Y-84722380D02*
X54266666Y-85436666D01*
X54219047Y-85579523D01*
X54123809Y-85674761D01*
X53980952Y-85722380D01*
X53885714Y-85722380D01*
X54647619Y-84722380D02*
X55266666Y-84722380D01*
X54933333Y-85103333D01*
X55076190Y-85103333D01*
X55171428Y-85150952D01*
X55219047Y-85198571D01*
X55266666Y-85293809D01*
X55266666Y-85531904D01*
X55219047Y-85627142D01*
X55171428Y-85674761D01*
X55076190Y-85722380D01*
X54790476Y-85722380D01*
X54695238Y-85674761D01*
X54647619Y-85627142D01*
%TO.C,J4*%
X114666666Y-82352380D02*
X114666666Y-83066666D01*
X114619047Y-83209523D01*
X114523809Y-83304761D01*
X114380952Y-83352380D01*
X114285714Y-83352380D01*
X115571428Y-82685714D02*
X115571428Y-83352380D01*
X115333333Y-82304761D02*
X115095238Y-83019047D01*
X115714285Y-83019047D01*
%TO.C,J5*%
X114666666Y-29352380D02*
X114666666Y-30066666D01*
X114619047Y-30209523D01*
X114523809Y-30304761D01*
X114380952Y-30352380D01*
X114285714Y-30352380D01*
X115619047Y-29352380D02*
X115142857Y-29352380D01*
X115095238Y-29828571D01*
X115142857Y-29780952D01*
X115238095Y-29733333D01*
X115476190Y-29733333D01*
X115571428Y-29780952D01*
X115619047Y-29828571D01*
X115666666Y-29923809D01*
X115666666Y-30161904D01*
X115619047Y-30257142D01*
X115571428Y-30304761D01*
X115476190Y-30352380D01*
X115238095Y-30352380D01*
X115142857Y-30304761D01*
X115095238Y-30257142D01*
%TO.C,R1*%
X75333333Y-47702380D02*
X75000000Y-47226190D01*
X74761904Y-47702380D02*
X74761904Y-46702380D01*
X75142857Y-46702380D01*
X75238095Y-46750000D01*
X75285714Y-46797619D01*
X75333333Y-46892857D01*
X75333333Y-47035714D01*
X75285714Y-47130952D01*
X75238095Y-47178571D01*
X75142857Y-47226190D01*
X74761904Y-47226190D01*
X76285714Y-47702380D02*
X75714285Y-47702380D01*
X76000000Y-47702380D02*
X76000000Y-46702380D01*
X75904761Y-46845238D01*
X75809523Y-46940476D01*
X75714285Y-46988095D01*
%TO.C,R2*%
X80133333Y-44202380D02*
X79800000Y-43726190D01*
X79561904Y-44202380D02*
X79561904Y-43202380D01*
X79942857Y-43202380D01*
X80038095Y-43250000D01*
X80085714Y-43297619D01*
X80133333Y-43392857D01*
X80133333Y-43535714D01*
X80085714Y-43630952D01*
X80038095Y-43678571D01*
X79942857Y-43726190D01*
X79561904Y-43726190D01*
X80514285Y-43297619D02*
X80561904Y-43250000D01*
X80657142Y-43202380D01*
X80895238Y-43202380D01*
X80990476Y-43250000D01*
X81038095Y-43297619D01*
X81085714Y-43392857D01*
X81085714Y-43488095D01*
X81038095Y-43630952D01*
X80466666Y-44202380D01*
X81085714Y-44202380D01*
%TO.C,R3*%
X91902380Y-44216666D02*
X91426190Y-44550000D01*
X91902380Y-44788095D02*
X90902380Y-44788095D01*
X90902380Y-44407142D01*
X90950000Y-44311904D01*
X90997619Y-44264285D01*
X91092857Y-44216666D01*
X91235714Y-44216666D01*
X91330952Y-44264285D01*
X91378571Y-44311904D01*
X91426190Y-44407142D01*
X91426190Y-44788095D01*
X90902380Y-43883333D02*
X90902380Y-43264285D01*
X91283333Y-43597619D01*
X91283333Y-43454761D01*
X91330952Y-43359523D01*
X91378571Y-43311904D01*
X91473809Y-43264285D01*
X91711904Y-43264285D01*
X91807142Y-43311904D01*
X91854761Y-43359523D01*
X91902380Y-43454761D01*
X91902380Y-43740476D01*
X91854761Y-43835714D01*
X91807142Y-43883333D01*
%TO.C,R4*%
X90402380Y-44216666D02*
X89926190Y-44550000D01*
X90402380Y-44788095D02*
X89402380Y-44788095D01*
X89402380Y-44407142D01*
X89450000Y-44311904D01*
X89497619Y-44264285D01*
X89592857Y-44216666D01*
X89735714Y-44216666D01*
X89830952Y-44264285D01*
X89878571Y-44311904D01*
X89926190Y-44407142D01*
X89926190Y-44788095D01*
X89735714Y-43359523D02*
X90402380Y-43359523D01*
X89354761Y-43597619D02*
X90069047Y-43835714D01*
X90069047Y-43216666D01*
%TO.C,R5*%
X92202380Y-51016666D02*
X91726190Y-51350000D01*
X92202380Y-51588095D02*
X91202380Y-51588095D01*
X91202380Y-51207142D01*
X91250000Y-51111904D01*
X91297619Y-51064285D01*
X91392857Y-51016666D01*
X91535714Y-51016666D01*
X91630952Y-51064285D01*
X91678571Y-51111904D01*
X91726190Y-51207142D01*
X91726190Y-51588095D01*
X91202380Y-50111904D02*
X91202380Y-50588095D01*
X91678571Y-50635714D01*
X91630952Y-50588095D01*
X91583333Y-50492857D01*
X91583333Y-50254761D01*
X91630952Y-50159523D01*
X91678571Y-50111904D01*
X91773809Y-50064285D01*
X92011904Y-50064285D01*
X92107142Y-50111904D01*
X92154761Y-50159523D01*
X92202380Y-50254761D01*
X92202380Y-50492857D01*
X92154761Y-50588095D01*
X92107142Y-50635714D01*
%TO.C,R6*%
X98483333Y-38502380D02*
X98150000Y-38026190D01*
X97911904Y-38502380D02*
X97911904Y-37502380D01*
X98292857Y-37502380D01*
X98388095Y-37550000D01*
X98435714Y-37597619D01*
X98483333Y-37692857D01*
X98483333Y-37835714D01*
X98435714Y-37930952D01*
X98388095Y-37978571D01*
X98292857Y-38026190D01*
X97911904Y-38026190D01*
X99340476Y-37502380D02*
X99150000Y-37502380D01*
X99054761Y-37550000D01*
X99007142Y-37597619D01*
X98911904Y-37740476D01*
X98864285Y-37930952D01*
X98864285Y-38311904D01*
X98911904Y-38407142D01*
X98959523Y-38454761D01*
X99054761Y-38502380D01*
X99245238Y-38502380D01*
X99340476Y-38454761D01*
X99388095Y-38407142D01*
X99435714Y-38311904D01*
X99435714Y-38073809D01*
X99388095Y-37978571D01*
X99340476Y-37930952D01*
X99245238Y-37883333D01*
X99054761Y-37883333D01*
X98959523Y-37930952D01*
X98911904Y-37978571D01*
X98864285Y-38073809D01*
%TO.C,R7*%
X97902380Y-51116666D02*
X97426190Y-51450000D01*
X97902380Y-51688095D02*
X96902380Y-51688095D01*
X96902380Y-51307142D01*
X96950000Y-51211904D01*
X96997619Y-51164285D01*
X97092857Y-51116666D01*
X97235714Y-51116666D01*
X97330952Y-51164285D01*
X97378571Y-51211904D01*
X97426190Y-51307142D01*
X97426190Y-51688095D01*
X96902380Y-50783333D02*
X96902380Y-50116666D01*
X97902380Y-50545238D01*
%TO.C,R8*%
X97102380Y-40316666D02*
X96626190Y-40650000D01*
X97102380Y-40888095D02*
X96102380Y-40888095D01*
X96102380Y-40507142D01*
X96150000Y-40411904D01*
X96197619Y-40364285D01*
X96292857Y-40316666D01*
X96435714Y-40316666D01*
X96530952Y-40364285D01*
X96578571Y-40411904D01*
X96626190Y-40507142D01*
X96626190Y-40888095D01*
X96530952Y-39745238D02*
X96483333Y-39840476D01*
X96435714Y-39888095D01*
X96340476Y-39935714D01*
X96292857Y-39935714D01*
X96197619Y-39888095D01*
X96150000Y-39840476D01*
X96102380Y-39745238D01*
X96102380Y-39554761D01*
X96150000Y-39459523D01*
X96197619Y-39411904D01*
X96292857Y-39364285D01*
X96340476Y-39364285D01*
X96435714Y-39411904D01*
X96483333Y-39459523D01*
X96530952Y-39554761D01*
X96530952Y-39745238D01*
X96578571Y-39840476D01*
X96626190Y-39888095D01*
X96721428Y-39935714D01*
X96911904Y-39935714D01*
X97007142Y-39888095D01*
X97054761Y-39840476D01*
X97102380Y-39745238D01*
X97102380Y-39554761D01*
X97054761Y-39459523D01*
X97007142Y-39411904D01*
X96911904Y-39364285D01*
X96721428Y-39364285D01*
X96626190Y-39411904D01*
X96578571Y-39459523D01*
X96530952Y-39554761D01*
%TO.C,R9*%
X96202380Y-75916666D02*
X95726190Y-76250000D01*
X96202380Y-76488095D02*
X95202380Y-76488095D01*
X95202380Y-76107142D01*
X95250000Y-76011904D01*
X95297619Y-75964285D01*
X95392857Y-75916666D01*
X95535714Y-75916666D01*
X95630952Y-75964285D01*
X95678571Y-76011904D01*
X95726190Y-76107142D01*
X95726190Y-76488095D01*
X96202380Y-75440476D02*
X96202380Y-75250000D01*
X96154761Y-75154761D01*
X96107142Y-75107142D01*
X95964285Y-75011904D01*
X95773809Y-74964285D01*
X95392857Y-74964285D01*
X95297619Y-75011904D01*
X95250000Y-75059523D01*
X95202380Y-75154761D01*
X95202380Y-75345238D01*
X95250000Y-75440476D01*
X95297619Y-75488095D01*
X95392857Y-75535714D01*
X95630952Y-75535714D01*
X95726190Y-75488095D01*
X95773809Y-75440476D01*
X95821428Y-75345238D01*
X95821428Y-75154761D01*
X95773809Y-75059523D01*
X95726190Y-75011904D01*
X95630952Y-74964285D01*
%TO.C,R10*%
X102852380Y-76392857D02*
X102376190Y-76726190D01*
X102852380Y-76964285D02*
X101852380Y-76964285D01*
X101852380Y-76583333D01*
X101900000Y-76488095D01*
X101947619Y-76440476D01*
X102042857Y-76392857D01*
X102185714Y-76392857D01*
X102280952Y-76440476D01*
X102328571Y-76488095D01*
X102376190Y-76583333D01*
X102376190Y-76964285D01*
X102852380Y-75440476D02*
X102852380Y-76011904D01*
X102852380Y-75726190D02*
X101852380Y-75726190D01*
X101995238Y-75821428D01*
X102090476Y-75916666D01*
X102138095Y-76011904D01*
X101852380Y-74821428D02*
X101852380Y-74726190D01*
X101900000Y-74630952D01*
X101947619Y-74583333D01*
X102042857Y-74535714D01*
X102233333Y-74488095D01*
X102471428Y-74488095D01*
X102661904Y-74535714D01*
X102757142Y-74583333D01*
X102804761Y-74630952D01*
X102852380Y-74726190D01*
X102852380Y-74821428D01*
X102804761Y-74916666D01*
X102757142Y-74964285D01*
X102661904Y-75011904D01*
X102471428Y-75059523D01*
X102233333Y-75059523D01*
X102042857Y-75011904D01*
X101947619Y-74964285D01*
X101900000Y-74916666D01*
X101852380Y-74821428D01*
%TO.C,R11*%
X105052380Y-76292857D02*
X104576190Y-76626190D01*
X105052380Y-76864285D02*
X104052380Y-76864285D01*
X104052380Y-76483333D01*
X104100000Y-76388095D01*
X104147619Y-76340476D01*
X104242857Y-76292857D01*
X104385714Y-76292857D01*
X104480952Y-76340476D01*
X104528571Y-76388095D01*
X104576190Y-76483333D01*
X104576190Y-76864285D01*
X105052380Y-75340476D02*
X105052380Y-75911904D01*
X105052380Y-75626190D02*
X104052380Y-75626190D01*
X104195238Y-75721428D01*
X104290476Y-75816666D01*
X104338095Y-75911904D01*
X105052380Y-74388095D02*
X105052380Y-74959523D01*
X105052380Y-74673809D02*
X104052380Y-74673809D01*
X104195238Y-74769047D01*
X104290476Y-74864285D01*
X104338095Y-74959523D01*
%TO.C,R12*%
X111552380Y-76292857D02*
X111076190Y-76626190D01*
X111552380Y-76864285D02*
X110552380Y-76864285D01*
X110552380Y-76483333D01*
X110600000Y-76388095D01*
X110647619Y-76340476D01*
X110742857Y-76292857D01*
X110885714Y-76292857D01*
X110980952Y-76340476D01*
X111028571Y-76388095D01*
X111076190Y-76483333D01*
X111076190Y-76864285D01*
X111552380Y-75340476D02*
X111552380Y-75911904D01*
X111552380Y-75626190D02*
X110552380Y-75626190D01*
X110695238Y-75721428D01*
X110790476Y-75816666D01*
X110838095Y-75911904D01*
X110647619Y-74959523D02*
X110600000Y-74911904D01*
X110552380Y-74816666D01*
X110552380Y-74578571D01*
X110600000Y-74483333D01*
X110647619Y-74435714D01*
X110742857Y-74388095D01*
X110838095Y-74388095D01*
X110980952Y-74435714D01*
X111552380Y-75007142D01*
X111552380Y-74388095D01*
%TO.C,R13*%
X108302380Y-49592857D02*
X107826190Y-49926190D01*
X108302380Y-50164285D02*
X107302380Y-50164285D01*
X107302380Y-49783333D01*
X107350000Y-49688095D01*
X107397619Y-49640476D01*
X107492857Y-49592857D01*
X107635714Y-49592857D01*
X107730952Y-49640476D01*
X107778571Y-49688095D01*
X107826190Y-49783333D01*
X107826190Y-50164285D01*
X108302380Y-48640476D02*
X108302380Y-49211904D01*
X108302380Y-48926190D02*
X107302380Y-48926190D01*
X107445238Y-49021428D01*
X107540476Y-49116666D01*
X107588095Y-49211904D01*
X107302380Y-48307142D02*
X107302380Y-47688095D01*
X107683333Y-48021428D01*
X107683333Y-47878571D01*
X107730952Y-47783333D01*
X107778571Y-47735714D01*
X107873809Y-47688095D01*
X108111904Y-47688095D01*
X108207142Y-47735714D01*
X108254761Y-47783333D01*
X108302380Y-47878571D01*
X108302380Y-48164285D01*
X108254761Y-48259523D01*
X108207142Y-48307142D01*
%TO.C,TP1*%
X61838095Y-53722380D02*
X62409523Y-53722380D01*
X62123809Y-54722380D02*
X62123809Y-53722380D01*
X62742857Y-54722380D02*
X62742857Y-53722380D01*
X63123809Y-53722380D01*
X63219047Y-53770000D01*
X63266666Y-53817619D01*
X63314285Y-53912857D01*
X63314285Y-54055714D01*
X63266666Y-54150952D01*
X63219047Y-54198571D01*
X63123809Y-54246190D01*
X62742857Y-54246190D01*
X64266666Y-54722380D02*
X63695238Y-54722380D01*
X63980952Y-54722380D02*
X63980952Y-53722380D01*
X63885714Y-53865238D01*
X63790476Y-53960476D01*
X63695238Y-54008095D01*
%TO.C,TP2*%
X61938095Y-49922380D02*
X62509523Y-49922380D01*
X62223809Y-50922380D02*
X62223809Y-49922380D01*
X62842857Y-50922380D02*
X62842857Y-49922380D01*
X63223809Y-49922380D01*
X63319047Y-49970000D01*
X63366666Y-50017619D01*
X63414285Y-50112857D01*
X63414285Y-50255714D01*
X63366666Y-50350952D01*
X63319047Y-50398571D01*
X63223809Y-50446190D01*
X62842857Y-50446190D01*
X63795238Y-50017619D02*
X63842857Y-49970000D01*
X63938095Y-49922380D01*
X64176190Y-49922380D01*
X64271428Y-49970000D01*
X64319047Y-50017619D01*
X64366666Y-50112857D01*
X64366666Y-50208095D01*
X64319047Y-50350952D01*
X63747619Y-50922380D01*
X64366666Y-50922380D01*
%TO.C,TP3*%
X65938095Y-49922380D02*
X66509523Y-49922380D01*
X66223809Y-50922380D02*
X66223809Y-49922380D01*
X66842857Y-50922380D02*
X66842857Y-49922380D01*
X67223809Y-49922380D01*
X67319047Y-49970000D01*
X67366666Y-50017619D01*
X67414285Y-50112857D01*
X67414285Y-50255714D01*
X67366666Y-50350952D01*
X67319047Y-50398571D01*
X67223809Y-50446190D01*
X66842857Y-50446190D01*
X67747619Y-49922380D02*
X68366666Y-49922380D01*
X68033333Y-50303333D01*
X68176190Y-50303333D01*
X68271428Y-50350952D01*
X68319047Y-50398571D01*
X68366666Y-50493809D01*
X68366666Y-50731904D01*
X68319047Y-50827142D01*
X68271428Y-50874761D01*
X68176190Y-50922380D01*
X67890476Y-50922380D01*
X67795238Y-50874761D01*
X67747619Y-50827142D01*
%TO.C,TP4*%
X76638095Y-39622380D02*
X77209523Y-39622380D01*
X76923809Y-40622380D02*
X76923809Y-39622380D01*
X77542857Y-40622380D02*
X77542857Y-39622380D01*
X77923809Y-39622380D01*
X78019047Y-39670000D01*
X78066666Y-39717619D01*
X78114285Y-39812857D01*
X78114285Y-39955714D01*
X78066666Y-40050952D01*
X78019047Y-40098571D01*
X77923809Y-40146190D01*
X77542857Y-40146190D01*
X78971428Y-39955714D02*
X78971428Y-40622380D01*
X78733333Y-39574761D02*
X78495238Y-40289047D01*
X79114285Y-40289047D01*
%TO.C,TP5*%
X89338095Y-45322380D02*
X89909523Y-45322380D01*
X89623809Y-46322380D02*
X89623809Y-45322380D01*
X90242857Y-46322380D02*
X90242857Y-45322380D01*
X90623809Y-45322380D01*
X90719047Y-45370000D01*
X90766666Y-45417619D01*
X90814285Y-45512857D01*
X90814285Y-45655714D01*
X90766666Y-45750952D01*
X90719047Y-45798571D01*
X90623809Y-45846190D01*
X90242857Y-45846190D01*
X91719047Y-45322380D02*
X91242857Y-45322380D01*
X91195238Y-45798571D01*
X91242857Y-45750952D01*
X91338095Y-45703333D01*
X91576190Y-45703333D01*
X91671428Y-45750952D01*
X91719047Y-45798571D01*
X91766666Y-45893809D01*
X91766666Y-46131904D01*
X91719047Y-46227142D01*
X91671428Y-46274761D01*
X91576190Y-46322380D01*
X91338095Y-46322380D01*
X91242857Y-46274761D01*
X91195238Y-46227142D01*
%TO.C,TP6*%
X85138095Y-40622380D02*
X85709523Y-40622380D01*
X85423809Y-41622380D02*
X85423809Y-40622380D01*
X86042857Y-41622380D02*
X86042857Y-40622380D01*
X86423809Y-40622380D01*
X86519047Y-40670000D01*
X86566666Y-40717619D01*
X86614285Y-40812857D01*
X86614285Y-40955714D01*
X86566666Y-41050952D01*
X86519047Y-41098571D01*
X86423809Y-41146190D01*
X86042857Y-41146190D01*
X87471428Y-40622380D02*
X87280952Y-40622380D01*
X87185714Y-40670000D01*
X87138095Y-40717619D01*
X87042857Y-40860476D01*
X86995238Y-41050952D01*
X86995238Y-41431904D01*
X87042857Y-41527142D01*
X87090476Y-41574761D01*
X87185714Y-41622380D01*
X87376190Y-41622380D01*
X87471428Y-41574761D01*
X87519047Y-41527142D01*
X87566666Y-41431904D01*
X87566666Y-41193809D01*
X87519047Y-41098571D01*
X87471428Y-41050952D01*
X87376190Y-41003333D01*
X87185714Y-41003333D01*
X87090476Y-41050952D01*
X87042857Y-41098571D01*
X86995238Y-41193809D01*
%TO.C,TP7*%
X106838095Y-68522380D02*
X107409523Y-68522380D01*
X107123809Y-69522380D02*
X107123809Y-68522380D01*
X107742857Y-69522380D02*
X107742857Y-68522380D01*
X108123809Y-68522380D01*
X108219047Y-68570000D01*
X108266666Y-68617619D01*
X108314285Y-68712857D01*
X108314285Y-68855714D01*
X108266666Y-68950952D01*
X108219047Y-68998571D01*
X108123809Y-69046190D01*
X107742857Y-69046190D01*
X108647619Y-68522380D02*
X109314285Y-68522380D01*
X108885714Y-69522380D01*
%TO.C,TP8*%
X93538095Y-52422380D02*
X94109523Y-52422380D01*
X93823809Y-53422380D02*
X93823809Y-52422380D01*
X94442857Y-53422380D02*
X94442857Y-52422380D01*
X94823809Y-52422380D01*
X94919047Y-52470000D01*
X94966666Y-52517619D01*
X95014285Y-52612857D01*
X95014285Y-52755714D01*
X94966666Y-52850952D01*
X94919047Y-52898571D01*
X94823809Y-52946190D01*
X94442857Y-52946190D01*
X95585714Y-52850952D02*
X95490476Y-52803333D01*
X95442857Y-52755714D01*
X95395238Y-52660476D01*
X95395238Y-52612857D01*
X95442857Y-52517619D01*
X95490476Y-52470000D01*
X95585714Y-52422380D01*
X95776190Y-52422380D01*
X95871428Y-52470000D01*
X95919047Y-52517619D01*
X95966666Y-52612857D01*
X95966666Y-52660476D01*
X95919047Y-52755714D01*
X95871428Y-52803333D01*
X95776190Y-52850952D01*
X95585714Y-52850952D01*
X95490476Y-52898571D01*
X95442857Y-52946190D01*
X95395238Y-53041428D01*
X95395238Y-53231904D01*
X95442857Y-53327142D01*
X95490476Y-53374761D01*
X95585714Y-53422380D01*
X95776190Y-53422380D01*
X95871428Y-53374761D01*
X95919047Y-53327142D01*
X95966666Y-53231904D01*
X95966666Y-53041428D01*
X95919047Y-52946190D01*
X95871428Y-52898571D01*
X95776190Y-52850952D01*
%TO.C,TP9*%
X96538095Y-34122380D02*
X97109523Y-34122380D01*
X96823809Y-35122380D02*
X96823809Y-34122380D01*
X97442857Y-35122380D02*
X97442857Y-34122380D01*
X97823809Y-34122380D01*
X97919047Y-34170000D01*
X97966666Y-34217619D01*
X98014285Y-34312857D01*
X98014285Y-34455714D01*
X97966666Y-34550952D01*
X97919047Y-34598571D01*
X97823809Y-34646190D01*
X97442857Y-34646190D01*
X98490476Y-35122380D02*
X98680952Y-35122380D01*
X98776190Y-35074761D01*
X98823809Y-35027142D01*
X98919047Y-34884285D01*
X98966666Y-34693809D01*
X98966666Y-34312857D01*
X98919047Y-34217619D01*
X98871428Y-34170000D01*
X98776190Y-34122380D01*
X98585714Y-34122380D01*
X98490476Y-34170000D01*
X98442857Y-34217619D01*
X98395238Y-34312857D01*
X98395238Y-34550952D01*
X98442857Y-34646190D01*
X98490476Y-34693809D01*
X98585714Y-34741428D01*
X98776190Y-34741428D01*
X98871428Y-34693809D01*
X98919047Y-34646190D01*
X98966666Y-34550952D01*
%TO.C,TP10*%
X88861904Y-49222380D02*
X89433333Y-49222380D01*
X89147619Y-50222380D02*
X89147619Y-49222380D01*
X89766666Y-50222380D02*
X89766666Y-49222380D01*
X90147619Y-49222380D01*
X90242857Y-49270000D01*
X90290476Y-49317619D01*
X90338095Y-49412857D01*
X90338095Y-49555714D01*
X90290476Y-49650952D01*
X90242857Y-49698571D01*
X90147619Y-49746190D01*
X89766666Y-49746190D01*
X91290476Y-50222380D02*
X90719047Y-50222380D01*
X91004761Y-50222380D02*
X91004761Y-49222380D01*
X90909523Y-49365238D01*
X90814285Y-49460476D01*
X90719047Y-49508095D01*
X91909523Y-49222380D02*
X92004761Y-49222380D01*
X92100000Y-49270000D01*
X92147619Y-49317619D01*
X92195238Y-49412857D01*
X92242857Y-49603333D01*
X92242857Y-49841428D01*
X92195238Y-50031904D01*
X92147619Y-50127142D01*
X92100000Y-50174761D01*
X92004761Y-50222380D01*
X91909523Y-50222380D01*
X91814285Y-50174761D01*
X91766666Y-50127142D01*
X91719047Y-50031904D01*
X91671428Y-49841428D01*
X91671428Y-49603333D01*
X91719047Y-49412857D01*
X91766666Y-49317619D01*
X91814285Y-49270000D01*
X91909523Y-49222380D01*
%TO.C,TP11*%
X102961904Y-38722380D02*
X103533333Y-38722380D01*
X103247619Y-39722380D02*
X103247619Y-38722380D01*
X103866666Y-39722380D02*
X103866666Y-38722380D01*
X104247619Y-38722380D01*
X104342857Y-38770000D01*
X104390476Y-38817619D01*
X104438095Y-38912857D01*
X104438095Y-39055714D01*
X104390476Y-39150952D01*
X104342857Y-39198571D01*
X104247619Y-39246190D01*
X103866666Y-39246190D01*
X105390476Y-39722380D02*
X104819047Y-39722380D01*
X105104761Y-39722380D02*
X105104761Y-38722380D01*
X105009523Y-38865238D01*
X104914285Y-38960476D01*
X104819047Y-39008095D01*
X106342857Y-39722380D02*
X105771428Y-39722380D01*
X106057142Y-39722380D02*
X106057142Y-38722380D01*
X105961904Y-38865238D01*
X105866666Y-38960476D01*
X105771428Y-39008095D01*
%TO.C,TP12*%
X102161904Y-68622380D02*
X102733333Y-68622380D01*
X102447619Y-69622380D02*
X102447619Y-68622380D01*
X103066666Y-69622380D02*
X103066666Y-68622380D01*
X103447619Y-68622380D01*
X103542857Y-68670000D01*
X103590476Y-68717619D01*
X103638095Y-68812857D01*
X103638095Y-68955714D01*
X103590476Y-69050952D01*
X103542857Y-69098571D01*
X103447619Y-69146190D01*
X103066666Y-69146190D01*
X104590476Y-69622380D02*
X104019047Y-69622380D01*
X104304761Y-69622380D02*
X104304761Y-68622380D01*
X104209523Y-68765238D01*
X104114285Y-68860476D01*
X104019047Y-68908095D01*
X104971428Y-68717619D02*
X105019047Y-68670000D01*
X105114285Y-68622380D01*
X105352380Y-68622380D01*
X105447619Y-68670000D01*
X105495238Y-68717619D01*
X105542857Y-68812857D01*
X105542857Y-68908095D01*
X105495238Y-69050952D01*
X104923809Y-69622380D01*
X105542857Y-69622380D01*
%TO.C,TP13*%
X97661904Y-68622380D02*
X98233333Y-68622380D01*
X97947619Y-69622380D02*
X97947619Y-68622380D01*
X98566666Y-69622380D02*
X98566666Y-68622380D01*
X98947619Y-68622380D01*
X99042857Y-68670000D01*
X99090476Y-68717619D01*
X99138095Y-68812857D01*
X99138095Y-68955714D01*
X99090476Y-69050952D01*
X99042857Y-69098571D01*
X98947619Y-69146190D01*
X98566666Y-69146190D01*
X100090476Y-69622380D02*
X99519047Y-69622380D01*
X99804761Y-69622380D02*
X99804761Y-68622380D01*
X99709523Y-68765238D01*
X99614285Y-68860476D01*
X99519047Y-68908095D01*
X100423809Y-68622380D02*
X101042857Y-68622380D01*
X100709523Y-69003333D01*
X100852380Y-69003333D01*
X100947619Y-69050952D01*
X100995238Y-69098571D01*
X101042857Y-69193809D01*
X101042857Y-69431904D01*
X100995238Y-69527142D01*
X100947619Y-69574761D01*
X100852380Y-69622380D01*
X100566666Y-69622380D01*
X100471428Y-69574761D01*
X100423809Y-69527142D01*
%TO.C,TP14*%
X93261904Y-68622380D02*
X93833333Y-68622380D01*
X93547619Y-69622380D02*
X93547619Y-68622380D01*
X94166666Y-69622380D02*
X94166666Y-68622380D01*
X94547619Y-68622380D01*
X94642857Y-68670000D01*
X94690476Y-68717619D01*
X94738095Y-68812857D01*
X94738095Y-68955714D01*
X94690476Y-69050952D01*
X94642857Y-69098571D01*
X94547619Y-69146190D01*
X94166666Y-69146190D01*
X95690476Y-69622380D02*
X95119047Y-69622380D01*
X95404761Y-69622380D02*
X95404761Y-68622380D01*
X95309523Y-68765238D01*
X95214285Y-68860476D01*
X95119047Y-68908095D01*
X96547619Y-68955714D02*
X96547619Y-69622380D01*
X96309523Y-68574761D02*
X96071428Y-69289047D01*
X96690476Y-69289047D01*
%TO.C,TP15*%
X106761904Y-77022380D02*
X107333333Y-77022380D01*
X107047619Y-78022380D02*
X107047619Y-77022380D01*
X107666666Y-78022380D02*
X107666666Y-77022380D01*
X108047619Y-77022380D01*
X108142857Y-77070000D01*
X108190476Y-77117619D01*
X108238095Y-77212857D01*
X108238095Y-77355714D01*
X108190476Y-77450952D01*
X108142857Y-77498571D01*
X108047619Y-77546190D01*
X107666666Y-77546190D01*
X109190476Y-78022380D02*
X108619047Y-78022380D01*
X108904761Y-78022380D02*
X108904761Y-77022380D01*
X108809523Y-77165238D01*
X108714285Y-77260476D01*
X108619047Y-77308095D01*
X110095238Y-77022380D02*
X109619047Y-77022380D01*
X109571428Y-77498571D01*
X109619047Y-77450952D01*
X109714285Y-77403333D01*
X109952380Y-77403333D01*
X110047619Y-77450952D01*
X110095238Y-77498571D01*
X110142857Y-77593809D01*
X110142857Y-77831904D01*
X110095238Y-77927142D01*
X110047619Y-77974761D01*
X109952380Y-78022380D01*
X109714285Y-78022380D01*
X109619047Y-77974761D01*
X109571428Y-77927142D01*
%TO.C,TP16*%
X110861904Y-50822380D02*
X111433333Y-50822380D01*
X111147619Y-51822380D02*
X111147619Y-50822380D01*
X111766666Y-51822380D02*
X111766666Y-50822380D01*
X112147619Y-50822380D01*
X112242857Y-50870000D01*
X112290476Y-50917619D01*
X112338095Y-51012857D01*
X112338095Y-51155714D01*
X112290476Y-51250952D01*
X112242857Y-51298571D01*
X112147619Y-51346190D01*
X111766666Y-51346190D01*
X113290476Y-51822380D02*
X112719047Y-51822380D01*
X113004761Y-51822380D02*
X113004761Y-50822380D01*
X112909523Y-50965238D01*
X112814285Y-51060476D01*
X112719047Y-51108095D01*
X114147619Y-50822380D02*
X113957142Y-50822380D01*
X113861904Y-50870000D01*
X113814285Y-50917619D01*
X113719047Y-51060476D01*
X113671428Y-51250952D01*
X113671428Y-51631904D01*
X113719047Y-51727142D01*
X113766666Y-51774761D01*
X113861904Y-51822380D01*
X114052380Y-51822380D01*
X114147619Y-51774761D01*
X114195238Y-51727142D01*
X114242857Y-51631904D01*
X114242857Y-51393809D01*
X114195238Y-51298571D01*
X114147619Y-51250952D01*
X114052380Y-51203333D01*
X113861904Y-51203333D01*
X113766666Y-51250952D01*
X113719047Y-51298571D01*
X113671428Y-51393809D01*
%TO.C,TP17*%
X101961904Y-77022380D02*
X102533333Y-77022380D01*
X102247619Y-78022380D02*
X102247619Y-77022380D01*
X102866666Y-78022380D02*
X102866666Y-77022380D01*
X103247619Y-77022380D01*
X103342857Y-77070000D01*
X103390476Y-77117619D01*
X103438095Y-77212857D01*
X103438095Y-77355714D01*
X103390476Y-77450952D01*
X103342857Y-77498571D01*
X103247619Y-77546190D01*
X102866666Y-77546190D01*
X104390476Y-78022380D02*
X103819047Y-78022380D01*
X104104761Y-78022380D02*
X104104761Y-77022380D01*
X104009523Y-77165238D01*
X103914285Y-77260476D01*
X103819047Y-77308095D01*
X104723809Y-77022380D02*
X105390476Y-77022380D01*
X104961904Y-78022380D01*
%TO.C,TP18*%
X97861904Y-77222380D02*
X98433333Y-77222380D01*
X98147619Y-78222380D02*
X98147619Y-77222380D01*
X98766666Y-78222380D02*
X98766666Y-77222380D01*
X99147619Y-77222380D01*
X99242857Y-77270000D01*
X99290476Y-77317619D01*
X99338095Y-77412857D01*
X99338095Y-77555714D01*
X99290476Y-77650952D01*
X99242857Y-77698571D01*
X99147619Y-77746190D01*
X98766666Y-77746190D01*
X100290476Y-78222380D02*
X99719047Y-78222380D01*
X100004761Y-78222380D02*
X100004761Y-77222380D01*
X99909523Y-77365238D01*
X99814285Y-77460476D01*
X99719047Y-77508095D01*
X100861904Y-77650952D02*
X100766666Y-77603333D01*
X100719047Y-77555714D01*
X100671428Y-77460476D01*
X100671428Y-77412857D01*
X100719047Y-77317619D01*
X100766666Y-77270000D01*
X100861904Y-77222380D01*
X101052380Y-77222380D01*
X101147619Y-77270000D01*
X101195238Y-77317619D01*
X101242857Y-77412857D01*
X101242857Y-77460476D01*
X101195238Y-77555714D01*
X101147619Y-77603333D01*
X101052380Y-77650952D01*
X100861904Y-77650952D01*
X100766666Y-77698571D01*
X100719047Y-77746190D01*
X100671428Y-77841428D01*
X100671428Y-78031904D01*
X100719047Y-78127142D01*
X100766666Y-78174761D01*
X100861904Y-78222380D01*
X101052380Y-78222380D01*
X101147619Y-78174761D01*
X101195238Y-78127142D01*
X101242857Y-78031904D01*
X101242857Y-77841428D01*
X101195238Y-77746190D01*
X101147619Y-77698571D01*
X101052380Y-77650952D01*
%TO.C,TP19*%
X93261904Y-77422380D02*
X93833333Y-77422380D01*
X93547619Y-78422380D02*
X93547619Y-77422380D01*
X94166666Y-78422380D02*
X94166666Y-77422380D01*
X94547619Y-77422380D01*
X94642857Y-77470000D01*
X94690476Y-77517619D01*
X94738095Y-77612857D01*
X94738095Y-77755714D01*
X94690476Y-77850952D01*
X94642857Y-77898571D01*
X94547619Y-77946190D01*
X94166666Y-77946190D01*
X95690476Y-78422380D02*
X95119047Y-78422380D01*
X95404761Y-78422380D02*
X95404761Y-77422380D01*
X95309523Y-77565238D01*
X95214285Y-77660476D01*
X95119047Y-77708095D01*
X96166666Y-78422380D02*
X96357142Y-78422380D01*
X96452380Y-78374761D01*
X96500000Y-78327142D01*
X96595238Y-78184285D01*
X96642857Y-77993809D01*
X96642857Y-77612857D01*
X96595238Y-77517619D01*
X96547619Y-77470000D01*
X96452380Y-77422380D01*
X96261904Y-77422380D01*
X96166666Y-77470000D01*
X96119047Y-77517619D01*
X96071428Y-77612857D01*
X96071428Y-77850952D01*
X96119047Y-77946190D01*
X96166666Y-77993809D01*
X96261904Y-78041428D01*
X96452380Y-78041428D01*
X96547619Y-77993809D01*
X96595238Y-77946190D01*
X96642857Y-77850952D01*
%TO.C,U1*%
X64052380Y-60961904D02*
X64861904Y-60961904D01*
X64957142Y-60914285D01*
X65004761Y-60866666D01*
X65052380Y-60771428D01*
X65052380Y-60580952D01*
X65004761Y-60485714D01*
X64957142Y-60438095D01*
X64861904Y-60390476D01*
X64052380Y-60390476D01*
X65052380Y-59390476D02*
X65052380Y-59961904D01*
X65052380Y-59676190D02*
X64052380Y-59676190D01*
X64195238Y-59771428D01*
X64290476Y-59866666D01*
X64338095Y-59961904D01*
%TO.C,U2*%
X65188095Y-40452380D02*
X65188095Y-41261904D01*
X65235714Y-41357142D01*
X65283333Y-41404761D01*
X65378571Y-41452380D01*
X65569047Y-41452380D01*
X65664285Y-41404761D01*
X65711904Y-41357142D01*
X65759523Y-41261904D01*
X65759523Y-40452380D01*
X66188095Y-40547619D02*
X66235714Y-40500000D01*
X66330952Y-40452380D01*
X66569047Y-40452380D01*
X66664285Y-40500000D01*
X66711904Y-40547619D01*
X66759523Y-40642857D01*
X66759523Y-40738095D01*
X66711904Y-40880952D01*
X66140476Y-41452380D01*
X66759523Y-41452380D01*
%TO.C,U3*%
X77238095Y-50502380D02*
X77238095Y-51311904D01*
X77285714Y-51407142D01*
X77333333Y-51454761D01*
X77428571Y-51502380D01*
X77619047Y-51502380D01*
X77714285Y-51454761D01*
X77761904Y-51407142D01*
X77809523Y-51311904D01*
X77809523Y-50502380D01*
X78190476Y-50502380D02*
X78809523Y-50502380D01*
X78476190Y-50883333D01*
X78619047Y-50883333D01*
X78714285Y-50930952D01*
X78761904Y-50978571D01*
X78809523Y-51073809D01*
X78809523Y-51311904D01*
X78761904Y-51407142D01*
X78714285Y-51454761D01*
X78619047Y-51502380D01*
X78333333Y-51502380D01*
X78238095Y-51454761D01*
X78190476Y-51407142D01*
%TO.C,U4*%
X100938095Y-61352380D02*
X100938095Y-62161904D01*
X100985714Y-62257142D01*
X101033333Y-62304761D01*
X101128571Y-62352380D01*
X101319047Y-62352380D01*
X101414285Y-62304761D01*
X101461904Y-62257142D01*
X101509523Y-62161904D01*
X101509523Y-61352380D01*
X102414285Y-61685714D02*
X102414285Y-62352380D01*
X102176190Y-61304761D02*
X101938095Y-62019047D01*
X102557142Y-62019047D01*
%TO.C,U6*%
X116552380Y-48261904D02*
X117361904Y-48261904D01*
X117457142Y-48214285D01*
X117504761Y-48166666D01*
X117552380Y-48071428D01*
X117552380Y-47880952D01*
X117504761Y-47785714D01*
X117457142Y-47738095D01*
X117361904Y-47690476D01*
X116552380Y-47690476D01*
X116552380Y-46785714D02*
X116552380Y-46976190D01*
X116600000Y-47071428D01*
X116647619Y-47119047D01*
X116790476Y-47214285D01*
X116980952Y-47261904D01*
X117361904Y-47261904D01*
X117457142Y-47214285D01*
X117504761Y-47166666D01*
X117552380Y-47071428D01*
X117552380Y-46880952D01*
X117504761Y-46785714D01*
X117457142Y-46738095D01*
X117361904Y-46690476D01*
X117123809Y-46690476D01*
X117028571Y-46738095D01*
X116980952Y-46785714D01*
X116933333Y-46880952D01*
X116933333Y-47071428D01*
X116980952Y-47166666D01*
X117028571Y-47214285D01*
X117123809Y-47261904D01*
%TO.C,U5*%
X95052380Y-40961904D02*
X95861904Y-40961904D01*
X95957142Y-40914285D01*
X96004761Y-40866666D01*
X96052380Y-40771428D01*
X96052380Y-40580952D01*
X96004761Y-40485714D01*
X95957142Y-40438095D01*
X95861904Y-40390476D01*
X95052380Y-40390476D01*
X95052380Y-39438095D02*
X95052380Y-39914285D01*
X95528571Y-39961904D01*
X95480952Y-39914285D01*
X95433333Y-39819047D01*
X95433333Y-39580952D01*
X95480952Y-39485714D01*
X95528571Y-39438095D01*
X95623809Y-39390476D01*
X95861904Y-39390476D01*
X95957142Y-39438095D01*
X96004761Y-39485714D01*
X96052380Y-39580952D01*
X96052380Y-39819047D01*
X96004761Y-39914285D01*
X95957142Y-39961904D01*
X102174523Y-46837142D02*
X102174523Y-47562857D01*
X102174523Y-47200000D02*
X100904523Y-47200000D01*
X101085952Y-47320952D01*
X101206904Y-47441904D01*
X101267380Y-47562857D01*
%TD*%
M02*
